{
.appVersion = "1082";
copyright = "Copyright 2012 The Garoa Project Authors: Tony de Marco and Diego Maldonado (https://github.com/Just-in-Type/Garoa)";
customParameters = (
{
name = licenseURL;
value = "https://scripts.sil.org/OFL";
},
{
name = license;
value = "This Font Software is licensed under the SIL Open Font License, Version 1.1. This license is available with a FAQ at: https://scripts.sil.org/OFL";
}
);
date = "2011-11-18 16:46:00 +0000";
designer = "Tony de Marco and Diego Maldonado";
designerURL = "http://www.justintype.com.br";
familyName = Garoa;
features = (
{
automatic = 1;
code = "feature dlig;\012";
name = aalt;
},
{
automatic = 1;
code = "pos @Uppercase <5 0 10 0>;\012";
name = cpsp;
},
{
automatic = 1;
code = "script latn;\012sub C O by C_O;\012sub L A by L_A;\012sub L Aacute by L_Aacute;\012sub L Atilde by L_Atilde;\012sub c a by c_a;\012sub c o by c_o;\012sub c o o by c_o_o;\012sub e a by e_a;\012sub e s by e_s;\012sub g a by g_a;\012sub g o o by g_o_o;\012sub l a by l_a;\012sub l e by l_e;\012sub l h by l_h;\012sub l i by l_i;\012sub l l by l_l;\012sub l o by l_o;\012sub l oacute by l_oacute;\012sub l ocircumflex by l_ocircumflex;\012sub l otilde by l_otilde;\012sub l u by l_u;\012sub l uacute by l_uacute;\012sub n t by n_t;\012sub n t e m by n_t_e_m;\012sub n t eacute m by n_t_eacute_m;\012sub n t ecircumflex m by n_t_ecircumflex_m;\012sub o c by o_c;\012sub o o by o_o;\012sub r a by r_a;\012sub r s by r_s;\012sub s p by s_p;\012sub s s by s_s;\012sub s t by s_t;\012sub s u by s_u;\012sub s w by s_w;\012sub t e by t_e;\012sub t e m by t_e_m;\012sub t eacute m by t_eacute_m;\012sub t ecircumflex m by t_ecircumflex_m;\012sub t u by t_u;\012sub t w by t_w;\012sub u t by u_t;\012";
name = dlig;
}
);
fontMaster = (
{
ascender = 750;
capHeight = 700;
descender = -250;
iconName = Bold;
id = "89B76552-B35F-455B-86D9-BC5A433DF1B4";
name = Bold;
weight = Bold;
weightValue = 700;
widthValue = 5;
xHeight = 500;
}
);
glyphs = (
{
glyphname = A;
layers = (
{
layerId = "89B76552-B35F-455B-86D9-BC5A433DF1B4";
paths = (
{
closed = 1;
nodes = (
"380 700 LINE SMOOTH",
"367 738 OFFCURVE",
"331 763 OFFCURVE",
"292 763 CURVE SMOOTH",
"252 763 OFFCURVE",
"216 738 OFFCURVE",
"203 700 CURVE SMOOTH",
"6 124 LINE SMOOTH",
"-11 75 OFFCURVE",
"15 22 OFFCURVE",
"64 5 CURVE SMOOTH",
"113 -11 OFFCURVE",
"166 15 OFFCURVE",
"183 64 CURVE SMOOTH",
"292 381 LINE",
"351 208 LINE",
"318 213 LINE SMOOTH",
"267 221 OFFCURVE",
"220 185 OFFCURVE",
"212 134 CURVE SMOOTH",
"205 83 OFFCURVE",
"240 35 OFFCURVE",
"291 28 CURVE SMOOTH",
"475 1 LINE SMOOTH",
"508 -3 OFFCURVE",
"540 9 OFFCURVE",
"561 34 CURVE SMOOTH",
"582 59 OFFCURVE",
"588 93 OFFCURVE",
"577 124 CURVE SMOOTH"
);
}
);
width = 583;
}
);
leftKerningGroup = "= \"@MMK_R_Aacute\"";
rightKerningGroup = "= \"@MMK_L_Aacute\"";
unicode = 0041;
},
{
glyphname = Aacute;
layers = (
{
layerId = "89B76552-B35F-455B-86D9-BC5A433DF1B4";
paths = (
{
closed = 1;
nodes = (
"380 700 LINE SMOOTH",
"367 738 OFFCURVE",
"331 763 OFFCURVE",
"292 763 CURVE SMOOTH",
"252 763 OFFCURVE",
"216 738 OFFCURVE",
"203 700 CURVE SMOOTH",
"6 124 LINE SMOOTH",
"-11 75 OFFCURVE",
"15 22 OFFCURVE",
"64 5 CURVE SMOOTH",
"113 -11 OFFCURVE",
"166 15 OFFCURVE",
"183 64 CURVE SMOOTH",
"292 381 LINE",
"351 208 LINE",
"318 213 LINE SMOOTH",
"267 221 OFFCURVE",
"220 185 OFFCURVE",
"212 134 CURVE SMOOTH",
"205 83 OFFCURVE",
"240 35 OFFCURVE",
"291 28 CURVE SMOOTH",
"475 1 LINE SMOOTH",
"508 -3 OFFCURVE",
"540 9 OFFCURVE",
"561 34 CURVE SMOOTH",
"582 59 OFFCURVE",
"588 93 OFFCURVE",
"577 124 CURVE SMOOTH"
);
},
{
closed = 1;
nodes = (
"261 890 LINE",
"261 890 LINE",
"230 868 OFFCURVE",
"223 826 OFFCURVE",
"245 795 CURVE SMOOTH",
"267 765 OFFCURVE",
"310 758 OFFCURVE",
"340 780 CURVE SMOOTH",
"426 842 LINE SMOOTH",
"457 864 OFFCURVE",
"464 906 OFFCURVE",
"442 937 CURVE SMOOTH",
"420 967 OFFCURVE",
"377 974 OFFCURVE",
"347 952 CURVE SMOOTH"
);
}
);
width = 583;
}
);
leftKerningGroup = "= \"@MMK_R_Aacute\"";
rightKerningGroup = "= \"@MMK_L_Aacute\"";
unicode = 00C1;
},
{
glyphname = Acircumflex;
layers = (
{
layerId = "89B76552-B35F-455B-86D9-BC5A433DF1B4";
paths = (
{
closed = 1;
nodes = (
"380 700 LINE SMOOTH",
"367 738 OFFCURVE",
"331 763 OFFCURVE",
"292 763 CURVE SMOOTH",
"252 763 OFFCURVE",
"216 738 OFFCURVE",
"203 700 CURVE SMOOTH",
"6 124 LINE SMOOTH",
"-11 75 OFFCURVE",
"15 22 OFFCURVE",
"64 5 CURVE SMOOTH",
"113 -11 OFFCURVE",
"166 15 OFFCURVE",
"183 64 CURVE SMOOTH",
"292 381 LINE",
"351 208 LINE",
"318 213 LINE SMOOTH",
"267 221 OFFCURVE",
"220 185 OFFCURVE",
"212 134 CURVE SMOOTH",
"205 83 OFFCURVE",
"240 35 OFFCURVE",
"291 28 CURVE SMOOTH",
"475 1 LINE SMOOTH",
"508 -3 OFFCURVE",
"540 9 OFFCURVE",
"561 34 CURVE SMOOTH",
"582 59 OFFCURVE",
"588 93 OFFCURVE",
"577 124 CURVE SMOOTH"
);
},
{
closed = 1;
nodes = (
"332 927 LINE SMOOTH",
"308 944 OFFCURVE",
"276 944 OFFCURVE",
"252 927 CURVE SMOOTH",
"166 865 LINE SMOOTH",
"135 843 OFFCURVE",
"129 801 OFFCURVE",
"150 770 CURVE",
"172 740 OFFCURVE",
"215 733 OFFCURVE",
"245 755 CURVE SMOOTH",
"292 788 LINE",
"338 755 LINE SMOOTH",
"369 733 OFFCURVE",
"411 740 OFFCURVE",
"433 770 CURVE SMOOTH",
"455 801 OFFCURVE",
"448 843 OFFCURVE",
"418 865 CURVE SMOOTH"
);
}
);
width = 583;
}
);
leftKerningGroup = "= \"@MMK_R_Aacute\"";
rightKerningGroup = "= \"@MMK_L_Aacute\"";
unicode = 00C2;
},
{
glyphname = Adieresis;
layers = (
{
layerId = "89B76552-B35F-455B-86D9-BC5A433DF1B4";
paths = (
{
closed = 1;
nodes = (
"380 700 LINE SMOOTH",
"367 738 OFFCURVE",
"331 763 OFFCURVE",
"292 763 CURVE SMOOTH",
"252 763 OFFCURVE",
"216 738 OFFCURVE",
"203 700 CURVE SMOOTH",
"6 124 LINE SMOOTH",
"-11 75 OFFCURVE",
"15 22 OFFCURVE",
"64 5 CURVE SMOOTH",
"113 -11 OFFCURVE",
"166 15 OFFCURVE",
"183 64 CURVE SMOOTH",
"292 381 LINE",
"351 208 LINE",
"318 213 LINE SMOOTH",
"267 221 OFFCURVE",
"220 185 OFFCURVE",
"212 134 CURVE SMOOTH",
"205 83 OFFCURVE",
"240 35 OFFCURVE",
"291 28 CURVE SMOOTH",
"475 1 LINE SMOOTH",
"508 -3 OFFCURVE",
"540 9 OFFCURVE",
"561 34 CURVE SMOOTH",
"582 59 OFFCURVE",
"588 93 OFFCURVE",
"577 124 CURVE SMOOTH"
);
},
{
closed = 1;
nodes = (
"175 896 OFFCURVE",
"142 863 OFFCURVE",
"142 822 CURVE SMOOTH",
"142 782 OFFCURVE",
"175 749 OFFCURVE",
"216 749 CURVE SMOOTH",
"257 749 OFFCURVE",
"290 782 OFFCURVE",
"290 822 CURVE SMOOTH",
"290 863 OFFCURVE",
"257 896 OFFCURVE",
"216 896 CURVE SMOOTH"
);
},
{
closed = 1;
nodes = (
"327 896 OFFCURVE",
"294 863 OFFCURVE",
"294 822 CURVE SMOOTH",
"294 782 OFFCURVE",
"327 749 OFFCURVE",
"368 749 CURVE SMOOTH",
"409 749 OFFCURVE",
"442 782 OFFCURVE",
"442 822 CURVE SMOOTH",
"442 863 OFFCURVE",
"409 896 OFFCURVE",
"368 896 CURVE SMOOTH"
);
}
);
width = 583;
}
);
leftKerningGroup = "= \"@MMK_R_Aacute\"";
rightKerningGroup = "= \"@MMK_L_Aacute\"";
unicode = 00C4;
},
{
glyphname = Agrave;
layers = (
{
layerId = "89B76552-B35F-455B-86D9-BC5A433DF1B4";
paths = (
{
closed = 1;
nodes = (
"380 700 LINE SMOOTH",
"367 738 OFFCURVE",
"331 763 OFFCURVE",
"292 763 CURVE SMOOTH",
"252 763 OFFCURVE",
"216 738 OFFCURVE",
"203 700 CURVE SMOOTH",
"6 124 LINE SMOOTH",
"-11 75 OFFCURVE",
"15 22 OFFCURVE",
"64 5 CURVE SMOOTH",
"113 -11 OFFCURVE",
"166 15 OFFCURVE",
"183 64 CURVE SMOOTH",
"292 381 LINE",
"351 208 LINE",
"318 213 LINE SMOOTH",
"267 221 OFFCURVE",
"220 185 OFFCURVE",
"212 134 CURVE SMOOTH",
"205 83 OFFCURVE",
"240 35 OFFCURVE",
"291 28 CURVE SMOOTH",
"475 1 LINE SMOOTH",
"508 -3 OFFCURVE",
"540 9 OFFCURVE",
"561 34 CURVE SMOOTH",
"582 59 OFFCURVE",
"588 93 OFFCURVE",
"577 124 CURVE SMOOTH"
);
},
{
closed = 1;
nodes = (
"247 953 LINE SMOOTH",
"216 975 OFFCURVE",
"174 968 OFFCURVE",
"152 937 CURVE SMOOTH",
"130 907 OFFCURVE",
"137 864 OFFCURVE",
"167 842 CURVE SMOOTH",
"253 780 LINE SMOOTH",
"284 758 OFFCURVE",
"326 765 OFFCURVE",
"348 796 CURVE SMOOTH",
"370 826 OFFCURVE",
"363 869 OFFCURVE",
"333 891 CURVE SMOOTH"
);
}
);
width = 583;
}
);
leftKerningGroup = "= \"@MMK_R_Aacute\"";
rightKerningGroup = "= \"@MMK_L_Aacute\"";
unicode = 00C0;
},
{
glyphname = Atilde;
layers = (
{
layerId = "89B76552-B35F-455B-86D9-BC5A433DF1B4";
paths = (
{
closed = 1;
nodes = (
"380 700 LINE SMOOTH",
"367 738 OFFCURVE",
"331 763 OFFCURVE",
"292 763 CURVE SMOOTH",
"252 763 OFFCURVE",
"216 738 OFFCURVE",
"203 700 CURVE SMOOTH",
"6 124 LINE SMOOTH",
"-11 75 OFFCURVE",
"15 22 OFFCURVE",
"64 5 CURVE SMOOTH",
"113 -11 OFFCURVE",
"166 15 OFFCURVE",
"183 64 CURVE SMOOTH",
"292 381 LINE",
"351 208 LINE",
"318 213 LINE SMOOTH",
"267 221 OFFCURVE",
"220 185 OFFCURVE",
"212 134 CURVE SMOOTH",
"205 83 OFFCURVE",
"240 35 OFFCURVE",
"291 28 CURVE SMOOTH",
"475 1 LINE SMOOTH",
"508 -3 OFFCURVE",
"540 9 OFFCURVE",
"561 34 CURVE SMOOTH",
"582 59 OFFCURVE",
"588 93 OFFCURVE",
"577 124 CURVE SMOOTH"
);
},
{
closed = 1;
nodes = (
"383 933 OFFCURVE",
"354 922 OFFCURVE",
"337 900 CURVE",
"336 901 OFFCURVE",
"334 902 OFFCURVE",
"333 902 CURVE",
"328 905 LINE",
"328 905 OFFCURVE",
"324 907 OFFCURVE",
"324 907 CURVE",
"306 916 OFFCURVE",
"274 932 OFFCURVE",
"230 927 CURVE SMOOTH",
"178 920 OFFCURVE",
"148 880 OFFCURVE",
"139 848 CURVE SMOOTH",
"128 812 OFFCURVE",
"148 774 OFFCURVE",
"184 763 CURVE SMOOTH",
"212 754 OFFCURVE",
"242 765 OFFCURVE",
"258 787 CURVE",
"260 787 OFFCURVE",
"261 786 OFFCURVE",
"263 785 CURVE SMOOTH",
"267 783 LINE",
"267 783 OFFCURVE",
"271 781 OFFCURVE",
"271 781 CURVE",
"290 772 OFFCURVE",
"321 756 OFFCURVE",
"365 761 CURVE SMOOTH",
"417 767 OFFCURVE",
"447 807 OFFCURVE",
"457 840 CURVE SMOOTH",
"468 876 OFFCURVE",
"447 914 OFFCURVE",
"411 925 CURVE SMOOTH"
);
}
);
width = 583;
}
);
leftKerningGroup = "= \"@MMK_R_Aacute\"";
rightKerningGroup = "= \"@MMK_L_Aacute\"";
unicode = 00C3;
},
{
glyphname = B;
layers = (
{
layerId = "89B76552-B35F-455B-86D9-BC5A433DF1B4";
paths = (
{
closed = 1;
nodes = (
"443 471 OFFCURVE",
"445 491 OFFCURVE",
"445 513 CURVE SMOOTH",
"445 651 OFFCURVE",
"333 763 OFFCURVE",
"195 763 CURVE SMOOTH",
"195 763 OFFCURVE",
"124 763 OFFCURVE",
"124 763 CURVE SMOOTH",
"99 763 OFFCURVE",
"75 753 OFFCURVE",
"57 736 CURVE",
"40 718 OFFCURVE",
"30 695 OFFCURVE",
"30 670 CURVE SMOOTH",
"30 94 LINE SMOOTH",
"30 42 OFFCURVE",
"72 0 OFFCURVE",
"123 0 CURVE SMOOTH",
"269 0 LINE SMOOTH",
"410 0 OFFCURVE",
"526 115 OFFCURVE",
"526 256 CURVE SMOOTH",
"526 333 OFFCURVE",
"492 403 OFFCURVE",
"438 450 CURVE"
);
},
{
closed = 1;
nodes = (
"217 187 LINE",
"217 572 LINE",
"241 563 OFFCURVE",
"258 540 OFFCURVE",
"258 513 CURVE SMOOTH",
"258 498 OFFCURVE",
"254 485 OFFCURVE",
"244 474 CURVE SMOOTH",
"223 450 OFFCURVE",
"216 417 OFFCURVE",
"225 386 CURVE SMOOTH",
"234 356 OFFCURVE",
"258 332 OFFCURVE",
"289 323 CURVE SMOOTH",
"319 314 OFFCURVE",
"339 288 OFFCURVE",
"339 256 CURVE SMOOTH",
"339 218 OFFCURVE",
"307 187 OFFCURVE",
"269 187 CURVE SMOOTH"
);
}
);
width = 538;
}
);
rightKerningGroup = "= \"@MMK_L_space\"";
unicode = 0042;
},
{
glyphname = C;
layers = (
{
layerId = "89B76552-B35F-455B-86D9-BC5A433DF1B4";
paths = (
{
closed = 1;
nodes = (
"681 341 OFFCURVE",
"625 325 OFFCURVE",
"600 279 CURVE SMOOTH",
"563 211 OFFCURVE",
"491 169 OFFCURVE",
"414 169 CURVE SMOOTH",
"297 169 OFFCURVE",
"202 264 OFFCURVE",
"202 381 CURVE SMOOTH",
"202 497 OFFCURVE",
"297 593 OFFCURVE",
"414 593 CURVE SMOOTH",
"491 593 OFFCURVE",
"562 550 OFFCURVE",
"600 482 CURVE SMOOTH",
"624 437 OFFCURVE",
"681 420 OFFCURVE",
"727 445 CURVE SMOOTH",
"772 470 OFFCURVE",
"789 527 OFFCURVE",
"764 572 CURVE SMOOTH",
"694 700 OFFCURVE",
"559 780 OFFCURVE",
"414 780 CURVE SMOOTH",
"194 780 OFFCURVE",
"15 601 OFFCURVE",
"15 381 CURVE SMOOTH",
"15 160 OFFCURVE",
"194 -19 OFFCURVE",
"414 -19 CURVE SMOOTH",
"560 -19 OFFCURVE",
"694 61 OFFCURVE",
"764 190 CURVE SMOOTH",
"789 235 OFFCURVE",
"772 292 OFFCURVE",
"727 317 CURVE SMOOTH"
);
}
);
width = 786;
}
);
leftKerningGroup = "= \"@MMK_R_G\"";
rightKerningGroup = "= \"@MMK_L_G\"";
unicode = 0043;
},
{
glyphname = Ccedilla;
layers = (
{
layerId = "89B76552-B35F-455B-86D9-BC5A433DF1B4";
paths = (
{
closed = 1;
nodes = (
"681 341 OFFCURVE",
"625 325 OFFCURVE",
"600 279 CURVE SMOOTH",
"563 211 OFFCURVE",
"491 169 OFFCURVE",
"414 169 CURVE SMOOTH",
"297 169 OFFCURVE",
"202 264 OFFCURVE",
"202 381 CURVE SMOOTH",
"202 497 OFFCURVE",
"297 593 OFFCURVE",
"414 593 CURVE SMOOTH",
"491 593 OFFCURVE",
"562 550 OFFCURVE",
"600 482 CURVE SMOOTH",
"624 437 OFFCURVE",
"681 420 OFFCURVE",
"727 445 CURVE SMOOTH",
"772 470 OFFCURVE",
"789 527 OFFCURVE",
"764 572 CURVE SMOOTH",
"694 700 OFFCURVE",
"559 780 OFFCURVE",
"414 780 CURVE SMOOTH",
"194 780 OFFCURVE",
"15 601 OFFCURVE",
"15 381 CURVE SMOOTH",
"15 189 OFFCURVE",
"149 29 OFFCURVE",
"329 -10 CURVE",
"329 -44 LINE SMOOTH",
"329 -91 OFFCURVE",
"367 -129 OFFCURVE",
"414 -129 CURVE SMOOTH",
"461 -129 OFFCURVE",
"499 -91 OFFCURVE",
"499 -44 CURVE",
"498 -10 LINE",
"610 14 OFFCURVE",
"708 86 OFFCURVE",
"764 190 CURVE SMOOTH",
"789 235 OFFCURVE",
"772 292 OFFCURVE",
"727 317 CURVE SMOOTH"
);
}
);
width = 786;
}
);
leftKerningGroup = "= \"@MMK_R_G\"";
rightKerningGroup = "= \"@MMK_L_G\"";
unicode = 00C7;
},
{
glyphname = D;
layers = (
{
layerId = "89B76552-B35F-455B-86D9-BC5A433DF1B4";
paths = (
{
closed = 1;
nodes = (
"123 763 LINE SMOOTH",
"72 763 OFFCURVE",
"30 721 OFFCURVE",
"30 670 CURVE SMOOTH",
"30 94 LINE SMOOTH",
"30 42 OFFCURVE",
"72 0 OFFCURVE",
"123 0 CURVE SMOOTH",
"209 0 LINE SMOOTH",
"419 0 OFFCURVE",
"590 172 OFFCURVE",
"590 382 CURVE SMOOTH",
"590 592 OFFCURVE",
"419 763 OFFCURVE",
"209 763 CURVE SMOOTH"
);
},
{
closed = 1;
nodes = (
"217 576 LINE",
"320 572 OFFCURVE",
"403 486 OFFCURVE",
"403 382 CURVE SMOOTH",
"403 277 OFFCURVE",
"320 192 OFFCURVE",
"217 188 CURVE"
);
}
);
width = 605;
}
);
rightKerningGroup = "= \"@MMK_L_D\"";
unicode = 0044;
},
{
glyphname = E;
layers = (
{
layerId = "89B76552-B35F-455B-86D9-BC5A433DF1B4";
paths = (
{
closed = 1;
nodes = (
"218 187 LINE",
"218 319 LINE",
"350 319 LINE SMOOTH",
"402 319 OFFCURVE",
"444 361 OFFCURVE",
"444 413 CURVE SMOOTH",
"444 465 OFFCURVE",
"402 506 OFFCURVE",
"350 506 CURVE SMOOTH",
"218 506 LINE",
"218 576 LINE",
"383 576 LINE SMOOTH",
"434 576 OFFCURVE",
"476 618 OFFCURVE",
"476 670 CURVE SMOOTH",
"476 721 OFFCURVE",
"434 763 OFFCURVE",
"383 763 CURVE SMOOTH",
"124 763 LINE SMOOTH",
"72 763 OFFCURVE",
"30 721 OFFCURVE",
"30 670 CURVE SMOOTH",
"30 94 LINE SMOOTH",
"30 42 OFFCURVE",
"72 0 OFFCURVE",
"124 0 CURVE SMOOTH",
"401 0 LINE SMOOTH",
"452 0 OFFCURVE",
"494 42 OFFCURVE",
"494 94 CURVE SMOOTH",
"494 146 OFFCURVE",
"452 187 OFFCURVE",
"401 187 CURVE SMOOTH"
);
}
);
width = 500;
}
);
rightKerningGroup = "= \"@MMK_L_E.alt2\"";
unicode = 0045;
},
{
glyphname = Eacute;
layers = (
{
layerId = "89B76552-B35F-455B-86D9-BC5A433DF1B4";
paths = (
{
closed = 1;
nodes = (
"218 187 LINE",
"218 319 LINE",
"350 319 LINE SMOOTH",
"402 319 OFFCURVE",
"444 361 OFFCURVE",
"444 413 CURVE SMOOTH",
"444 465 OFFCURVE",
"402 506 OFFCURVE",
"350 506 CURVE SMOOTH",
"218 506 LINE",
"218 576 LINE",
"383 576 LINE SMOOTH",
"434 576 OFFCURVE",
"476 618 OFFCURVE",
"476 670 CURVE SMOOTH",
"476 721 OFFCURVE",
"434 763 OFFCURVE",
"383 763 CURVE SMOOTH",
"124 763 LINE SMOOTH",
"72 763 OFFCURVE",
"30 721 OFFCURVE",
"30 670 CURVE SMOOTH",
"30 94 LINE SMOOTH",
"30 42 OFFCURVE",
"72 0 OFFCURVE",
"124 0 CURVE SMOOTH",
"401 0 LINE SMOOTH",
"452 0 OFFCURVE",
"494 42 OFFCURVE",
"494 94 CURVE SMOOTH",
"494 146 OFFCURVE",
"452 187 OFFCURVE",
"401 187 CURVE SMOOTH"
);
},
{
closed = 1;
nodes = (
"228 890 LINE",
"228 890 LINE",
"197 868 OFFCURVE",
"190 826 OFFCURVE",
"212 795 CURVE SMOOTH",
"234 765 OFFCURVE",
"277 758 OFFCURVE",
"307 780 CURVE SMOOTH",
"393 842 LINE SMOOTH",
"424 864 OFFCURVE",
"431 906 OFFCURVE",
"409 937 CURVE SMOOTH",
"387 967 OFFCURVE",
"344 974 OFFCURVE",
"314 952 CURVE SMOOTH"
);
}
);
width = 500;
}
);
rightKerningGroup = "= \"@MMK_L_E.alt2\"";
unicode = 00C9;
},
{
glyphname = Ecircumflex;
layers = (
{
layerId = "89B76552-B35F-455B-86D9-BC5A433DF1B4";
paths = (
{
closed = 1;
nodes = (
"218 187 LINE",
"218 319 LINE",
"350 319 LINE SMOOTH",
"402 319 OFFCURVE",
"444 361 OFFCURVE",
"444 413 CURVE SMOOTH",
"444 465 OFFCURVE",
"402 506 OFFCURVE",
"350 506 CURVE SMOOTH",
"218 506 LINE",
"218 576 LINE",
"383 576 LINE SMOOTH",
"434 576 OFFCURVE",
"476 618 OFFCURVE",
"476 670 CURVE SMOOTH",
"476 721 OFFCURVE",
"434 763 OFFCURVE",
"383 763 CURVE SMOOTH",
"124 763 LINE SMOOTH",
"72 763 OFFCURVE",
"30 721 OFFCURVE",
"30 670 CURVE SMOOTH",
"30 94 LINE SMOOTH",
"30 42 OFFCURVE",
"72 0 OFFCURVE",
"124 0 CURVE SMOOTH",
"401 0 LINE SMOOTH",
"452 0 OFFCURVE",
"494 42 OFFCURVE",
"494 94 CURVE SMOOTH",
"494 146 OFFCURVE",
"452 187 OFFCURVE",
"401 187 CURVE SMOOTH"
);
},
{
closed = 1;
nodes = (
"298 953 LINE SMOOTH",
"274 970 OFFCURVE",
"242 970 OFFCURVE",
"218 953 CURVE SMOOTH",
"132 891 LINE SMOOTH",
"101 869 OFFCURVE",
"95 827 OFFCURVE",
"116 796 CURVE",
"138 766 OFFCURVE",
"181 759 OFFCURVE",
"211 781 CURVE SMOOTH",
"258 814 LINE",
"304 781 LINE SMOOTH",
"335 759 OFFCURVE",
"377 766 OFFCURVE",
"399 796 CURVE SMOOTH",
"421 827 OFFCURVE",
"414 869 OFFCURVE",
"384 891 CURVE SMOOTH"
);
}
);
width = 500;
}
);
rightKerningGroup = "= \"@MMK_L_E.alt2\"";
unicode = 00CA;
},
{
glyphname = Edieresis;
layers = (
{
layerId = "89B76552-B35F-455B-86D9-BC5A433DF1B4";
paths = (
{
closed = 1;
nodes = (
"218 187 LINE",
"218 319 LINE",
"350 319 LINE SMOOTH",
"402 319 OFFCURVE",
"444 361 OFFCURVE",
"444 413 CURVE SMOOTH",
"444 465 OFFCURVE",
"402 506 OFFCURVE",
"350 506 CURVE SMOOTH",
"218 506 LINE",
"218 576 LINE",
"383 576 LINE SMOOTH",
"434 576 OFFCURVE",
"476 618 OFFCURVE",
"476 670 CURVE SMOOTH",
"476 721 OFFCURVE",
"434 763 OFFCURVE",
"383 763 CURVE SMOOTH",
"124 763 LINE SMOOTH",
"72 763 OFFCURVE",
"30 721 OFFCURVE",
"30 670 CURVE SMOOTH",
"30 94 LINE SMOOTH",
"30 42 OFFCURVE",
"72 0 OFFCURVE",
"124 0 CURVE SMOOTH",
"401 0 LINE SMOOTH",
"452 0 OFFCURVE",
"494 42 OFFCURVE",
"494 94 CURVE SMOOTH",
"494 146 OFFCURVE",
"452 187 OFFCURVE",
"401 187 CURVE SMOOTH"
);
},
{
closed = 1;
nodes = (
"139 914 OFFCURVE",
"106 881 OFFCURVE",
"106 840 CURVE SMOOTH",
"106 800 OFFCURVE",
"139 767 OFFCURVE",
"180 767 CURVE SMOOTH",
"221 767 OFFCURVE",
"254 800 OFFCURVE",
"254 840 CURVE SMOOTH",
"254 881 OFFCURVE",
"221 914 OFFCURVE",
"180 914 CURVE SMOOTH"
);
},
{
closed = 1;
nodes = (
"291 914 OFFCURVE",
"258 881 OFFCURVE",
"258 840 CURVE SMOOTH",
"258 800 OFFCURVE",
"291 767 OFFCURVE",
"332 767 CURVE SMOOTH",
"373 767 OFFCURVE",
"406 800 OFFCURVE",
"406 840 CURVE SMOOTH",
"406 881 OFFCURVE",
"373 914 OFFCURVE",
"332 914 CURVE SMOOTH"
);
}
);
width = 500;
}
);
rightKerningGroup = "= \"@MMK_L_E.alt2\"";
unicode = 00CB;
},
{
glyphname = Egrave;
layers = (
{
layerId = "89B76552-B35F-455B-86D9-BC5A433DF1B4";
paths = (
{
closed = 1;
nodes = (
"218 187 LINE",
"218 319 LINE",
"350 319 LINE SMOOTH",
"402 319 OFFCURVE",
"444 361 OFFCURVE",
"444 413 CURVE SMOOTH",
"444 465 OFFCURVE",
"402 506 OFFCURVE",
"350 506 CURVE SMOOTH",
"218 506 LINE",
"218 576 LINE",
"383 576 LINE SMOOTH",
"434 576 OFFCURVE",
"476 618 OFFCURVE",
"476 670 CURVE SMOOTH",
"476 721 OFFCURVE",
"434 763 OFFCURVE",
"383 763 CURVE SMOOTH",
"124 763 LINE SMOOTH",
"72 763 OFFCURVE",
"30 721 OFFCURVE",
"30 670 CURVE SMOOTH",
"30 94 LINE SMOOTH",
"30 42 OFFCURVE",
"72 0 OFFCURVE",
"124 0 CURVE SMOOTH",
"401 0 LINE SMOOTH",
"452 0 OFFCURVE",
"494 42 OFFCURVE",
"494 94 CURVE SMOOTH",
"494 146 OFFCURVE",
"452 187 OFFCURVE",
"401 187 CURVE SMOOTH"
);
},
{
closed = 1;
nodes = (
"197 953 LINE SMOOTH",
"166 975 OFFCURVE",
"124 968 OFFCURVE",
"102 937 CURVE SMOOTH",
"80 907 OFFCURVE",
"87 864 OFFCURVE",
"117 842 CURVE SMOOTH",
"203 780 LINE SMOOTH",
"234 758 OFFCURVE",
"276 765 OFFCURVE",
"298 796 CURVE SMOOTH",
"320 826 OFFCURVE",
"313 869 OFFCURVE",
"283 891 CURVE SMOOTH"
);
}
);
width = 500;
}
);
rightKerningGroup = "= \"@MMK_L_E.alt2\"";
unicode = 00C8;
},
{
glyphname = F;
layers = (
{
layerId = "89B76552-B35F-455B-86D9-BC5A433DF1B4";
paths = (
{
closed = 1;
nodes = (
"434 575 OFFCURVE",
"476 617 OFFCURVE",
"476 669 CURVE SMOOTH",
"476 720 OFFCURVE",
"434 762 OFFCURVE",
"383 762 CURVE SMOOTH",
"124 762 LINE SMOOTH",
"72 762 OFFCURVE",
"30 720 OFFCURVE",
"30 669 CURVE SMOOTH",
"30 93 LINE SMOOTH",
"30 41 OFFCURVE",
"72 -1 OFFCURVE",
"124 -1 CURVE SMOOTH",
"176 -1 OFFCURVE",
"218 41 OFFCURVE",
"218 93 CURVE SMOOTH",
"218 318 LINE",
"350 318 LINE SMOOTH",
"402 318 OFFCURVE",
"444 360 OFFCURVE",
"444 412 CURVE SMOOTH",
"444 464 OFFCURVE",
"402 505 OFFCURVE",
"350 505 CURVE SMOOTH",
"218 505 LINE",
"218 575 LINE",
"383 575 LINE SMOOTH"
);
}
);
width = 482;
}
);
leftKerningGroup = "= \"@MMK_R_F\"";
rightKerningGroup = "= \"@MMK_L_F\"";
unicode = 0046;
},
{
glyphname = G;
layers = (
{
layerId = "89B76552-B35F-455B-86D9-BC5A433DF1B4";
paths = (
{
closed = 1;
nodes = (
"415 474 LINE SMOOTH",
"363 474 OFFCURVE",
"321 433 OFFCURVE",
"321 381 CURVE SMOOTH",
"321 329 OFFCURVE",
"363 287 OFFCURVE",
"415 287 CURVE SMOOTH",
"604 287 LINE",
"569 217 OFFCURVE",
"497 169 OFFCURVE",
"414 169 CURVE SMOOTH",
"297 169 OFFCURVE",
"202 264 OFFCURVE",
"202 381 CURVE SMOOTH",
"202 498 OFFCURVE",
"297 593 OFFCURVE",
"414 593 CURVE SMOOTH",
"479 593 OFFCURVE",
"539 564 OFFCURVE",
"579 513 CURVE SMOOTH",
"612 473 OFFCURVE",
"671 467 OFFCURVE",
"711 499 CURVE SMOOTH",
"751 531 OFFCURVE",
"758 590 OFFCURVE",
"725 630 CURVE SMOOTH",
"649 725 OFFCURVE",
"536 780 OFFCURVE",
"414 780 CURVE SMOOTH",
"194 780 OFFCURVE",
"15 601 OFFCURVE",
"15 381 CURVE SMOOTH",
"15 161 OFFCURVE",
"194 -18 OFFCURVE",
"414 -18 CURVE SMOOTH",
"634 -18 OFFCURVE",
"813 161 OFFCURVE",
"813 381 CURVE SMOOTH",
"813 433 OFFCURVE",
"771 474 OFFCURVE",
"719 474 CURVE SMOOTH"
);
}
);
width = 823;
}
);
leftKerningGroup = "= \"@MMK_R_G\"";
rightKerningGroup = "= \"@MMK_L_G\"";
unicode = 0047;
},
{
glyphname = H;
layers = (
{
layerId = "89B76552-B35F-455B-86D9-BC5A433DF1B4";
paths = (
{
closed = 1;
nodes = (
"361 763 OFFCURVE",
"319 721 OFFCURVE",
"319 670 CURVE SMOOTH",
"319 506 LINE",
"217 506 LINE",
"217 670 LINE SMOOTH",
"217 721 OFFCURVE",
"175 763 OFFCURVE",
"123 763 CURVE SMOOTH",
"71 763 OFFCURVE",
"30 721 OFFCURVE",
"30 670 CURVE SMOOTH",
"30 94 LINE SMOOTH",
"30 42 OFFCURVE",
"71 0 OFFCURVE",
"123 0 CURVE SMOOTH",
"175 0 OFFCURVE",
"217 42 OFFCURVE",
"217 94 CURVE SMOOTH",
"217 319 LINE",
"319 319 LINE",
"319 94 LINE SMOOTH",
"319 42 OFFCURVE",
"361 0 OFFCURVE",
"412 0 CURVE SMOOTH",
"464 0 OFFCURVE",
"506 42 OFFCURVE",
"506 94 CURVE SMOOTH",
"506 670 LINE SMOOTH",
"506 721 OFFCURVE",
"464 763 OFFCURVE",
"412 763 CURVE SMOOTH"
);
}
);
width = 536;
}
);
unicode = 0048;
},
{
glyphname = I;
layers = (
{
layerId = "89B76552-B35F-455B-86D9-BC5A433DF1B4";
paths = (
{
closed = 1;
nodes = (
"71 763 OFFCURVE",
"30 721 OFFCURVE",
"30 669 CURVE SMOOTH",
"30 618 OFFCURVE",
"71 576 OFFCURVE",
"123 576 CURVE SMOOTH",
"175 576 OFFCURVE",
"217 618 OFFCURVE",
"217 669 CURVE SMOOTH",
"217 721 OFFCURVE",
"175 763 OFFCURVE",
"123 763 CURVE SMOOTH"
);
},
{
closed = 1;
nodes = (
"71 572 OFFCURVE",
"30 530 OFFCURVE",
"30 478 CURVE SMOOTH",
"30 93 LINE SMOOTH",
"30 42 OFFCURVE",
"71 0 OFFCURVE",
"123 0 CURVE SMOOTH",
"175 0 OFFCURVE",
"217 42 OFFCURVE",
"217 93 CURVE SMOOTH",
"217 478 LINE SMOOTH",
"217 530 OFFCURVE",
"175 572 OFFCURVE",
"123 572 CURVE SMOOTH"
);
}
);
width = 247;
}
);
rightKerningGroup = "= \"@MMK_L_space\"";
unicode = 0049;
},
{
glyphname = Iacute;
layers = (
{
layerId = "89B76552-B35F-455B-86D9-BC5A433DF1B4";
paths = (
{
closed = 1;
nodes = (
"30 94 LINE",
"30 94 LINE",
"30 42 OFFCURVE",
"71 0 OFFCURVE",
"123 0 CURVE SMOOTH",
"175 0 OFFCURVE",
"217 42 OFFCURVE",
"217 94 CURVE",
"217 94 LINE",
"217 670 LINE",
"217 670 LINE",
"217 721 OFFCURVE",
"175 763 OFFCURVE",
"123 763 CURVE SMOOTH",
"71 763 OFFCURVE",
"30 721 OFFCURVE",
"30 670 CURVE SMOOTH"
);
},
{
closed = 1;
nodes = (
"83 890 LINE",
"83 890 LINE",
"52 868 OFFCURVE",
"45 826 OFFCURVE",
"67 795 CURVE SMOOTH",
"89 765 OFFCURVE",
"132 758 OFFCURVE",
"162 780 CURVE SMOOTH",
"248 842 LINE SMOOTH",
"279 864 OFFCURVE",
"286 906 OFFCURVE",
"264 937 CURVE SMOOTH",
"242 967 OFFCURVE",
"199 974 OFFCURVE",
"169 952 CURVE SMOOTH"
);
}
);
width = 247;
}
);
rightKerningGroup = "= \"@MMK_L_space\"";
unicode = 00CD;
},
{
glyphname = Icircumflex;
layers = (
{
layerId = "89B76552-B35F-455B-86D9-BC5A433DF1B4";
paths = (
{
closed = 1;
nodes = (
"30 94 LINE",
"30 94 LINE",
"30 42 OFFCURVE",
"71 0 OFFCURVE",
"123 0 CURVE SMOOTH",
"175 0 OFFCURVE",
"217 42 OFFCURVE",
"217 94 CURVE",
"217 94 LINE",
"217 670 LINE",
"217 670 LINE",
"217 721 OFFCURVE",
"175 763 OFFCURVE",
"123 763 CURVE SMOOTH",
"71 763 OFFCURVE",
"30 721 OFFCURVE",
"30 670 CURVE SMOOTH"
);
},
{
closed = 1;
nodes = (
"163 928 LINE SMOOTH",
"139 945 OFFCURVE",
"107 945 OFFCURVE",
"83 928 CURVE SMOOTH",
"-3 866 LINE SMOOTH",
"-34 844 OFFCURVE",
"-40 802 OFFCURVE",
"-19 771 CURVE",
"3 741 OFFCURVE",
"46 734 OFFCURVE",
"76 756 CURVE SMOOTH",
"123 789 LINE",
"169 756 LINE SMOOTH",
"200 734 OFFCURVE",
"242 741 OFFCURVE",
"264 771 CURVE SMOOTH",
"286 802 OFFCURVE",
"279 844 OFFCURVE",
"249 866 CURVE SMOOTH"
);
}
);
width = 247;
}
);
rightKerningGroup = "= \"@MMK_L_space\"";
unicode = 00CE;
},
{
glyphname = Idieresis;
layers = (
{
layerId = "89B76552-B35F-455B-86D9-BC5A433DF1B4";
paths = (
{
closed = 1;
nodes = (
"6 896 OFFCURVE",
"-27 863 OFFCURVE",
"-27 822 CURVE SMOOTH",
"-27 782 OFFCURVE",
"6 749 OFFCURVE",
"47 749 CURVE SMOOTH",
"88 749 OFFCURVE",
"121 782 OFFCURVE",
"121 822 CURVE SMOOTH",
"121 863 OFFCURVE",
"88 896 OFFCURVE",
"47 896 CURVE SMOOTH"
);
},
{
closed = 1;
nodes = (
"158 896 OFFCURVE",
"125 863 OFFCURVE",
"125 822 CURVE SMOOTH",
"125 782 OFFCURVE",
"158 749 OFFCURVE",
"199 749 CURVE SMOOTH",
"240 749 OFFCURVE",
"273 782 OFFCURVE",
"273 822 CURVE SMOOTH",
"273 863 OFFCURVE",
"240 896 OFFCURVE",
"199 896 CURVE SMOOTH"
);
},
{
closed = 1;
nodes = (
"30 94 LINE",
"30 94 LINE",
"30 42 OFFCURVE",
"71 0 OFFCURVE",
"123 0 CURVE SMOOTH",
"175 0 OFFCURVE",
"217 42 OFFCURVE",
"217 94 CURVE",
"217 94 LINE",
"217 670 LINE",
"217 670 LINE",
"217 721 OFFCURVE",
"175 763 OFFCURVE",
"123 763 CURVE SMOOTH",
"71 763 OFFCURVE",
"30 721 OFFCURVE",
"30 670 CURVE SMOOTH"
);
}
);
width = 247;
}
);
rightKerningGroup = "= \"@MMK_L_space\"";
unicode = 00CF;
},
{
glyphname = Igrave;
layers = (
{
layerId = "89B76552-B35F-455B-86D9-BC5A433DF1B4";
paths = (
{
closed = 1;
nodes = (
"30 94 LINE",
"30 94 LINE",
"30 42 OFFCURVE",
"71 0 OFFCURVE",
"123 0 CURVE SMOOTH",
"175 0 OFFCURVE",
"217 42 OFFCURVE",
"217 94 CURVE",
"217 94 LINE",
"217 670 LINE",
"217 670 LINE",
"217 721 OFFCURVE",
"175 763 OFFCURVE",
"123 763 CURVE SMOOTH",
"71 763 OFFCURVE",
"30 721 OFFCURVE",
"30 670 CURVE SMOOTH"
);
},
{
closed = 1;
nodes = (
"78 953 LINE SMOOTH",
"47 975 OFFCURVE",
"5 968 OFFCURVE",
"-17 937 CURVE SMOOTH",
"-39 907 OFFCURVE",
"-32 864 OFFCURVE",
"-2 842 CURVE SMOOTH",
"84 780 LINE SMOOTH",
"115 758 OFFCURVE",
"157 765 OFFCURVE",
"179 796 CURVE SMOOTH",
"201 826 OFFCURVE",
"194 869 OFFCURVE",
"164 891 CURVE SMOOTH"
);
}
);
width = 247;
}
);
rightKerningGroup = "= \"@MMK_L_space\"";
unicode = 00CC;
},
{
glyphname = J;
layers = (
{
layerId = "89B76552-B35F-455B-86D9-BC5A433DF1B4";
paths = (
{
closed = 1;
nodes = (
"285 763 LINE SMOOTH",
"233 763 OFFCURVE",
"192 721 OFFCURVE",
"192 669 CURVE SMOOTH",
"192 617 OFFCURVE",
"233 576 OFFCURVE",
"285 576 CURVE SMOOTH",
"345 576 LINE",
"345 244 LINE SMOOTH",
"345 203 OFFCURVE",
"311 169 OFFCURVE",
"270 169 CURVE SMOOTH",
"228 169 OFFCURVE",
"195 203 OFFCURVE",
"195 244 CURVE SMOOTH",
"195 251 OFFCURVE",
"196 258 OFFCURVE",
"197 264 CURVE",
"211 314 OFFCURVE",
"182 365 OFFCURVE",
"132 379 CURVE SMOOTH",
"82 393 OFFCURVE",
"30 363 OFFCURVE",
"17 313 CURVE SMOOTH",
"11 291 OFFCURVE",
"8 268 OFFCURVE",
"8 244 CURVE SMOOTH",
"8 100 OFFCURVE",
"125 -18 OFFCURVE",
"270 -18 CURVE SMOOTH",
"414 -18 OFFCURVE",
"532 100 OFFCURVE",
"532 244 CURVE SMOOTH",
"532 669 LINE SMOOTH",
"532 721 OFFCURVE",
"490 763 OFFCURVE",
"438 763 CURVE SMOOTH"
);
}
);
width = 560;
}
);
leftKerningGroup = "= \"@MMK_R_J\"";
rightKerningGroup = "= \"@MMK_L_J\"";
unicode = 004A;
},
{
glyphname = K;
layers = (
{
layerId = "89B76552-B35F-455B-86D9-BC5A433DF1B4";
paths = (
{
closed = 1;
nodes = (
"355 412 LINE",
"495 617 LINE SMOOTH",
"525 659 OFFCURVE",
"514 718 OFFCURVE",
"471 747 CURVE SMOOTH",
"429 776 OFFCURVE",
"370 765 OFFCURVE",
"341 723 CURVE SMOOTH",
"217 542 LINE",
"217 670 LINE SMOOTH",
"217 721 OFFCURVE",
"175 763 OFFCURVE",
"124 763 CURVE SMOOTH",
"72 763 OFFCURVE",
"30 721 OFFCURVE",
"30 670 CURVE SMOOTH",
"30 94 LINE SMOOTH",
"30 42 OFFCURVE",
"72 0 OFFCURVE",
"124 0 CURVE SMOOTH",
"175 0 OFFCURVE",
"217 42 OFFCURVE",
"217 94 CURVE SMOOTH",
"217 279 LINE",
"356 46 LINE SMOOTH",
"383 2 OFFCURVE",
"440 -13 OFFCURVE",
"485 14 CURVE SMOOTH",
"529 40 OFFCURVE",
"543 98 OFFCURVE",
"517 142 CURVE SMOOTH"
);
}
);
width = 531;
}
);
rightKerningGroup = "= \"@MMK_L_space\"";
unicode = 004B;
},
{
glyphname = L;
layers = (
{
layerId = "89B76552-B35F-455B-86D9-BC5A433DF1B4";
paths = (
{
closed = 1;
nodes = (
"530 363 OFFCURVE",
"478 393 OFFCURVE",
"428 379 CURVE SMOOTH",
"378 365 OFFCURVE",
"349 314 OFFCURVE",
"363 264 CURVE",
"363 264 LINE",
"364 258 OFFCURVE",
"365 251 OFFCURVE",
"365 244 CURVE SMOOTH",
"365 203 OFFCURVE",
"332 169 OFFCURVE",
"290 169 CURVE SMOOTH",
"249 169 OFFCURVE",
"215 203 OFFCURVE",
"215 244 CURVE SMOOTH",
"215 669 LINE",
"215 669 LINE",
"215 721 OFFCURVE",
"173 763 OFFCURVE",
"122 763 CURVE SMOOTH",
"70 763 OFFCURVE",
"28 721 OFFCURVE",
"28 669 CURVE",
"28 669 LINE",
"28 244 LINE SMOOTH",
"28 100 OFFCURVE",
"146 -18 OFFCURVE",
"290 -18 CURVE SMOOTH",
"435 -18 OFFCURVE",
"552 100 OFFCURVE",
"552 244 CURVE SMOOTH",
"552 268 OFFCURVE",
"549 291 OFFCURVE",
"543 313 CURVE SMOOTH"
);
}
);
width = 560;
}
);
rightKerningGroup = "= \"@MMK_L_space\"";
unicode = 004C;
},
{
glyphname = M;
layers = (
{
layerId = "89B76552-B35F-455B-86D9-BC5A433DF1B4";
paths = (
{
closed = 1;
nodes = (
"563 780 OFFCURVE",
"504 757 OFFCURVE",
"458 718 CURVE",
"413 757 OFFCURVE",
"354 780 OFFCURVE",
"290 780 CURVE SMOOTH",
"145 780 OFFCURVE",
"28 662 OFFCURVE",
"28 518 CURVE SMOOTH",
"28 93 LINE SMOOTH",
"28 41 OFFCURVE",
"70 -1 OFFCURVE",
"121 -1 CURVE SMOOTH",
"173 -1 OFFCURVE",
"215 41 OFFCURVE",
"215 93 CURVE SMOOTH",
"215 518 LINE SMOOTH",
"215 559 OFFCURVE",
"248 593 OFFCURVE",
"290 593 CURVE SMOOTH",
"331 593 OFFCURVE",
"365 559 OFFCURVE",
"365 518 CURVE SMOOTH",
"365 93 LINE SMOOTH",
"365 41 OFFCURVE",
"407 -1 OFFCURVE",
"458 -1 CURVE SMOOTH",
"510 -1 OFFCURVE",
"552 41 OFFCURVE",
"552 93 CURVE SMOOTH",
"552 518 LINE SMOOTH",
"552 559 OFFCURVE",
"586 593 OFFCURVE",
"627 593 CURVE SMOOTH",
"668 593 OFFCURVE",
"702 559 OFFCURVE",
"702 518 CURVE SMOOTH",
"702 93 LINE SMOOTH",
"702 41 OFFCURVE",
"744 -1 OFFCURVE",
"796 -1 CURVE SMOOTH",
"847 -1 OFFCURVE",
"889 41 OFFCURVE",
"889 93 CURVE SMOOTH",
"889 518 LINE SMOOTH",
"889 662 OFFCURVE",
"772 780 OFFCURVE",
"627 780 CURVE SMOOTH"
);
}
);
width = 917;
}
);
leftKerningGroup = "= \"@MMK_R_N\"";
rightKerningGroup = "= \"@MMK_L_space\"";
unicode = 004D;
},
{
glyphname = N;
layers = (
{
layerId = "89B76552-B35F-455B-86D9-BC5A433DF1B4";
paths = (
{
closed = 1;
nodes = (
"28 40 OFFCURVE",
"70 -1 OFFCURVE",
"121 -1 CURVE SMOOTH",
"173 -1 OFFCURVE",
"215 40 OFFCURVE",
"215 92 CURVE",
"215 92 LINE",
"215 518 LINE SMOOTH",
"215 559 OFFCURVE",
"249 593 OFFCURVE",
"290 593 CURVE SMOOTH",
"331 593 OFFCURVE",
"365 559 OFFCURVE",
"365 518 CURVE SMOOTH",
"365 92 LINE",
"365 92 LINE",
"365 40 OFFCURVE",
"407 -1 OFFCURVE",
"459 -1 CURVE SMOOTH",
"510 -1 OFFCURVE",
"552 40 OFFCURVE",
"552 92 CURVE",
"552 92 LINE",
"552 518 LINE SMOOTH",
"552 662 OFFCURVE",
"434 780 OFFCURVE",
"290 780 CURVE SMOOTH",
"145 780 OFFCURVE",
"28 662 OFFCURVE",
"28 518 CURVE SMOOTH",
"28 92 LINE SMOOTH"
);
}
);
width = 580;
}
);
leftKerningGroup = "= \"@MMK_R_N\"";
rightKerningGroup = "= \"@MMK_L_space\"";
unicode = 004E;
},
{
glyphname = Ntilde;
layers = (
{
layerId = "89B76552-B35F-455B-86D9-BC5A433DF1B4";
paths = (
{
closed = 1;
nodes = (
"28 518 LINE SMOOTH",
"28 662 OFFCURVE",
"145 780 OFFCURVE",
"290 780 CURVE SMOOTH",
"434 780 OFFCURVE",
"552 662 OFFCURVE",
"552 518 CURVE SMOOTH",
"552 92 LINE",
"552 92 LINE",
"552 40 OFFCURVE",
"510 -1 OFFCURVE",
"459 -1 CURVE SMOOTH",
"407 -1 OFFCURVE",
"365 40 OFFCURVE",
"365 92 CURVE",
"365 92 LINE",
"365 518 LINE SMOOTH",
"365 559 OFFCURVE",
"331 593 OFFCURVE",
"290 593 CURVE SMOOTH",
"249 593 OFFCURVE",
"215 559 OFFCURVE",
"215 518 CURVE SMOOTH",
"215 92 LINE",
"215 92 LINE",
"215 40 OFFCURVE",
"173 -1 OFFCURVE",
"121 -1 CURVE SMOOTH",
"70 -1 OFFCURVE",
"28 40 OFFCURVE",
"28 92 CURVE SMOOTH"
);
},
{
closed = 1;
nodes = (
"399 949 OFFCURVE",
"370 938 OFFCURVE",
"353 916 CURVE",
"352 917 OFFCURVE",
"350 918 OFFCURVE",
"349 918 CURVE",
"344 921 LINE",
"344 921 OFFCURVE",
"340 923 OFFCURVE",
"340 923 CURVE",
"322 932 OFFCURVE",
"290 948 OFFCURVE",
"246 943 CURVE SMOOTH",
"194 936 OFFCURVE",
"164 896 OFFCURVE",
"155 864 CURVE SMOOTH",
"144 828 OFFCURVE",
"164 790 OFFCURVE",
"200 779 CURVE SMOOTH",
"228 770 OFFCURVE",
"258 781 OFFCURVE",
"274 803 CURVE",
"276 803 OFFCURVE",
"277 802 OFFCURVE",
"279 801 CURVE SMOOTH",
"283 799 LINE",
"283 799 OFFCURVE",
"287 797 OFFCURVE",
"287 797 CURVE",
"306 788 OFFCURVE",
"337 772 OFFCURVE",
"381 777 CURVE SMOOTH",
"433 783 OFFCURVE",
"463 823 OFFCURVE",
"473 856 CURVE SMOOTH",
"484 892 OFFCURVE",
"463 930 OFFCURVE",
"427 941 CURVE SMOOTH"
);
}
);
width = 580;
}
);
leftKerningGroup = "= \"@MMK_R_N\"";
rightKerningGroup = "= \"@MMK_L_space\"";
unicode = 00D1;
},
{
glyphname = O;
layers = (
{
layerId = "89B76552-B35F-455B-86D9-BC5A433DF1B4";
paths = (
{
closed = 1;
nodes = (
"626 264 OFFCURVE",
"531 169 OFFCURVE",
"414 169 CURVE SMOOTH",
"297 169 OFFCURVE",
"202 264 OFFCURVE",
"202 381 CURVE SMOOTH",
"202 498 OFFCURVE",
"297 593 OFFCURVE",
"414 593 CURVE SMOOTH",
"531 593 OFFCURVE",
"626 498 OFFCURVE",
"626 381 CURVE SMOOTH"
);
},
{
closed = 1;
nodes = (
"194 780 OFFCURVE",
"15 601 OFFCURVE",
"15 381 CURVE SMOOTH",
"15 161 OFFCURVE",
"194 -18 OFFCURVE",
"414 -18 CURVE SMOOTH",
"634 -18 OFFCURVE",
"813 161 OFFCURVE",
"813 381 CURVE SMOOTH",
"813 601 OFFCURVE",
"634 780 OFFCURVE",
"414 780 CURVE SMOOTH"
);
}
);
width = 828;
}
);
leftKerningGroup = "= \"@MMK_R_G\"";
rightKerningGroup = "= \"@MMK_L_G\"";
unicode = 004F;
},
{
glyphname = Oacute;
layers = (
{
layerId = "89B76552-B35F-455B-86D9-BC5A433DF1B4";
paths = (
{
closed = 1;
nodes = (
"626 264 OFFCURVE",
"531 169 OFFCURVE",
"414 169 CURVE SMOOTH",
"297 169 OFFCURVE",
"202 264 OFFCURVE",
"202 381 CURVE SMOOTH",
"202 498 OFFCURVE",
"297 593 OFFCURVE",
"414 593 CURVE SMOOTH",
"531 593 OFFCURVE",
"626 498 OFFCURVE",
"626 381 CURVE SMOOTH"
);
},
{
closed = 1;
nodes = (
"194 780 OFFCURVE",
"15 601 OFFCURVE",
"15 381 CURVE SMOOTH",
"15 161 OFFCURVE",
"194 -18 OFFCURVE",
"414 -18 CURVE SMOOTH",
"634 -18 OFFCURVE",
"813 161 OFFCURVE",
"813 381 CURVE SMOOTH",
"813 601 OFFCURVE",
"634 780 OFFCURVE",
"414 780 CURVE SMOOTH"
);
},
{
closed = 1;
nodes = (
"499 890 LINE",
"499 890 LINE",
"468 868 OFFCURVE",
"461 826 OFFCURVE",
"483 795 CURVE SMOOTH",
"505 765 OFFCURVE",
"548 758 OFFCURVE",
"578 780 CURVE SMOOTH",
"664 842 LINE SMOOTH",
"695 864 OFFCURVE",
"702 906 OFFCURVE",
"680 937 CURVE SMOOTH",
"658 967 OFFCURVE",
"615 974 OFFCURVE",
"585 952 CURVE SMOOTH"
);
}
);
width = 828;
}
);
leftKerningGroup = "= \"@MMK_R_G\"";
rightKerningGroup = "= \"@MMK_L_G\"";
unicode = 00D3;
},
{
glyphname = Ocircumflex;
layers = (
{
layerId = "89B76552-B35F-455B-86D9-BC5A433DF1B4";
paths = (
{
closed = 1;
nodes = (
"626 264 OFFCURVE",
"531 169 OFFCURVE",
"414 169 CURVE SMOOTH",
"297 169 OFFCURVE",
"202 264 OFFCURVE",
"202 381 CURVE SMOOTH",
"202 498 OFFCURVE",
"297 593 OFFCURVE",
"414 593 CURVE SMOOTH",
"531 593 OFFCURVE",
"626 498 OFFCURVE",
"626 381 CURVE SMOOTH"
);
},
{
closed = 1;
nodes = (
"194 780 OFFCURVE",
"15 601 OFFCURVE",
"15 381 CURVE SMOOTH",
"15 161 OFFCURVE",
"194 -18 OFFCURVE",
"414 -18 CURVE SMOOTH",
"634 -18 OFFCURVE",
"813 161 OFFCURVE",
"813 381 CURVE SMOOTH",
"813 601 OFFCURVE",
"634 780 OFFCURVE",
"414 780 CURVE SMOOTH"
);
},
{
closed = 1;
nodes = (
"456 962 LINE SMOOTH",
"432 979 OFFCURVE",
"400 979 OFFCURVE",
"376 962 CURVE SMOOTH",
"290 900 LINE SMOOTH",
"259 878 OFFCURVE",
"253 836 OFFCURVE",
"274 805 CURVE",
"296 775 OFFCURVE",
"339 768 OFFCURVE",
"369 790 CURVE SMOOTH",
"416 823 LINE",
"462 790 LINE SMOOTH",
"493 768 OFFCURVE",
"535 775 OFFCURVE",
"557 805 CURVE SMOOTH",
"579 836 OFFCURVE",
"572 878 OFFCURVE",
"542 900 CURVE SMOOTH"
);
}
);
width = 828;
}
);
leftKerningGroup = "= \"@MMK_R_G\"";
rightKerningGroup = "= \"@MMK_L_G\"";
unicode = 00D4;
},
{
glyphname = Odieresis;
layers = (
{
layerId = "89B76552-B35F-455B-86D9-BC5A433DF1B4";
paths = (
{
closed = 1;
nodes = (
"626 264 OFFCURVE",
"531 169 OFFCURVE",
"414 169 CURVE SMOOTH",
"297 169 OFFCURVE",
"202 264 OFFCURVE",
"202 381 CURVE SMOOTH",
"202 498 OFFCURVE",
"297 593 OFFCURVE",
"414 593 CURVE SMOOTH",
"531 593 OFFCURVE",
"626 498 OFFCURVE",
"626 381 CURVE SMOOTH"
);
},
{
closed = 1;
nodes = (
"194 780 OFFCURVE",
"15 601 OFFCURVE",
"15 381 CURVE SMOOTH",
"15 161 OFFCURVE",
"194 -18 OFFCURVE",
"414 -18 CURVE SMOOTH",
"634 -18 OFFCURVE",
"813 161 OFFCURVE",
"813 381 CURVE SMOOTH",
"813 601 OFFCURVE",
"634 780 OFFCURVE",
"414 780 CURVE SMOOTH"
);
},
{
closed = 1;
nodes = (
"297 925 OFFCURVE",
"264 892 OFFCURVE",
"264 851 CURVE SMOOTH",
"264 811 OFFCURVE",
"297 778 OFFCURVE",
"338 778 CURVE SMOOTH",
"379 778 OFFCURVE",
"412 811 OFFCURVE",
"412 851 CURVE SMOOTH",
"412 892 OFFCURVE",
"379 925 OFFCURVE",
"338 925 CURVE SMOOTH"
);
},
{
closed = 1;
nodes = (
"449 925 OFFCURVE",
"416 892 OFFCURVE",
"416 851 CURVE SMOOTH",
"416 811 OFFCURVE",
"449 778 OFFCURVE",
"490 778 CURVE SMOOTH",
"531 778 OFFCURVE",
"564 811 OFFCURVE",
"564 851 CURVE SMOOTH",
"564 892 OFFCURVE",
"531 925 OFFCURVE",
"490 925 CURVE SMOOTH"
);
}
);
width = 828;
}
);
leftKerningGroup = "= \"@MMK_R_G\"";
rightKerningGroup = "= \"@MMK_L_G\"";
unicode = 00D6;
},
{
glyphname = Ograve;
layers = (
{
layerId = "89B76552-B35F-455B-86D9-BC5A433DF1B4";
paths = (
{
closed = 1;
nodes = (
"626 264 OFFCURVE",
"531 169 OFFCURVE",
"414 169 CURVE SMOOTH",
"297 169 OFFCURVE",
"202 264 OFFCURVE",
"202 381 CURVE SMOOTH",
"202 498 OFFCURVE",
"297 593 OFFCURVE",
"414 593 CURVE SMOOTH",
"531 593 OFFCURVE",
"626 498 OFFCURVE",
"626 381 CURVE SMOOTH"
);
},
{
closed = 1;
nodes = (
"194 780 OFFCURVE",
"15 601 OFFCURVE",
"15 381 CURVE SMOOTH",
"15 161 OFFCURVE",
"194 -18 OFFCURVE",
"414 -18 CURVE SMOOTH",
"634 -18 OFFCURVE",
"813 161 OFFCURVE",
"813 381 CURVE SMOOTH",
"813 601 OFFCURVE",
"634 780 OFFCURVE",
"414 780 CURVE SMOOTH"
);
},
{
closed = 1;
nodes = (
"245 953 LINE SMOOTH",
"214 975 OFFCURVE",
"172 968 OFFCURVE",
"150 937 CURVE SMOOTH",
"128 907 OFFCURVE",
"135 864 OFFCURVE",
"165 842 CURVE SMOOTH",
"251 780 LINE SMOOTH",
"282 758 OFFCURVE",
"324 765 OFFCURVE",
"346 796 CURVE SMOOTH",
"368 826 OFFCURVE",
"361 869 OFFCURVE",
"331 891 CURVE SMOOTH"
);
}
);
width = 828;
}
);
leftKerningGroup = "= \"@MMK_R_G\"";
rightKerningGroup = "= \"@MMK_L_G\"";
unicode = 00D2;
},
{
glyphname = Otilde;
layers = (
{
layerId = "89B76552-B35F-455B-86D9-BC5A433DF1B4";
paths = (
{
closed = 1;
nodes = (
"626 264 OFFCURVE",
"531 169 OFFCURVE",
"414 169 CURVE SMOOTH",
"297 169 OFFCURVE",
"202 264 OFFCURVE",
"202 381 CURVE SMOOTH",
"202 498 OFFCURVE",
"297 593 OFFCURVE",
"414 593 CURVE SMOOTH",
"531 593 OFFCURVE",
"626 498 OFFCURVE",
"626 381 CURVE SMOOTH"
);
},
{
closed = 1;
nodes = (
"194 780 OFFCURVE",
"15 601 OFFCURVE",
"15 381 CURVE SMOOTH",
"15 161 OFFCURVE",
"194 -18 OFFCURVE",
"414 -18 CURVE SMOOTH",
"634 -18 OFFCURVE",
"813 161 OFFCURVE",
"813 381 CURVE SMOOTH",
"813 601 OFFCURVE",
"634 780 OFFCURVE",
"414 780 CURVE SMOOTH"
);
},
{
closed = 1;
nodes = (
"523 952 OFFCURVE",
"494 941 OFFCURVE",
"477 919 CURVE",
"476 920 OFFCURVE",
"474 921 OFFCURVE",
"473 921 CURVE",
"468 924 LINE",
"468 924 OFFCURVE",
"464 926 OFFCURVE",
"464 926 CURVE",
"446 935 OFFCURVE",
"414 951 OFFCURVE",
"370 946 CURVE SMOOTH",
"318 939 OFFCURVE",
"288 899 OFFCURVE",
"279 867 CURVE SMOOTH",
"268 831 OFFCURVE",
"288 793 OFFCURVE",
"324 782 CURVE SMOOTH",
"352 773 OFFCURVE",
"382 784 OFFCURVE",
"398 806 CURVE",
"400 806 OFFCURVE",
"401 805 OFFCURVE",
"403 804 CURVE SMOOTH",
"407 802 LINE",
"407 802 OFFCURVE",
"411 800 OFFCURVE",
"411 800 CURVE",
"430 791 OFFCURVE",
"461 775 OFFCURVE",
"505 780 CURVE SMOOTH",
"557 786 OFFCURVE",
"587 826 OFFCURVE",
"597 859 CURVE SMOOTH",
"608 895 OFFCURVE",
"587 933 OFFCURVE",
"551 944 CURVE SMOOTH"
);
}
);
width = 828;
}
);
leftKerningGroup = "= \"@MMK_R_G\"";
rightKerningGroup = "= \"@MMK_L_G\"";
unicode = 00D5;
},
{
glyphname = P;
layers = (
{
layerId = "89B76552-B35F-455B-86D9-BC5A433DF1B4";
paths = (
{
closed = 1;
nodes = (
"175 0 OFFCURVE",
"217 42 OFFCURVE",
"217 94 CURVE SMOOTH",
"217 251 LINE",
"268 251 LINE SMOOTH",
"410 251 OFFCURVE",
"525 366 OFFCURVE",
"525 507 CURVE SMOOTH",
"525 648 OFFCURVE",
"410 763 OFFCURVE",
"268 763 CURVE SMOOTH",
"124 763 LINE SMOOTH",
"72 763 OFFCURVE",
"30 721 OFFCURVE",
"30 669 CURVE SMOOTH",
"30 94 LINE SMOOTH",
"30 42 OFFCURVE",
"72 0 OFFCURVE",
"124 0 CURVE SMOOTH"
);
},
{
closed = 1;
nodes = (
"217 576 LINE",
"268 576 LINE SMOOTH",
"306 576 OFFCURVE",
"338 545 OFFCURVE",
"338 507 CURVE SMOOTH",
"338 469 OFFCURVE",
"306 438 OFFCURVE",
"268 438 CURVE SMOOTH",
"217 438 LINE"
);
}
);
width = 533;
}
);
rightKerningGroup = "= \"@MMK_L_P\"";
unicode = 0050;
},
{
glyphname = Q;
layers = (
{
layerId = "89B76552-B35F-455B-86D9-BC5A433DF1B4";
paths = (
{
closed = 1;
nodes = (
"754 172 LINE",
"791 233 OFFCURVE",
"813 304 OFFCURVE",
"813 381 CURVE SMOOTH",
"813 601 OFFCURVE",
"634 780 OFFCURVE",
"414 780 CURVE SMOOTH",
"194 780 OFFCURVE",
"15 601 OFFCURVE",
"15 381 CURVE SMOOTH",
"15 161 OFFCURVE",
"194 -18 OFFCURVE",
"414 -18 CURVE SMOOTH",
"490 -18 OFFCURVE",
"561 3 OFFCURVE",
"621 40 CURVE",
"650 11 LINE SMOOTH",
"687 -26 OFFCURVE",
"746 -26 OFFCURVE",
"783 10 CURVE SMOOTH",
"819 47 OFFCURVE",
"820 106 OFFCURVE",
"783 143 CURVE SMOOTH"
);
},
{
closed = 1;
nodes = (
"297 169 OFFCURVE",
"202 264 OFFCURVE",
"202 381 CURVE SMOOTH",
"202 498 OFFCURVE",
"297 593 OFFCURVE",
"414 593 CURVE SMOOTH",
"531 593 OFFCURVE",
"626 498 OFFCURVE",
"626 381 CURVE SMOOTH",
"626 357 OFFCURVE",
"622 334 OFFCURVE",
"615 312 CURVE",
"567 360 LINE SMOOTH",
"531 397 OFFCURVE",
"472 397 OFFCURVE",
"435 360 CURVE SMOOTH",
"398 324 OFFCURVE",
"398 265 OFFCURVE",
"435 228 CURVE SMOOTH",
"482 180 LINE",
"461 173 OFFCURVE",
"438 169 OFFCURVE",
"414 169 CURVE SMOOTH"
);
}
);
width = 828;
}
);
rightKerningGroup = "= \"@MMK_L_space\"";
unicode = 0051;
},
{
glyphname = R;
layers = (
{
layerId = "89B76552-B35F-455B-86D9-BC5A433DF1B4";
paths = (
{
closed = 1;
nodes = (
"442 470 OFFCURVE",
"445 490 OFFCURVE",
"445 512 CURVE SMOOTH",
"445 650 OFFCURVE",
"333 762 OFFCURVE",
"196 762 CURVE SMOOTH",
"196 762 OFFCURVE",
"123 762 OFFCURVE",
"123 762 CURVE SMOOTH",
"98 762 OFFCURVE",
"75 752 OFFCURVE",
"57 735 CURVE SMOOTH",
"39 717 OFFCURVE",
"30 694 OFFCURVE",
"30 669 CURVE SMOOTH",
"30 93 LINE SMOOTH",
"30 41 OFFCURVE",
"71 -1 OFFCURVE",
"123 -1 CURVE SMOOTH",
"175 -1 OFFCURVE",
"217 41 OFFCURVE",
"217 93 CURVE SMOOTH",
"217 571 LINE",
"240 562 OFFCURVE",
"258 539 OFFCURVE",
"258 512 CURVE SMOOTH",
"258 497 OFFCURVE",
"254 484 OFFCURVE",
"244 473 CURVE SMOOTH",
"223 449 OFFCURVE",
"216 416 OFFCURVE",
"225 385 CURVE SMOOTH",
"234 355 OFFCURVE",
"258 331 OFFCURVE",
"289 322 CURVE SMOOTH",
"318 313 OFFCURVE",
"338 287 OFFCURVE",
"338 255 CURVE SMOOTH",
"338 93 LINE SMOOTH",
"338 41 OFFCURVE",
"380 -1 OFFCURVE",
"432 -1 CURVE SMOOTH",
"483 -1 OFFCURVE",
"525 41 OFFCURVE",
"525 93 CURVE SMOOTH",
"525 255 LINE SMOOTH",
"525 332 OFFCURVE",
"492 402 OFFCURVE",
"437 449 CURVE"
);
}
);
width = 540;
}
);
rightKerningGroup = "= \"@MMK_L_space\"";
unicode = 0052;
},
{
glyphname = S;
layers = (
{
layerId = "89B76552-B35F-455B-86D9-BC5A433DF1B4";
paths = (
{
closed = 1;
nodes = (
"242 764 LINE SMOOTH",
"119 764 OFFCURVE",
"20 665 OFFCURVE",
"20 542 CURVE SMOOTH",
"20 420 OFFCURVE",
"119 320 OFFCURVE",
"242 320 CURVE SMOOTH",
"278 320 OFFCURVE",
"308 291 OFFCURVE",
"308 254 CURVE SMOOTH",
"308 218 OFFCURVE",
"278 188 OFFCURVE",
"242 188 CURVE SMOOTH",
"123 188 LINE",
"123 188 LINE SMOOTH",
"71 188 OFFCURVE",
"29 147 OFFCURVE",
"29 95 CURVE SMOOTH",
"29 43 OFFCURVE",
"71 1 OFFCURVE",
"123 1 CURVE",
"123 1 LINE",
"242 1 LINE SMOOTH",
"381 1 OFFCURVE",
"495 115 OFFCURVE",
"495 254 CURVE SMOOTH",
"495 394 OFFCURVE",
"381 507 OFFCURVE",
"242 507 CURVE SMOOTH",
"223 507 OFFCURVE",
"207 523 OFFCURVE",
"207 542 CURVE SMOOTH",
"207 562 OFFCURVE",
"223 577 OFFCURVE",
"242 577 CURVE SMOOTH",
"329 577 LINE",
"329 577 LINE",
"381 577 OFFCURVE",
"423 619 OFFCURVE",
"423 671 CURVE SMOOTH",
"423 722 OFFCURVE",
"381 764 OFFCURVE",
"329 764 CURVE SMOOTH"
);
}
);
width = 515;
}
);
rightKerningGroup = "= \"@MMK_L_space\"";
unicode = 0053;
},
{
glyphname = T;
layers = (
{
layerId = "89B76552-B35F-455B-86D9-BC5A433DF1B4";
paths = (
{
closed = 1;
nodes = (
"432 756 OFFCURVE",
"353 781 OFFCURVE",
"270 781 CURVE SMOOTH",
"187 781 OFFCURVE",
"108 756 OFFCURVE",
"40 708 CURVE SMOOTH",
"-2 678 OFFCURVE",
"-12 620 OFFCURVE",
"18 578 CURVE SMOOTH",
"47 535 OFFCURVE",
"106 525 OFFCURVE",
"148 555 CURVE",
"157 562 OFFCURVE",
"167 567 OFFCURVE",
"177 572 CURVE",
"177 94 LINE SMOOTH",
"177 42 OFFCURVE",
"218 0 OFFCURVE",
"270 0 CURVE SMOOTH",
"322 0 OFFCURVE",
"364 42 OFFCURVE",
"364 94 CURVE SMOOTH",
"364 572 LINE",
"374 567 OFFCURVE",
"383 562 OFFCURVE",
"392 555 CURVE",
"434 525 OFFCURVE",
"493 535 OFFCURVE",
"522 578 CURVE SMOOTH",
"552 620 OFFCURVE",
"542 678 OFFCURVE",
"500 708 CURVE SMOOTH"
);
}
);
width = 540;
}
);
rightKerningGroup = "= \"@MMK_L_space\"";
unicode = 0054;
},
{
glyphname = U;
layers = (
{
layerId = "89B76552-B35F-455B-86D9-BC5A433DF1B4";
paths = (
{
closed = 1;
nodes = (
"463 762 OFFCURVE",
"421 720 OFFCURVE",
"421 668 CURVE SMOOTH",
"421 272 LINE SMOOTH",
"421 215 OFFCURVE",
"375 168 OFFCURVE",
"318 168 CURVE SMOOTH",
"261 168 OFFCURVE",
"215 215 OFFCURVE",
"215 272 CURVE SMOOTH",
"215 668 LINE SMOOTH",
"215 720 OFFCURVE",
"173 762 OFFCURVE",
"121 762 CURVE SMOOTH",
"69 762 OFFCURVE",
"28 720 OFFCURVE",
"28 668 CURVE SMOOTH",
"28 272 LINE SMOOTH",
"28 111 OFFCURVE",
"158 -19 OFFCURVE",
"318 -19 CURVE SMOOTH",
"478 -19 OFFCURVE",
"608 111 OFFCURVE",
"608 272 CURVE SMOOTH",
"608 668 LINE SMOOTH",
"608 720 OFFCURVE",
"567 762 OFFCURVE",
"515 762 CURVE SMOOTH"
);
}
);
width = 636;
}
);
leftKerningGroup = "= \"@MMK_R_u\"";
rightKerningGroup = "= \"@MMK_L_u\"";
unicode = 0055;
},
{
glyphname = Uacute;
layers = (
{
layerId = "89B76552-B35F-455B-86D9-BC5A433DF1B4";
paths = (
{
closed = 1;
nodes = (
"463 762 OFFCURVE",
"421 720 OFFCURVE",
"421 668 CURVE SMOOTH",
"421 272 LINE SMOOTH",
"421 215 OFFCURVE",
"375 168 OFFCURVE",
"318 168 CURVE SMOOTH",
"261 168 OFFCURVE",
"215 215 OFFCURVE",
"215 272 CURVE SMOOTH",
"215 668 LINE SMOOTH",
"215 720 OFFCURVE",
"173 762 OFFCURVE",
"121 762 CURVE SMOOTH",
"69 762 OFFCURVE",
"28 720 OFFCURVE",
"28 668 CURVE SMOOTH",
"28 272 LINE SMOOTH",
"28 111 OFFCURVE",
"158 -19 OFFCURVE",
"318 -19 CURVE SMOOTH",
"478 -19 OFFCURVE",
"608 111 OFFCURVE",
"608 272 CURVE SMOOTH",
"608 668 LINE SMOOTH",
"608 720 OFFCURVE",
"567 762 OFFCURVE",
"515 762 CURVE SMOOTH"
);
},
{
closed = 1;
nodes = (
"411 876 LINE",
"411 876 LINE",
"380 854 OFFCURVE",
"373 812 OFFCURVE",
"395 781 CURVE SMOOTH",
"417 751 OFFCURVE",
"460 744 OFFCURVE",
"490 766 CURVE SMOOTH",
"576 828 LINE SMOOTH",
"607 850 OFFCURVE",
"614 892 OFFCURVE",
"592 923 CURVE SMOOTH",
"570 953 OFFCURVE",
"527 960 OFFCURVE",
"497 938 CURVE SMOOTH"
);
}
);
width = 636;
}
);
leftKerningGroup = "= \"@MMK_R_u\"";
rightKerningGroup = "= \"@MMK_L_u\"";
unicode = 00DA;
},
{
glyphname = Ucircumflex;
layers = (
{
layerId = "89B76552-B35F-455B-86D9-BC5A433DF1B4";
paths = (
{
closed = 1;
nodes = (
"463 762 OFFCURVE",
"421 720 OFFCURVE",
"421 668 CURVE SMOOTH",
"421 272 LINE SMOOTH",
"421 215 OFFCURVE",
"375 168 OFFCURVE",
"318 168 CURVE SMOOTH",
"261 168 OFFCURVE",
"215 215 OFFCURVE",
"215 272 CURVE SMOOTH",
"215 668 LINE SMOOTH",
"215 720 OFFCURVE",
"173 762 OFFCURVE",
"121 762 CURVE SMOOTH",
"69 762 OFFCURVE",
"28 720 OFFCURVE",
"28 668 CURVE SMOOTH",
"28 272 LINE SMOOTH",
"28 111 OFFCURVE",
"158 -19 OFFCURVE",
"318 -19 CURVE SMOOTH",
"478 -19 OFFCURVE",
"608 111 OFFCURVE",
"608 272 CURVE SMOOTH",
"608 668 LINE SMOOTH",
"608 720 OFFCURVE",
"567 762 OFFCURVE",
"515 762 CURVE SMOOTH"
);
},
{
closed = 1;
nodes = (
"358 932 LINE SMOOTH",
"334 949 OFFCURVE",
"302 949 OFFCURVE",
"278 932 CURVE SMOOTH",
"192 870 LINE SMOOTH",
"161 848 OFFCURVE",
"155 806 OFFCURVE",
"176 775 CURVE",
"198 745 OFFCURVE",
"241 738 OFFCURVE",
"271 760 CURVE SMOOTH",
"318 793 LINE",
"364 760 LINE SMOOTH",
"395 738 OFFCURVE",
"437 745 OFFCURVE",
"459 775 CURVE SMOOTH",
"481 806 OFFCURVE",
"474 848 OFFCURVE",
"444 870 CURVE SMOOTH"
);
}
);
width = 636;
}
);
leftKerningGroup = "= \"@MMK_R_u\"";
rightKerningGroup = "= \"@MMK_L_u\"";
unicode = 00DB;
},
{
glyphname = Udieresis;
layers = (
{
layerId = "89B76552-B35F-455B-86D9-BC5A433DF1B4";
paths = (
{
closed = 1;
nodes = (
"463 762 OFFCURVE",
"421 720 OFFCURVE",
"421 668 CURVE SMOOTH",
"421 272 LINE SMOOTH",
"421 215 OFFCURVE",
"375 168 OFFCURVE",
"318 168 CURVE SMOOTH",
"261 168 OFFCURVE",
"215 215 OFFCURVE",
"215 272 CURVE SMOOTH",
"215 668 LINE SMOOTH",
"215 720 OFFCURVE",
"173 762 OFFCURVE",
"121 762 CURVE SMOOTH",
"69 762 OFFCURVE",
"28 720 OFFCURVE",
"28 668 CURVE SMOOTH",
"28 272 LINE SMOOTH",
"28 111 OFFCURVE",
"158 -19 OFFCURVE",
"318 -19 CURVE SMOOTH",
"478 -19 OFFCURVE",
"608 111 OFFCURVE",
"608 272 CURVE SMOOTH",
"608 668 LINE SMOOTH",
"608 720 OFFCURVE",
"567 762 OFFCURVE",
"515 762 CURVE SMOOTH"
);
},
{
closed = 1;
nodes = (
"201 890 OFFCURVE",
"168 857 OFFCURVE",
"168 816 CURVE SMOOTH",
"168 776 OFFCURVE",
"201 743 OFFCURVE",
"242 743 CURVE SMOOTH",
"283 743 OFFCURVE",
"316 776 OFFCURVE",
"316 816 CURVE SMOOTH",
"316 857 OFFCURVE",
"283 890 OFFCURVE",
"242 890 CURVE SMOOTH"
);
},
{
closed = 1;
nodes = (
"353 890 OFFCURVE",
"320 857 OFFCURVE",
"320 816 CURVE SMOOTH",
"320 776 OFFCURVE",
"353 743 OFFCURVE",
"394 743 CURVE SMOOTH",
"435 743 OFFCURVE",
"468 776 OFFCURVE",
"468 816 CURVE SMOOTH",
"468 857 OFFCURVE",
"435 890 OFFCURVE",
"394 890 CURVE SMOOTH"
);
}
);
width = 636;
}
);
leftKerningGroup = "= \"@MMK_R_u\"";
rightKerningGroup = "= \"@MMK_L_u\"";
unicode = 00DC;
},
{
glyphname = Ugrave;
layers = (
{
layerId = "89B76552-B35F-455B-86D9-BC5A433DF1B4";
paths = (
{
closed = 1;
nodes = (
"463 762 OFFCURVE",
"421 720 OFFCURVE",
"421 668 CURVE SMOOTH",
"421 272 LINE SMOOTH",
"421 215 OFFCURVE",
"375 168 OFFCURVE",
"318 168 CURVE SMOOTH",
"261 168 OFFCURVE",
"215 215 OFFCURVE",
"215 272 CURVE SMOOTH",
"215 668 LINE SMOOTH",
"215 720 OFFCURVE",
"173 762 OFFCURVE",
"121 762 CURVE SMOOTH",
"69 762 OFFCURVE",
"28 720 OFFCURVE",
"28 668 CURVE SMOOTH",
"28 272 LINE SMOOTH",
"28 111 OFFCURVE",
"158 -19 OFFCURVE",
"318 -19 CURVE SMOOTH",
"478 -19 OFFCURVE",
"608 111 OFFCURVE",
"608 272 CURVE SMOOTH",
"608 668 LINE SMOOTH",
"608 720 OFFCURVE",
"567 762 OFFCURVE",
"515 762 CURVE SMOOTH"
);
},
{
closed = 1;
nodes = (
"140 939 LINE SMOOTH",
"109 961 OFFCURVE",
"67 954 OFFCURVE",
"45 923 CURVE SMOOTH",
"23 893 OFFCURVE",
"30 850 OFFCURVE",
"60 828 CURVE SMOOTH",
"146 766 LINE SMOOTH",
"177 744 OFFCURVE",
"219 751 OFFCURVE",
"241 782 CURVE SMOOTH",
"263 812 OFFCURVE",
"256 855 OFFCURVE",
"226 877 CURVE SMOOTH"
);
}
);
width = 636;
}
);
leftKerningGroup = "= \"@MMK_R_u\"";
rightKerningGroup = "= \"@MMK_L_u\"";
unicode = 00D9;
},
{
glyphname = Utilde;
layers = (
{
layerId = "89B76552-B35F-455B-86D9-BC5A433DF1B4";
paths = (
{
closed = 1;
nodes = (
"463 762 OFFCURVE",
"421 720 OFFCURVE",
"421 668 CURVE SMOOTH",
"421 272 LINE SMOOTH",
"421 215 OFFCURVE",
"375 168 OFFCURVE",
"318 168 CURVE SMOOTH",
"261 168 OFFCURVE",
"215 215 OFFCURVE",
"215 272 CURVE SMOOTH",
"215 668 LINE SMOOTH",
"215 720 OFFCURVE",
"173 762 OFFCURVE",
"121 762 CURVE SMOOTH",
"69 762 OFFCURVE",
"28 720 OFFCURVE",
"28 668 CURVE SMOOTH",
"28 272 LINE SMOOTH",
"28 111 OFFCURVE",
"158 -19 OFFCURVE",
"318 -19 CURVE SMOOTH",
"478 -19 OFFCURVE",
"608 111 OFFCURVE",
"608 272 CURVE SMOOTH",
"608 668 LINE SMOOTH",
"608 720 OFFCURVE",
"567 762 OFFCURVE",
"515 762 CURVE SMOOTH"
);
},
{
closed = 1;
nodes = (
"416 916 OFFCURVE",
"387 905 OFFCURVE",
"370 883 CURVE",
"369 884 OFFCURVE",
"367 885 OFFCURVE",
"366 885 CURVE",
"361 888 LINE",
"361 888 OFFCURVE",
"357 890 OFFCURVE",
"357 890 CURVE",
"339 899 OFFCURVE",
"307 915 OFFCURVE",
"263 910 CURVE SMOOTH",
"211 903 OFFCURVE",
"181 863 OFFCURVE",
"172 831 CURVE SMOOTH",
"161 795 OFFCURVE",
"181 757 OFFCURVE",
"217 746 CURVE SMOOTH",
"245 737 OFFCURVE",
"275 748 OFFCURVE",
"291 770 CURVE",
"293 770 OFFCURVE",
"294 769 OFFCURVE",
"296 768 CURVE SMOOTH",
"300 766 LINE",
"300 766 OFFCURVE",
"304 764 OFFCURVE",
"304 764 CURVE",
"323 755 OFFCURVE",
"354 739 OFFCURVE",
"398 744 CURVE SMOOTH",
"450 750 OFFCURVE",
"480 790 OFFCURVE",
"490 823 CURVE SMOOTH",
"501 859 OFFCURVE",
"480 897 OFFCURVE",
"444 908 CURVE SMOOTH"
);
}
);
width = 636;
}
);
rightKerningGroup = "= \"@MMK_L_space\"";
unicode = 0168;
},
{
glyphname = V;
layers = (
{
layerId = "89B76552-B35F-455B-86D9-BC5A433DF1B4";
paths = (
{
closed = 1;
nodes = (
"434 763 OFFCURVE",
"392 721 OFFCURVE",
"392 669 CURVE SMOOTH",
"392 398 LINE",
"172 722 LINE SMOOTH",
"143 765 OFFCURVE",
"85 776 OFFCURVE",
"42 747 CURVE SMOOTH",
"-1 718 OFFCURVE",
"-12 659 OFFCURVE",
"17 617 CURVE SMOOTH",
"409 41 LINE SMOOTH",
"432 7 OFFCURVE",
"474 -8 OFFCURVE",
"513 4 CURVE SMOOTH",
"553 16 OFFCURVE",
"579 52 OFFCURVE",
"579 94 CURVE SMOOTH",
"579 669 LINE SMOOTH",
"579 721 OFFCURVE",
"538 763 OFFCURVE",
"486 763 CURVE SMOOTH"
);
}
);
width = 609;
}
);
leftKerningGroup = "= \"@MMK_R_V\"";
rightKerningGroup = "= \"@MMK_L_space\"";
unicode = 0056;
},
{
glyphname = W;
layers = (
{
layerId = "89B76552-B35F-455B-86D9-BC5A433DF1B4";
paths = (
{
closed = 1;
nodes = (
"724 706 OFFCURVE",
"688 753 OFFCURVE",
"637 760 CURVE SMOOTH",
"586 767 OFFCURVE",
"539 731 OFFCURVE",
"532 680 CURVE SMOOTH",
"507 499 LINE",
"447 674 LINE SMOOTH",
"435 713 OFFCURVE",
"399 738 OFFCURVE",
"359 738 CURVE SMOOTH",
"319 738 OFFCURVE",
"283 713 OFFCURVE",
"270 674 CURVE SMOOTH",
"211 499 LINE",
"186 680 LINE SMOOTH",
"179 731 OFFCURVE",
"132 767 OFFCURVE",
"81 760 CURVE SMOOTH",
"29 753 OFFCURVE",
"-6 706 OFFCURVE",
"1 655 CURVE SMOOTH",
"80 79 LINE SMOOTH",
"86 36 OFFCURVE",
"121 2 OFFCURVE",
"164 -2 CURVE SMOOTH",
"207 -6 OFFCURVE",
"248 21 OFFCURVE",
"261 62 CURVE SMOOTH",
"359 351 LINE",
"456 62 LINE SMOOTH",
"470 21 OFFCURVE",
"510 -6 OFFCURVE",
"554 -2 CURVE SMOOTH",
"597 2 OFFCURVE",
"632 36 OFFCURVE",
"637 79 CURVE SMOOTH",
"717 655 LINE SMOOTH"
);
}
);
width = 718;
}
);
rightKerningGroup = "= \"@MMK_L_space\"";
unicode = 0057;
},
{
glyphname = X;
layers = (
{
layerId = "89B76552-B35F-455B-86D9-BC5A433DF1B4";
paths = (
{
closed = 1;
nodes = (
"409 763 OFFCURVE",
"367 721 OFFCURVE",
"367 670 CURVE SMOOTH",
"367 564 LINE SMOOTH",
"367 523 OFFCURVE",
"333 489 OFFCURVE",
"292 489 CURVE SMOOTH",
"251 489 OFFCURVE",
"217 523 OFFCURVE",
"217 564 CURVE SMOOTH",
"217 670 LINE SMOOTH",
"217 721 OFFCURVE",
"175 763 OFFCURVE",
"123 763 CURVE SMOOTH",
"72 763 OFFCURVE",
"30 721 OFFCURVE",
"30 670 CURVE SMOOTH",
"30 564 LINE SMOOTH",
"30 500 OFFCURVE",
"53 441 OFFCURVE",
"91 396 CURVE",
"53 350 OFFCURVE",
"30 291 OFFCURVE",
"30 227 CURVE SMOOTH",
"30 94 LINE SMOOTH",
"30 42 OFFCURVE",
"72 0 OFFCURVE",
"123 0 CURVE SMOOTH",
"175 0 OFFCURVE",
"217 42 OFFCURVE",
"217 94 CURVE SMOOTH",
"217 227 LINE SMOOTH",
"217 268 OFFCURVE",
"251 302 OFFCURVE",
"292 302 CURVE SMOOTH",
"333 302 OFFCURVE",
"367 268 OFFCURVE",
"367 227 CURVE SMOOTH",
"367 94 LINE SMOOTH",
"367 42 OFFCURVE",
"409 0 OFFCURVE",
"461 0 CURVE SMOOTH",
"512 0 OFFCURVE",
"554 42 OFFCURVE",
"554 94 CURVE SMOOTH",
"554 227 LINE SMOOTH",
"554 291 OFFCURVE",
"531 350 OFFCURVE",
"493 396 CURVE",
"531 441 OFFCURVE",
"554 500 OFFCURVE",
"554 564 CURVE SMOOTH",
"554 670 LINE SMOOTH",
"554 721 OFFCURVE",
"512 763 OFFCURVE",
"461 763 CURVE SMOOTH"
);
}
);
width = 584;
}
);
rightKerningGroup = "= \"@MMK_L_space\"";
unicode = 0058;
},
{
glyphname = Y;
layers = (
{
layerId = "89B76552-B35F-455B-86D9-BC5A433DF1B4";
paths = (
{
closed = 1;
nodes = (
"468 776 OFFCURVE",
"411 760 OFFCURVE",
"385 715 CURVE SMOOTH",
"281 531 LINE",
"176 715 LINE SMOOTH",
"150 760 OFFCURVE",
"93 776 OFFCURVE",
"48 750 CURVE SMOOTH",
"3 724 OFFCURVE",
"-12 667 OFFCURVE",
"13 622 CURVE SMOOTH",
"187 318 LINE",
"187 93 LINE SMOOTH",
"187 41 OFFCURVE",
"229 0 OFFCURVE",
"281 0 CURVE SMOOTH",
"332 0 OFFCURVE",
"374 41 OFFCURVE",
"374 93 CURVE SMOOTH",
"374 318 LINE",
"548 622 LINE SMOOTH",
"573 667 OFFCURVE",
"558 724 OFFCURVE",
"513 750 CURVE SMOOTH"
);
}
);
width = 561;
}
);
rightKerningGroup = "= \"@MMK_L_space\"";
unicode = 0059;
},
{
glyphname = Z;
layers = (
{
layerId = "89B76552-B35F-455B-86D9-BC5A433DF1B4";
paths = (
{
closed = 1;
nodes = (
"261 187 LINE",
"499 624 LINE SMOOTH",
"515 653 OFFCURVE",
"514 688 OFFCURVE",
"497 717 CURVE SMOOTH",
"481 745 OFFCURVE",
"450 762 OFFCURVE",
"417 762 CURVE SMOOTH",
"128 762 LINE SMOOTH",
"76 762 OFFCURVE",
"34 721 OFFCURVE",
"34 669 CURVE SMOOTH",
"34 617 OFFCURVE",
"76 575 OFFCURVE",
"128 575 CURVE SMOOTH",
"260 575 LINE",
"22 138 LINE SMOOTH",
"6 109 OFFCURVE",
"7 74 OFFCURVE",
"24 45 CURVE SMOOTH",
"41 17 OFFCURVE",
"71 0 OFFCURVE",
"104 0 CURVE SMOOTH",
"432 0 LINE SMOOTH",
"483 0 OFFCURVE",
"525 41 OFFCURVE",
"525 93 CURVE SMOOTH",
"525 145 OFFCURVE",
"483 187 OFFCURVE",
"432 187 CURVE SMOOTH"
);
}
);
width = 535;
}
);
rightKerningGroup = "= \"@MMK_L_space\"";
unicode = 005A;
},
{
glyphname = a;
layers = (
{
layerId = "89B76552-B35F-455B-86D9-BC5A433DF1B4";
paths = (
{
closed = 1;
nodes = (
"146 780 OFFCURVE",
"28 662 OFFCURVE",
"28 518 CURVE SMOOTH",
"28 93 LINE SMOOTH",
"28 41 OFFCURVE",
"70 -1 OFFCURVE",
"122 -1 CURVE SMOOTH",
"173 -1 OFFCURVE",
"215 41 OFFCURVE",
"215 93 CURVE SMOOTH",
"215 234 LINE",
"365 234 LINE",
"365 93 LINE SMOOTH",
"365 41 OFFCURVE",
"407 -1 OFFCURVE",
"459 -1 CURVE SMOOTH",
"510 -1 OFFCURVE",
"552 41 OFFCURVE",
"552 93 CURVE SMOOTH",
"552 518 LINE SMOOTH",
"552 662 OFFCURVE",
"435 780 OFFCURVE",
"290 780 CURVE SMOOTH"
);
},
{
closed = 1;
nodes = (
"215 421 LINE",
"215 518 LINE SMOOTH",
"215 559 OFFCURVE",
"249 593 OFFCURVE",
"290 593 CURVE SMOOTH",
"332 593 OFFCURVE",
"365 559 OFFCURVE",
"365 518 CURVE SMOOTH",
"365 421 LINE"
);
}
);
width = 580;
}
);
leftKerningGroup = "= \"@MMK_R_N\"";
rightKerningGroup = "= \"@MMK_L_space\"";
unicode = 0061;
},
{
glyphname = aacute;
layers = (
{
layerId = "89B76552-B35F-455B-86D9-BC5A433DF1B4";
paths = (
{
closed = 1;
nodes = (
"146 780 OFFCURVE",
"28 662 OFFCURVE",
"28 518 CURVE SMOOTH",
"28 93 LINE SMOOTH",
"28 41 OFFCURVE",
"70 -1 OFFCURVE",
"122 -1 CURVE SMOOTH",
"173 -1 OFFCURVE",
"215 41 OFFCURVE",
"215 93 CURVE SMOOTH",
"215 234 LINE",
"365 234 LINE",
"365 93 LINE SMOOTH",
"365 41 OFFCURVE",
"407 -1 OFFCURVE",
"459 -1 CURVE SMOOTH",
"510 -1 OFFCURVE",
"552 41 OFFCURVE",
"552 93 CURVE SMOOTH",
"552 518 LINE SMOOTH",
"552 662 OFFCURVE",
"435 780 OFFCURVE",
"290 780 CURVE SMOOTH"
);
},
{
closed = 1;
nodes = (
"215 421 LINE",
"215 518 LINE SMOOTH",
"215 559 OFFCURVE",
"249 593 OFFCURVE",
"290 593 CURVE SMOOTH",
"332 593 OFFCURVE",
"365 559 OFFCURVE",
"365 518 CURVE SMOOTH",
"365 421 LINE"
);
},
{
closed = 1;
nodes = (
"352 890 LINE",
"352 890 LINE",
"321 868 OFFCURVE",
"314 826 OFFCURVE",
"336 795 CURVE SMOOTH",
"358 765 OFFCURVE",
"401 758 OFFCURVE",
"431 780 CURVE SMOOTH",
"517 842 LINE SMOOTH",
"548 864 OFFCURVE",
"555 906 OFFCURVE",
"533 937 CURVE SMOOTH",
"511 967 OFFCURVE",
"468 974 OFFCURVE",
"438 952 CURVE SMOOTH"
);
}
);
width = 580;
}
);
leftKerningGroup = "= \"@MMK_R_N\"";
rightKerningGroup = "= \"@MMK_L_space\"";
unicode = 00E1;
},
{
glyphname = acircumflex;
layers = (
{
layerId = "89B76552-B35F-455B-86D9-BC5A433DF1B4";
paths = (
{
closed = 1;
nodes = (
"146 780 OFFCURVE",
"28 662 OFFCURVE",
"28 518 CURVE SMOOTH",
"28 93 LINE SMOOTH",
"28 41 OFFCURVE",
"70 -1 OFFCURVE",
"122 -1 CURVE SMOOTH",
"173 -1 OFFCURVE",
"215 41 OFFCURVE",
"215 93 CURVE SMOOTH",
"215 234 LINE",
"365 234 LINE",
"365 93 LINE SMOOTH",
"365 41 OFFCURVE",
"407 -1 OFFCURVE",
"459 -1 CURVE SMOOTH",
"510 -1 OFFCURVE",
"552 41 OFFCURVE",
"552 93 CURVE SMOOTH",
"552 518 LINE SMOOTH",
"552 662 OFFCURVE",
"435 780 OFFCURVE",
"290 780 CURVE SMOOTH"
);
},
{
closed = 1;
nodes = (
"215 421 LINE",
"215 518 LINE SMOOTH",
"215 559 OFFCURVE",
"249 593 OFFCURVE",
"290 593 CURVE SMOOTH",
"332 593 OFFCURVE",
"365 559 OFFCURVE",
"365 518 CURVE SMOOTH",
"365 421 LINE"
);
},
{
closed = 1;
nodes = (
"332 959 LINE SMOOTH",
"308 976 OFFCURVE",
"276 976 OFFCURVE",
"252 959 CURVE SMOOTH",
"166 897 LINE SMOOTH",
"135 875 OFFCURVE",
"129 833 OFFCURVE",
"150 802 CURVE",
"172 772 OFFCURVE",
"215 765 OFFCURVE",
"245 787 CURVE SMOOTH",
"292 820 LINE",
"338 787 LINE SMOOTH",
"369 765 OFFCURVE",
"411 772 OFFCURVE",
"433 802 CURVE SMOOTH",
"455 833 OFFCURVE",
"448 875 OFFCURVE",
"418 897 CURVE SMOOTH"
);
}
);
width = 580;
}
);
leftKerningGroup = "= \"@MMK_R_N\"";
rightKerningGroup = "= \"@MMK_L_space\"";
unicode = 00E2;
},
{
glyphname = adieresis;
layers = (
{
layerId = "89B76552-B35F-455B-86D9-BC5A433DF1B4";
paths = (
{
closed = 1;
nodes = (
"146 780 OFFCURVE",
"28 662 OFFCURVE",
"28 518 CURVE SMOOTH",
"28 93 LINE SMOOTH",
"28 41 OFFCURVE",
"70 -1 OFFCURVE",
"122 -1 CURVE SMOOTH",
"173 -1 OFFCURVE",
"215 41 OFFCURVE",
"215 93 CURVE SMOOTH",
"215 234 LINE",
"365 234 LINE",
"365 93 LINE SMOOTH",
"365 41 OFFCURVE",
"407 -1 OFFCURVE",
"459 -1 CURVE SMOOTH",
"510 -1 OFFCURVE",
"552 41 OFFCURVE",
"552 93 CURVE SMOOTH",
"552 518 LINE SMOOTH",
"552 662 OFFCURVE",
"435 780 OFFCURVE",
"290 780 CURVE SMOOTH"
);
},
{
closed = 1;
nodes = (
"215 421 LINE",
"215 518 LINE SMOOTH",
"215 559 OFFCURVE",
"249 593 OFFCURVE",
"290 593 CURVE SMOOTH",
"332 593 OFFCURVE",
"365 559 OFFCURVE",
"365 518 CURVE SMOOTH",
"365 421 LINE"
);
},
{
closed = 1;
nodes = (
"173 923 OFFCURVE",
"140 890 OFFCURVE",
"140 849 CURVE SMOOTH",
"140 809 OFFCURVE",
"173 776 OFFCURVE",
"214 776 CURVE SMOOTH",
"255 776 OFFCURVE",
"288 809 OFFCURVE",
"288 849 CURVE SMOOTH",
"288 890 OFFCURVE",
"255 923 OFFCURVE",
"214 923 CURVE SMOOTH"
);
},
{
closed = 1;
nodes = (
"325 923 OFFCURVE",
"292 890 OFFCURVE",
"292 849 CURVE SMOOTH",
"292 809 OFFCURVE",
"325 776 OFFCURVE",
"366 776 CURVE SMOOTH",
"407 776 OFFCURVE",
"440 809 OFFCURVE",
"440 849 CURVE SMOOTH",
"440 890 OFFCURVE",
"407 923 OFFCURVE",
"366 923 CURVE SMOOTH"
);
}
);
width = 580;
}
);
leftKerningGroup = "= \"@MMK_R_N\"";
rightKerningGroup = "= \"@MMK_L_space\"";
unicode = 00E4;
},
{
glyphname = agrave;
layers = (
{
layerId = "89B76552-B35F-455B-86D9-BC5A433DF1B4";
paths = (
{
closed = 1;
nodes = (
"146 780 OFFCURVE",
"28 662 OFFCURVE",
"28 518 CURVE SMOOTH",
"28 93 LINE SMOOTH",
"28 41 OFFCURVE",
"70 -1 OFFCURVE",
"122 -1 CURVE SMOOTH",
"173 -1 OFFCURVE",
"215 41 OFFCURVE",
"215 93 CURVE SMOOTH",
"215 234 LINE",
"365 234 LINE",
"365 93 LINE SMOOTH",
"365 41 OFFCURVE",
"407 -1 OFFCURVE",
"459 -1 CURVE SMOOTH",
"510 -1 OFFCURVE",
"552 41 OFFCURVE",
"552 93 CURVE SMOOTH",
"552 518 LINE SMOOTH",
"552 662 OFFCURVE",
"435 780 OFFCURVE",
"290 780 CURVE SMOOTH"
);
},
{
closed = 1;
nodes = (
"215 421 LINE",
"215 518 LINE SMOOTH",
"215 559 OFFCURVE",
"249 593 OFFCURVE",
"290 593 CURVE SMOOTH",
"332 593 OFFCURVE",
"365 559 OFFCURVE",
"365 518 CURVE SMOOTH",
"365 421 LINE"
);
},
{
closed = 1;
nodes = (
"136 952 LINE SMOOTH",
"105 974 OFFCURVE",
"63 967 OFFCURVE",
"41 936 CURVE SMOOTH",
"19 906 OFFCURVE",
"26 863 OFFCURVE",
"56 841 CURVE SMOOTH",
"142 779 LINE SMOOTH",
"173 757 OFFCURVE",
"215 764 OFFCURVE",
"237 795 CURVE SMOOTH",
"259 825 OFFCURVE",
"252 868 OFFCURVE",
"222 890 CURVE SMOOTH"
);
}
);
width = 580;
}
);
leftKerningGroup = "= \"@MMK_R_N\"";
rightKerningGroup = "= \"@MMK_L_space\"";
unicode = 00E0;
},
{
glyphname = atilde;
layers = (
{
layerId = "89B76552-B35F-455B-86D9-BC5A433DF1B4";
paths = (
{
closed = 1;
nodes = (
"146 780 OFFCURVE",
"28 662 OFFCURVE",
"28 518 CURVE SMOOTH",
"28 93 LINE SMOOTH",
"28 41 OFFCURVE",
"70 -1 OFFCURVE",
"122 -1 CURVE SMOOTH",
"173 -1 OFFCURVE",
"215 41 OFFCURVE",
"215 93 CURVE SMOOTH",
"215 234 LINE",
"365 234 LINE",
"365 93 LINE SMOOTH",
"365 41 OFFCURVE",
"407 -1 OFFCURVE",
"459 -1 CURVE SMOOTH",
"510 -1 OFFCURVE",
"552 41 OFFCURVE",
"552 93 CURVE SMOOTH",
"552 518 LINE SMOOTH",
"552 662 OFFCURVE",
"435 780 OFFCURVE",
"290 780 CURVE SMOOTH"
);
},
{
closed = 1;
nodes = (
"215 421 LINE",
"215 518 LINE SMOOTH",
"215 559 OFFCURVE",
"249 593 OFFCURVE",
"290 593 CURVE SMOOTH",
"332 593 OFFCURVE",
"365 559 OFFCURVE",
"365 518 CURVE SMOOTH",
"365 421 LINE"
);
},
{
closed = 1;
nodes = (
"399 949 OFFCURVE",
"370 938 OFFCURVE",
"353 916 CURVE",
"352 917 OFFCURVE",
"350 918 OFFCURVE",
"349 918 CURVE",
"344 921 LINE",
"344 921 OFFCURVE",
"340 923 OFFCURVE",
"340 923 CURVE",
"322 932 OFFCURVE",
"290 948 OFFCURVE",
"246 943 CURVE SMOOTH",
"194 936 OFFCURVE",
"164 896 OFFCURVE",
"155 864 CURVE SMOOTH",
"144 828 OFFCURVE",
"164 790 OFFCURVE",
"200 779 CURVE SMOOTH",
"228 770 OFFCURVE",
"258 781 OFFCURVE",
"274 803 CURVE",
"276 803 OFFCURVE",
"277 802 OFFCURVE",
"279 801 CURVE SMOOTH",
"283 799 LINE",
"283 799 OFFCURVE",
"287 797 OFFCURVE",
"287 797 CURVE",
"306 788 OFFCURVE",
"337 772 OFFCURVE",
"381 777 CURVE SMOOTH",
"433 783 OFFCURVE",
"463 823 OFFCURVE",
"473 856 CURVE SMOOTH",
"484 892 OFFCURVE",
"463 930 OFFCURVE",
"427 941 CURVE SMOOTH"
);
}
);
width = 580;
}
);
leftKerningGroup = "= \"@MMK_R_N\"";
rightKerningGroup = "= \"@MMK_L_space\"";
unicode = 00E3;
},
{
glyphname = b;
layers = (
{
layerId = "89B76552-B35F-455B-86D9-BC5A433DF1B4";
paths = (
{
closed = 1;
nodes = (
"521 330 OFFCURVE",
"492 395 OFFCURVE",
"444 443 CURVE",
"453 469 OFFCURVE",
"458 496 OFFCURVE",
"458 524 CURVE SMOOTH",
"458 656 OFFCURVE",
"349 763 OFFCURVE",
"215 763 CURVE SMOOTH",
"215 763 OFFCURVE",
"124 763 OFFCURVE",
"124 763 CURVE SMOOTH",
"72 763 OFFCURVE",
"30 721 OFFCURVE",
"30 670 CURVE SMOOTH",
"30 94 LINE SMOOTH",
"30 42 OFFCURVE",
"72 0 OFFCURVE",
"124 0 CURVE SMOOTH",
"262 0 LINE SMOOTH",
"405 0 OFFCURVE",
"521 116 OFFCURVE",
"521 259 CURVE SMOOTH"
);
},
{
closed = 1;
nodes = (
"218 187 LINE",
"218 576 LINE",
"246 575 OFFCURVE",
"271 551 OFFCURVE",
"271 524 CURVE SMOOTH",
"271 504 OFFCURVE",
"260 491 OFFCURVE",
"253 485 CURVE SMOOTH",
"228 463 OFFCURVE",
"217 429 OFFCURVE",
"223 396 CURVE SMOOTH",
"230 363 OFFCURVE",
"253 337 OFFCURVE",
"285 326 CURVE SMOOTH",
"314 316 OFFCURVE",
"334 289 OFFCURVE",
"334 259 CURVE SMOOTH",
"334 219 OFFCURVE",
"302 187 OFFCURVE",
"262 187 CURVE SMOOTH"
);
}
);
width = 533;
}
);
rightKerningGroup = "= \"@MMK_L_space\"";
unicode = 0062;
},
{
glyphname = c;
layers = (
{
layerId = "89B76552-B35F-455B-86D9-BC5A433DF1B4";
paths = (
{
closed = 1;
nodes = (
"142 780 OFFCURVE",
"24 663 OFFCURVE",
"24 518 CURVE SMOOTH",
"24 244 LINE SMOOTH",
"24 100 OFFCURVE",
"142 -18 OFFCURVE",
"286 -18 CURVE SMOOTH",
"431 -18 OFFCURVE",
"548 100 OFFCURVE",
"548 244 CURVE SMOOTH",
"548 254 LINE SMOOTH",
"548 306 OFFCURVE",
"506 348 OFFCURVE",
"455 348 CURVE SMOOTH",
"403 348 OFFCURVE",
"361 306 OFFCURVE",
"361 254 CURVE SMOOTH",
"361 244 LINE SMOOTH",
"361 203 OFFCURVE",
"327 169 OFFCURVE",
"286 169 CURVE SMOOTH",
"245 169 OFFCURVE",
"211 203 OFFCURVE",
"211 244 CURVE SMOOTH",
"211 518 LINE SMOOTH",
"211 560 OFFCURVE",
"245 593 OFFCURVE",
"286 593 CURVE SMOOTH",
"327 593 OFFCURVE",
"361 560 OFFCURVE",
"361 518 CURVE SMOOTH",
"361 509 LINE SMOOTH",
"361 457 OFFCURVE",
"403 415 OFFCURVE",
"455 415 CURVE SMOOTH",
"506 415 OFFCURVE",
"548 457 OFFCURVE",
"548 509 CURVE SMOOTH",
"548 518 LINE SMOOTH",
"548 663 OFFCURVE",
"431 780 OFFCURVE",
"286 780 CURVE SMOOTH"
);
}
);
width = 568;
}
);
leftKerningGroup = "= \"@MMK_R_zero\"";
rightKerningGroup = "= \"@MMK_L_zero\"";
unicode = 0063;
},
{
glyphname = ccedilla;
layers = (
{
layerId = "89B76552-B35F-455B-86D9-BC5A433DF1B4";
paths = (
{
closed = 1;
nodes = (
"142 780 OFFCURVE",
"24 663 OFFCURVE",
"24 518 CURVE SMOOTH",
"24 244 LINE SMOOTH",
"24 130 OFFCURVE",
"98 32 OFFCURVE",
"201 -3 CURVE",
"201 -44 LINE SMOOTH",
"201 -91 OFFCURVE",
"239 -129 OFFCURVE",
"286 -129 CURVE SMOOTH",
"333 -129 OFFCURVE",
"371 -91 OFFCURVE",
"371 -44 CURVE",
"370 -4 LINE",
"474 31 OFFCURVE",
"548 129 OFFCURVE",
"548 244 CURVE SMOOTH",
"548 254 LINE SMOOTH",
"548 306 OFFCURVE",
"506 348 OFFCURVE",
"455 348 CURVE SMOOTH",
"403 348 OFFCURVE",
"361 306 OFFCURVE",
"361 254 CURVE SMOOTH",
"361 244 LINE SMOOTH",
"361 203 OFFCURVE",
"327 169 OFFCURVE",
"286 169 CURVE SMOOTH",
"245 169 OFFCURVE",
"211 203 OFFCURVE",
"211 244 CURVE SMOOTH",
"211 518 LINE SMOOTH",
"211 560 OFFCURVE",
"245 593 OFFCURVE",
"286 593 CURVE SMOOTH",
"327 593 OFFCURVE",
"361 560 OFFCURVE",
"361 518 CURVE SMOOTH",
"361 509 LINE SMOOTH",
"361 457 OFFCURVE",
"403 415 OFFCURVE",
"455 415 CURVE SMOOTH",
"506 415 OFFCURVE",
"548 457 OFFCURVE",
"548 509 CURVE SMOOTH",
"548 518 LINE SMOOTH",
"548 663 OFFCURVE",
"431 780 OFFCURVE",
"286 780 CURVE SMOOTH"
);
}
);
width = 568;
}
);
rightKerningGroup = "= \"@MMK_L_space\"";
unicode = 00E7;
},
{
glyphname = d;
layers = (
{
layerId = "89B76552-B35F-455B-86D9-BC5A433DF1B4";
paths = (
{
closed = 1;
nodes = (
"124 763 LINE SMOOTH",
"72 763 OFFCURVE",
"30 721 OFFCURVE",
"30 670 CURVE SMOOTH",
"30 94 LINE SMOOTH",
"30 42 OFFCURVE",
"72 0 OFFCURVE",
"124 0 CURVE SMOOTH",
"175 0 LINE SMOOTH",
"385 0 OFFCURVE",
"557 172 OFFCURVE",
"557 382 CURVE SMOOTH",
"557 592 OFFCURVE",
"385 763 OFFCURVE",
"175 763 CURVE SMOOTH"
);
},
{
closed = 1;
nodes = (
"217 572 LINE",
"304 552 OFFCURVE",
"370 475 OFFCURVE",
"370 382 CURVE SMOOTH",
"370 289 OFFCURVE",
"304 211 OFFCURVE",
"217 192 CURVE"
);
}
);
width = 572;
}
);
rightKerningGroup = "= \"@MMK_L_D\"";
unicode = 0064;
},
{
glyphname = dotlessi;
layers = (
{
layerId = "89B76552-B35F-455B-86D9-BC5A433DF1B4";
paths = (
{
closed = 1;
nodes = (
"71 572 OFFCURVE",
"30 530 OFFCURVE",
"30 478 CURVE SMOOTH",
"30 93 LINE SMOOTH",
"30 42 OFFCURVE",
"71 0 OFFCURVE",
"123 0 CURVE SMOOTH",
"175 0 OFFCURVE",
"217 42 OFFCURVE",
"217 93 CURVE SMOOTH",
"217 478 LINE SMOOTH",
"217 530 OFFCURVE",
"175 572 OFFCURVE",
"123 572 CURVE SMOOTH"
);
}
);
width = 247;
}
);
rightKerningGroup = "= \"@MMK_L_space\"";
unicode = 0131;
},
{
glyphname = e;
layers = (
{
layerId = "89B76552-B35F-455B-86D9-BC5A433DF1B4";
paths = (
{
closed = 1;
nodes = (
"247 187 LINE SMOOTH",
"227 187 OFFCURVE",
"212 203 OFFCURVE",
"212 222 CURVE SMOOTH",
"212 319 LINE",
"344 319 LINE SMOOTH",
"396 319 OFFCURVE",
"438 361 OFFCURVE",
"438 413 CURVE SMOOTH",
"438 464 OFFCURVE",
"396 506 OFFCURVE",
"344 506 CURVE SMOOTH",
"212 506 LINE",
"212 541 LINE SMOOTH",
"212 560 OFFCURVE",
"227 576 OFFCURVE",
"247 576 CURVE SMOOTH",
"377 576 LINE SMOOTH",
"428 576 OFFCURVE",
"470 618 OFFCURVE",
"470 670 CURVE SMOOTH",
"470 721 OFFCURVE",
"428 763 OFFCURVE",
"377 763 CURVE SMOOTH",
"247 763 LINE SMOOTH",
"124 763 OFFCURVE",
"25 664 OFFCURVE",
"25 541 CURVE SMOOTH",
"25 222 LINE SMOOTH",
"25 100 OFFCURVE",
"124 0 OFFCURVE",
"247 0 CURVE SMOOTH",
"393 0 LINE SMOOTH",
"444 0 OFFCURVE",
"486 42 OFFCURVE",
"486 94 CURVE SMOOTH",
"486 145 OFFCURVE",
"444 187 OFFCURVE",
"393 187 CURVE SMOOTH"
);
}
);
width = 490;
}
);
leftKerningGroup = "= \"@MMK_R_e\"";
rightKerningGroup = "= \"@MMK_L_e\"";
unicode = 0065;
},
{
glyphname = eacute;
layers = (
{
layerId = "89B76552-B35F-455B-86D9-BC5A433DF1B4";
paths = (
{
closed = 1;
nodes = (
"247 187 LINE SMOOTH",
"227 187 OFFCURVE",
"212 203 OFFCURVE",
"212 222 CURVE SMOOTH",
"212 319 LINE",
"344 319 LINE SMOOTH",
"396 319 OFFCURVE",
"438 361 OFFCURVE",
"438 413 CURVE SMOOTH",
"438 464 OFFCURVE",
"396 506 OFFCURVE",
"344 506 CURVE SMOOTH",
"212 506 LINE",
"212 541 LINE SMOOTH",
"212 560 OFFCURVE",
"227 576 OFFCURVE",
"247 576 CURVE SMOOTH",
"377 576 LINE SMOOTH",
"428 576 OFFCURVE",
"470 618 OFFCURVE",
"470 670 CURVE SMOOTH",
"470 721 OFFCURVE",
"428 763 OFFCURVE",
"377 763 CURVE SMOOTH",
"247 763 LINE SMOOTH",
"124 763 OFFCURVE",
"25 664 OFFCURVE",
"25 541 CURVE SMOOTH",
"25 222 LINE SMOOTH",
"25 100 OFFCURVE",
"124 0 OFFCURVE",
"247 0 CURVE SMOOTH",
"393 0 LINE SMOOTH",
"444 0 OFFCURVE",
"486 42 OFFCURVE",
"486 94 CURVE SMOOTH",
"486 145 OFFCURVE",
"444 187 OFFCURVE",
"393 187 CURVE SMOOTH"
);
},
{
closed = 1;
nodes = (
"224 890 LINE",
"224 890 LINE",
"193 868 OFFCURVE",
"186 826 OFFCURVE",
"208 795 CURVE SMOOTH",
"230 765 OFFCURVE",
"273 758 OFFCURVE",
"303 780 CURVE SMOOTH",
"389 842 LINE SMOOTH",
"420 864 OFFCURVE",
"427 906 OFFCURVE",
"405 937 CURVE SMOOTH",
"383 967 OFFCURVE",
"340 974 OFFCURVE",
"310 952 CURVE SMOOTH"
);
}
);
width = 490;
}
);
leftKerningGroup = "= \"@MMK_R_e\"";
rightKerningGroup = "= \"@MMK_L_e\"";
unicode = 00E9;
},
{
glyphname = ecircumflex;
layers = (
{
layerId = "89B76552-B35F-455B-86D9-BC5A433DF1B4";
paths = (
{
closed = 1;
nodes = (
"247 187 LINE SMOOTH",
"227 187 OFFCURVE",
"212 203 OFFCURVE",
"212 222 CURVE SMOOTH",
"212 319 LINE",
"344 319 LINE SMOOTH",
"396 319 OFFCURVE",
"438 361 OFFCURVE",
"438 413 CURVE SMOOTH",
"438 464 OFFCURVE",
"396 506 OFFCURVE",
"344 506 CURVE SMOOTH",
"212 506 LINE",
"212 541 LINE SMOOTH",
"212 560 OFFCURVE",
"227 576 OFFCURVE",
"247 576 CURVE SMOOTH",
"377 576 LINE SMOOTH",
"428 576 OFFCURVE",
"470 618 OFFCURVE",
"470 670 CURVE SMOOTH",
"470 721 OFFCURVE",
"428 763 OFFCURVE",
"377 763 CURVE SMOOTH",
"247 763 LINE SMOOTH",
"124 763 OFFCURVE",
"25 664 OFFCURVE",
"25 541 CURVE SMOOTH",
"25 222 LINE SMOOTH",
"25 100 OFFCURVE",
"124 0 OFFCURVE",
"247 0 CURVE SMOOTH",
"393 0 LINE SMOOTH",
"444 0 OFFCURVE",
"486 42 OFFCURVE",
"486 94 CURVE SMOOTH",
"486 145 OFFCURVE",
"444 187 OFFCURVE",
"393 187 CURVE SMOOTH"
);
},
{
closed = 1;
nodes = (
"340 953 LINE SMOOTH",
"316 970 OFFCURVE",
"284 970 OFFCURVE",
"260 953 CURVE SMOOTH",
"174 891 LINE SMOOTH",
"143 869 OFFCURVE",
"137 827 OFFCURVE",
"158 796 CURVE",
"180 766 OFFCURVE",
"223 759 OFFCURVE",
"253 781 CURVE SMOOTH",
"300 814 LINE",
"346 781 LINE SMOOTH",
"377 759 OFFCURVE",
"419 766 OFFCURVE",
"441 796 CURVE SMOOTH",
"463 827 OFFCURVE",
"456 869 OFFCURVE",
"426 891 CURVE SMOOTH"
);
}
);
width = 490;
}
);
leftKerningGroup = "= \"@MMK_R_e\"";
rightKerningGroup = "= \"@MMK_L_e\"";
unicode = 00EA;
},
{
glyphname = edieresis;
layers = (
{
layerId = "89B76552-B35F-455B-86D9-BC5A433DF1B4";
paths = (
{
closed = 1;
nodes = (
"247 187 LINE SMOOTH",
"227 187 OFFCURVE",
"212 203 OFFCURVE",
"212 222 CURVE SMOOTH",
"212 319 LINE",
"344 319 LINE SMOOTH",
"396 319 OFFCURVE",
"438 361 OFFCURVE",
"438 413 CURVE SMOOTH",
"438 464 OFFCURVE",
"396 506 OFFCURVE",
"344 506 CURVE SMOOTH",
"212 506 LINE",
"212 541 LINE SMOOTH",
"212 560 OFFCURVE",
"227 576 OFFCURVE",
"247 576 CURVE SMOOTH",
"377 576 LINE SMOOTH",
"428 576 OFFCURVE",
"470 618 OFFCURVE",
"470 670 CURVE SMOOTH",
"470 721 OFFCURVE",
"428 763 OFFCURVE",
"377 763 CURVE SMOOTH",
"247 763 LINE SMOOTH",
"124 763 OFFCURVE",
"25 664 OFFCURVE",
"25 541 CURVE SMOOTH",
"25 222 LINE SMOOTH",
"25 100 OFFCURVE",
"124 0 OFFCURVE",
"247 0 CURVE SMOOTH",
"393 0 LINE SMOOTH",
"444 0 OFFCURVE",
"486 42 OFFCURVE",
"486 94 CURVE SMOOTH",
"486 145 OFFCURVE",
"444 187 OFFCURVE",
"393 187 CURVE SMOOTH"
);
},
{
closed = 1;
nodes = (
"193 914 OFFCURVE",
"160 881 OFFCURVE",
"160 840 CURVE SMOOTH",
"160 800 OFFCURVE",
"193 767 OFFCURVE",
"234 767 CURVE SMOOTH",
"275 767 OFFCURVE",
"308 800 OFFCURVE",
"308 840 CURVE SMOOTH",
"308 881 OFFCURVE",
"275 914 OFFCURVE",
"234 914 CURVE SMOOTH"
);
},
{
closed = 1;
nodes = (
"345 914 OFFCURVE",
"312 881 OFFCURVE",
"312 840 CURVE SMOOTH",
"312 800 OFFCURVE",
"345 767 OFFCURVE",
"386 767 CURVE SMOOTH",
"427 767 OFFCURVE",
"460 800 OFFCURVE",
"460 840 CURVE SMOOTH",
"460 881 OFFCURVE",
"427 914 OFFCURVE",
"386 914 CURVE SMOOTH"
);
}
);
width = 490;
}
);
leftKerningGroup = "= \"@MMK_R_e\"";
rightKerningGroup = "= \"@MMK_L_e\"";
unicode = 00EB;
},
{
glyphname = egrave;
layers = (
{
layerId = "89B76552-B35F-455B-86D9-BC5A433DF1B4";
paths = (
{
closed = 1;
nodes = (
"247 187 LINE SMOOTH",
"227 187 OFFCURVE",
"212 203 OFFCURVE",
"212 222 CURVE SMOOTH",
"212 319 LINE",
"344 319 LINE SMOOTH",
"396 319 OFFCURVE",
"438 361 OFFCURVE",
"438 413 CURVE SMOOTH",
"438 464 OFFCURVE",
"396 506 OFFCURVE",
"344 506 CURVE SMOOTH",
"212 506 LINE",
"212 541 LINE SMOOTH",
"212 560 OFFCURVE",
"227 576 OFFCURVE",
"247 576 CURVE SMOOTH",
"377 576 LINE SMOOTH",
"428 576 OFFCURVE",
"470 618 OFFCURVE",
"470 670 CURVE SMOOTH",
"470 721 OFFCURVE",
"428 763 OFFCURVE",
"377 763 CURVE SMOOTH",
"247 763 LINE SMOOTH",
"124 763 OFFCURVE",
"25 664 OFFCURVE",
"25 541 CURVE SMOOTH",
"25 222 LINE SMOOTH",
"25 100 OFFCURVE",
"124 0 OFFCURVE",
"247 0 CURVE SMOOTH",
"393 0 LINE SMOOTH",
"444 0 OFFCURVE",
"486 42 OFFCURVE",
"486 94 CURVE SMOOTH",
"486 145 OFFCURVE",
"444 187 OFFCURVE",
"393 187 CURVE SMOOTH"
);
},
{
closed = 1;
nodes = (
"247 953 LINE SMOOTH",
"216 975 OFFCURVE",
"174 968 OFFCURVE",
"152 937 CURVE SMOOTH",
"130 907 OFFCURVE",
"137 864 OFFCURVE",
"167 842 CURVE SMOOTH",
"253 780 LINE SMOOTH",
"284 758 OFFCURVE",
"326 765 OFFCURVE",
"348 796 CURVE SMOOTH",
"370 826 OFFCURVE",
"363 869 OFFCURVE",
"333 891 CURVE SMOOTH"
);
}
);
width = 490;
}
);
leftKerningGroup = "= \"@MMK_R_e\"";
rightKerningGroup = "= \"@MMK_L_e\"";
unicode = 00E8;
},
{
glyphname = f;
layers = (
{
layerId = "89B76552-B35F-455B-86D9-BC5A433DF1B4";
paths = (
{
closed = 1;
nodes = (
"380 577 LINE SMOOTH",
"432 577 OFFCURVE",
"474 618 OFFCURVE",
"474 670 CURVE SMOOTH",
"474 722 OFFCURVE",
"432 764 OFFCURVE",
"380 764 CURVE SMOOTH",
"250 764 LINE SMOOTH",
"128 764 OFFCURVE",
"28 664 OFFCURVE",
"28 542 CURVE SMOOTH",
"28 94 LINE SMOOTH",
"28 43 OFFCURVE",
"70 1 OFFCURVE",
"121 1 CURVE SMOOTH",
"173 1 OFFCURVE",
"215 43 OFFCURVE",
"215 94 CURVE SMOOTH",
"215 320 LINE",
"348 320 LINE SMOOTH",
"399 320 OFFCURVE",
"441 362 OFFCURVE",
"441 413 CURVE SMOOTH",
"441 465 OFFCURVE",
"399 507 OFFCURVE",
"348 507 CURVE SMOOTH",
"215 507 LINE",
"215 542 LINE SMOOTH",
"215 561 OFFCURVE",
"231 577 OFFCURVE",
"250 577 CURVE SMOOTH"
);
}
);
width = 474;
}
);
leftKerningGroup = "= \"@MMK_R_F\"";
rightKerningGroup = "= \"@MMK_L_F\"";
unicode = 0066;
},
{
glyphname = g;
layers = (
{
layerId = "89B76552-B35F-455B-86D9-BC5A433DF1B4";
paths = (
{
closed = 1;
nodes = (
"548 433 OFFCURVE",
"506 475 OFFCURVE",
"455 475 CURVE SMOOTH",
"308 475 LINE SMOOTH",
"257 475 OFFCURVE",
"215 433 OFFCURVE",
"215 381 CURVE SMOOTH",
"215 329 OFFCURVE",
"257 287 OFFCURVE",
"308 287 CURVE SMOOTH",
"361 287 LINE",
"361 244 LINE SMOOTH",
"361 203 OFFCURVE",
"327 169 OFFCURVE",
"286 169 CURVE SMOOTH",
"245 169 OFFCURVE",
"211 203 OFFCURVE",
"211 244 CURVE SMOOTH",
"211 518 LINE SMOOTH",
"211 559 OFFCURVE",
"245 593 OFFCURVE",
"286 593 CURVE SMOOTH",
"318 593 OFFCURVE",
"347 573 OFFCURVE",
"357 542 CURVE SMOOTH",
"374 493 OFFCURVE",
"427 467 OFFCURVE",
"476 484 CURVE SMOOTH",
"525 501 OFFCURVE",
"551 554 OFFCURVE",
"534 603 CURVE SMOOTH",
"498 709 OFFCURVE",
"398 780 OFFCURVE",
"286 780 CURVE SMOOTH",
"142 780 OFFCURVE",
"24 663 OFFCURVE",
"24 518 CURVE SMOOTH",
"24 244 LINE SMOOTH",
"24 100 OFFCURVE",
"142 -18 OFFCURVE",
"286 -18 CURVE SMOOTH",
"431 -18 OFFCURVE",
"548 100 OFFCURVE",
"548 244 CURVE",
"548 244 OFFCURVE",
"548 381 OFFCURVE",
"548 381 CURVE"
);
}
);
width = 568;
}
);
leftKerningGroup = "= \"@MMK_R_zero\"";
rightKerningGroup = "= \"@MMK_L_zero\"";
unicode = 0067;
},
{
glyphname = h;
layers = (
{
layerId = "89B76552-B35F-455B-86D9-BC5A433DF1B4";
paths = (
{
closed = 1;
nodes = (
"381 763 OFFCURVE",
"339 721 OFFCURVE",
"339 670 CURVE SMOOTH",
"339 506 LINE",
"217 506 LINE",
"217 670 LINE SMOOTH",
"217 721 OFFCURVE",
"175 763 OFFCURVE",
"123 763 CURVE SMOOTH",
"71 763 OFFCURVE",
"30 721 OFFCURVE",
"30 670 CURVE SMOOTH",
"30 94 LINE SMOOTH",
"30 42 OFFCURVE",
"71 0 OFFCURVE",
"123 0 CURVE SMOOTH",
"175 0 OFFCURVE",
"217 42 OFFCURVE",
"217 94 CURVE SMOOTH",
"217 319 LINE",
"339 319 LINE",
"339 94 LINE SMOOTH",
"339 42 OFFCURVE",
"381 0 OFFCURVE",
"432 0 CURVE SMOOTH",
"484 0 OFFCURVE",
"526 42 OFFCURVE",
"526 94 CURVE SMOOTH",
"526 670 LINE SMOOTH",
"526 721 OFFCURVE",
"484 763 OFFCURVE",
"432 763 CURVE SMOOTH"
);
}
);
width = 556;
}
);
rightKerningGroup = "= \"@MMK_L_space\"";
unicode = 0068;
},
{
glyphname = i;
layers = (
{
layerId = "89B76552-B35F-455B-86D9-BC5A433DF1B4";
paths = (
{
closed = 1;
nodes = (
"30 94 LINE",
"30 94 LINE",
"30 42 OFFCURVE",
"71 0 OFFCURVE",
"123 0 CURVE SMOOTH",
"175 0 OFFCURVE",
"217 42 OFFCURVE",
"217 94 CURVE",
"217 94 LINE",
"217 670 LINE",
"217 670 LINE",
"217 721 OFFCURVE",
"175 763 OFFCURVE",
"123 763 CURVE SMOOTH",
"71 763 OFFCURVE",
"30 721 OFFCURVE",
"30 670 CURVE SMOOTH"
);
}
);
width = 247;
}
);
rightKerningGroup = "= \"@MMK_L_space\"";
unicode = 0069;
},
{
glyphname = iacute;
layers = (
{
layerId = "89B76552-B35F-455B-86D9-BC5A433DF1B4";
paths = (
{
closed = 1;
nodes = (
"30 94 LINE",
"30 94 LINE",
"30 42 OFFCURVE",
"71 0 OFFCURVE",
"123 0 CURVE SMOOTH",
"175 0 OFFCURVE",
"217 42 OFFCURVE",
"217 94 CURVE",
"217 94 LINE",
"217 670 LINE",
"217 670 LINE",
"217 721 OFFCURVE",
"175 763 OFFCURVE",
"123 763 CURVE SMOOTH",
"71 763 OFFCURVE",
"30 721 OFFCURVE",
"30 670 CURVE SMOOTH"
);
},
{
closed = 1;
nodes = (
"83 890 LINE",
"83 890 LINE",
"52 868 OFFCURVE",
"45 826 OFFCURVE",
"67 795 CURVE SMOOTH",
"89 765 OFFCURVE",
"132 758 OFFCURVE",
"162 780 CURVE SMOOTH",
"248 842 LINE SMOOTH",
"279 864 OFFCURVE",
"286 906 OFFCURVE",
"264 937 CURVE SMOOTH",
"242 967 OFFCURVE",
"199 974 OFFCURVE",
"169 952 CURVE SMOOTH"
);
}
);
width = 247;
}
);
rightKerningGroup = "= \"@MMK_L_space\"";
unicode = 00ED;
},
{
glyphname = icircumflex;
layers = (
{
layerId = "89B76552-B35F-455B-86D9-BC5A433DF1B4";
paths = (
{
closed = 1;
nodes = (
"30 94 LINE",
"30 94 LINE",
"30 42 OFFCURVE",
"71 0 OFFCURVE",
"123 0 CURVE SMOOTH",
"175 0 OFFCURVE",
"217 42 OFFCURVE",
"217 94 CURVE",
"217 94 LINE",
"217 670 LINE",
"217 670 LINE",
"217 721 OFFCURVE",
"175 763 OFFCURVE",
"123 763 CURVE SMOOTH",
"71 763 OFFCURVE",
"30 721 OFFCURVE",
"30 670 CURVE SMOOTH"
);
},
{
closed = 1;
nodes = (
"163 928 LINE SMOOTH",
"139 945 OFFCURVE",
"107 945 OFFCURVE",
"83 928 CURVE SMOOTH",
"-3 866 LINE SMOOTH",
"-34 844 OFFCURVE",
"-40 802 OFFCURVE",
"-19 771 CURVE",
"3 741 OFFCURVE",
"46 734 OFFCURVE",
"76 756 CURVE SMOOTH",
"123 789 LINE",
"169 756 LINE SMOOTH",
"200 734 OFFCURVE",
"242 741 OFFCURVE",
"264 771 CURVE SMOOTH",
"286 802 OFFCURVE",
"279 844 OFFCURVE",
"249 866 CURVE SMOOTH"
);
}
);
width = 247;
}
);
rightKerningGroup = "= \"@MMK_L_space\"";
unicode = 00EE;
},
{
glyphname = idieresis;
layers = (
{
layerId = "89B76552-B35F-455B-86D9-BC5A433DF1B4";
paths = (
{
closed = 1;
nodes = (
"6 896 OFFCURVE",
"-27 863 OFFCURVE",
"-27 822 CURVE SMOOTH",
"-27 782 OFFCURVE",
"6 749 OFFCURVE",
"47 749 CURVE SMOOTH",
"88 749 OFFCURVE",
"121 782 OFFCURVE",
"121 822 CURVE SMOOTH",
"121 863 OFFCURVE",
"88 896 OFFCURVE",
"47 896 CURVE SMOOTH"
);
},
{
closed = 1;
nodes = (
"158 896 OFFCURVE",
"125 863 OFFCURVE",
"125 822 CURVE SMOOTH",
"125 782 OFFCURVE",
"158 749 OFFCURVE",
"199 749 CURVE SMOOTH",
"240 749 OFFCURVE",
"273 782 OFFCURVE",
"273 822 CURVE SMOOTH",
"273 863 OFFCURVE",
"240 896 OFFCURVE",
"199 896 CURVE SMOOTH"
);
},
{
closed = 1;
nodes = (
"30 94 LINE",
"30 94 LINE",
"30 42 OFFCURVE",
"71 0 OFFCURVE",
"123 0 CURVE SMOOTH",
"175 0 OFFCURVE",
"217 42 OFFCURVE",
"217 94 CURVE",
"217 94 LINE",
"217 670 LINE",
"217 670 LINE",
"217 721 OFFCURVE",
"175 763 OFFCURVE",
"123 763 CURVE SMOOTH",
"71 763 OFFCURVE",
"30 721 OFFCURVE",
"30 670 CURVE SMOOTH"
);
}
);
width = 247;
}
);
rightKerningGroup = "= \"@MMK_L_space\"";
unicode = 00EF;
},
{
glyphname = igrave;
layers = (
{
layerId = "89B76552-B35F-455B-86D9-BC5A433DF1B4";
paths = (
{
closed = 1;
nodes = (
"30 94 LINE",
"30 94 LINE",
"30 42 OFFCURVE",
"71 0 OFFCURVE",
"123 0 CURVE SMOOTH",
"175 0 OFFCURVE",
"217 42 OFFCURVE",
"217 94 CURVE",
"217 94 LINE",
"217 670 LINE",
"217 670 LINE",
"217 721 OFFCURVE",
"175 763 OFFCURVE",
"123 763 CURVE SMOOTH",
"71 763 OFFCURVE",
"30 721 OFFCURVE",
"30 670 CURVE SMOOTH"
);
},
{
closed = 1;
nodes = (
"78 953 LINE SMOOTH",
"47 975 OFFCURVE",
"5 968 OFFCURVE",
"-17 937 CURVE SMOOTH",
"-39 907 OFFCURVE",
"-32 864 OFFCURVE",
"-2 842 CURVE SMOOTH",
"84 780 LINE SMOOTH",
"115 758 OFFCURVE",
"157 765 OFFCURVE",
"179 796 CURVE SMOOTH",
"201 826 OFFCURVE",
"194 869 OFFCURVE",
"164 891 CURVE SMOOTH"
);
}
);
width = 247;
}
);
rightKerningGroup = "= \"@MMK_L_space\"";
unicode = 00EC;
},
{
glyphname = j;
layers = (
{
layerId = "89B76552-B35F-455B-86D9-BC5A433DF1B4";
paths = (
{
closed = 1;
nodes = (
"11 291 OFFCURVE",
"8 268 OFFCURVE",
"8 244 CURVE SMOOTH",
"8 100 OFFCURVE",
"125 -18 OFFCURVE",
"270 -18 CURVE SMOOTH",
"414 -18 OFFCURVE",
"532 100 OFFCURVE",
"532 244 CURVE SMOOTH",
"532 669 LINE",
"532 669 LINE",
"532 721 OFFCURVE",
"490 763 OFFCURVE",
"438 763 CURVE SMOOTH",
"387 763 OFFCURVE",
"345 721 OFFCURVE",
"345 669 CURVE",
"345 669 LINE",
"345 244 LINE SMOOTH",
"345 203 OFFCURVE",
"311 169 OFFCURVE",
"270 169 CURVE SMOOTH",
"228 169 OFFCURVE",
"195 203 OFFCURVE",
"195 244 CURVE SMOOTH",
"195 251 OFFCURVE",
"196 258 OFFCURVE",
"197 264 CURVE",
"197 264 LINE",
"211 314 OFFCURVE",
"182 365 OFFCURVE",
"132 379 CURVE SMOOTH",
"82 393 OFFCURVE",
"30 363 OFFCURVE",
"17 313 CURVE SMOOTH"
);
}
);
width = 560;
}
);
leftKerningGroup = "= \"@MMK_R_J\"";
rightKerningGroup = "= \"@MMK_L_J\"";
unicode = 006A;
},
{
glyphname = k;
layers = (
{
layerId = "89B76552-B35F-455B-86D9-BC5A433DF1B4";
paths = (
{
closed = 1;
nodes = (
"520 620 LINE SMOOTH",
"547 664 OFFCURVE",
"534 722 OFFCURVE",
"490 749 CURVE SMOOTH",
"446 776 OFFCURVE",
"388 762 OFFCURVE",
"361 718 CURVE SMOOTH",
"220 488 LINE",
"217 488 LINE",
"217 669 LINE SMOOTH",
"217 721 OFFCURVE",
"175 762 OFFCURVE",
"124 762 CURVE SMOOTH",
"72 762 OFFCURVE",
"30 721 OFFCURVE",
"30 669 CURVE SMOOTH",
"30 93 LINE SMOOTH",
"30 41 OFFCURVE",
"72 0 OFFCURVE",
"124 0 CURVE SMOOTH",
"175 0 OFFCURVE",
"217 41 OFFCURVE",
"217 93 CURVE SMOOTH",
"217 301 LINE",
"286 301 LINE SMOOTH",
"327 301 OFFCURVE",
"361 268 OFFCURVE",
"361 226 CURVE SMOOTH",
"361 93 LINE SMOOTH",
"361 41 OFFCURVE",
"403 0 OFFCURVE",
"454 0 CURVE SMOOTH",
"506 0 OFFCURVE",
"548 41 OFFCURVE",
"548 93 CURVE SMOOTH",
"548 226 LINE SMOOTH",
"548 323 OFFCURVE",
"495 407 OFFCURVE",
"417 453 CURVE"
);
}
);
width = 563;
}
);
rightKerningGroup = "= \"@MMK_L_space\"";
unicode = 006B;
},
{
glyphname = l;
layers = (
{
layerId = "89B76552-B35F-455B-86D9-BC5A433DF1B4";
paths = (
{
closed = 1;
nodes = (
"217 187 LINE",
"217 670 LINE SMOOTH",
"217 721 OFFCURVE",
"175 763 OFFCURVE",
"123 763 CURVE SMOOTH",
"72 763 OFFCURVE",
"30 721 OFFCURVE",
"30 670 CURVE SMOOTH",
"30 94 LINE SMOOTH",
"30 42 OFFCURVE",
"72 0 OFFCURVE",
"123 0 CURVE SMOOTH",
"400 0 LINE SMOOTH",
"452 0 OFFCURVE",
"494 42 OFFCURVE",
"494 94 CURVE SMOOTH",
"494 146 OFFCURVE",
"452 187 OFFCURVE",
"400 187 CURVE SMOOTH"
);
}
);
width = 494;
}
);
rightKerningGroup = "= \"@MMK_L_space\"";
unicode = 006C;
},
{
glyphname = m;
layers = (
{
layerId = "89B76552-B35F-455B-86D9-BC5A433DF1B4";
paths = (
{
closed = 1;
nodes = (
"653 682 LINE SMOOTH",
"647 725 OFFCURVE",
"613 758 OFFCURVE",
"570 763 CURVE SMOOTH",
"528 767 OFFCURVE",
"487 742 OFFCURVE",
"473 702 CURVE SMOOTH",
"374 435 LINE",
"276 702 LINE SMOOTH",
"261 742 OFFCURVE",
"221 767 OFFCURVE",
"178 763 CURVE SMOOTH",
"136 758 OFFCURVE",
"102 725 OFFCURVE",
"96 682 CURVE SMOOTH",
"16 106 LINE SMOOTH",
"9 55 OFFCURVE",
"45 8 OFFCURVE",
"96 1 CURVE SMOOTH",
"147 -6 OFFCURVE",
"195 30 OFFCURVE",
"202 81 CURVE SMOOTH",
"230 285 LINE",
"287 131 LINE SMOOTH",
"300 94 OFFCURVE",
"335 70 OFFCURVE",
"374 70 CURVE SMOOTH",
"414 70 OFFCURVE",
"449 94 OFFCURVE",
"462 131 CURVE SMOOTH",
"519 285 LINE",
"547 81 LINE SMOOTH",
"554 30 OFFCURVE",
"601 -6 OFFCURVE",
"653 1 CURVE SMOOTH",
"704 8 OFFCURVE",
"740 55 OFFCURVE",
"732 106 CURVE SMOOTH"
);
}
);
width = 749;
}
);
leftKerningGroup = "= \"@MMK_R_m\"";
rightKerningGroup = "= \"@MMK_L_m\"";
unicode = 006D;
},
{
glyphname = n;
layers = (
{
layerId = "89B76552-B35F-455B-86D9-BC5A433DF1B4";
paths = (
{
closed = 1;
nodes = (
"405 763 OFFCURVE",
"363 721 OFFCURVE",
"363 669 CURVE SMOOTH",
"363 441 LINE",
"204 716 LINE SMOOTH",
"183 752 OFFCURVE",
"140 770 OFFCURVE",
"99 759 CURVE SMOOTH",
"58 748 OFFCURVE",
"30 711 OFFCURVE",
"30 669 CURVE SMOOTH",
"30 93 LINE SMOOTH",
"30 42 OFFCURVE",
"72 0 OFFCURVE",
"123 0 CURVE SMOOTH",
"175 0 OFFCURVE",
"217 42 OFFCURVE",
"217 93 CURVE SMOOTH",
"217 321 LINE",
"376 46 LINE SMOOTH",
"397 10 OFFCURVE",
"440 -8 OFFCURVE",
"481 3 CURVE SMOOTH",
"522 14 OFFCURVE",
"550 51 OFFCURVE",
"550 93 CURVE SMOOTH",
"550 669 LINE SMOOTH",
"550 721 OFFCURVE",
"508 763 OFFCURVE",
"457 763 CURVE SMOOTH"
);
}
);
width = 580;
}
);
rightKerningGroup = "= \"@MMK_L_space\"";
unicode = 006E;
},
{
glyphname = ntilde;
layers = (
{
layerId = "89B76552-B35F-455B-86D9-BC5A433DF1B4";
paths = (
{
closed = 1;
nodes = (
"405 763 OFFCURVE",
"363 721 OFFCURVE",
"363 669 CURVE SMOOTH",
"363 441 LINE",
"204 716 LINE SMOOTH",
"183 752 OFFCURVE",
"140 770 OFFCURVE",
"99 759 CURVE SMOOTH",
"58 748 OFFCURVE",
"30 711 OFFCURVE",
"30 669 CURVE SMOOTH",
"30 93 LINE SMOOTH",
"30 42 OFFCURVE",
"72 0 OFFCURVE",
"123 0 CURVE SMOOTH",
"175 0 OFFCURVE",
"217 42 OFFCURVE",
"217 93 CURVE SMOOTH",
"217 321 LINE",
"376 46 LINE SMOOTH",
"397 10 OFFCURVE",
"440 -8 OFFCURVE",
"481 3 CURVE SMOOTH",
"522 14 OFFCURVE",
"550 51 OFFCURVE",
"550 93 CURVE SMOOTH",
"550 669 LINE SMOOTH",
"550 721 OFFCURVE",
"508 763 OFFCURVE",
"457 763 CURVE SMOOTH"
);
},
{
closed = 1;
nodes = (
"389 915 OFFCURVE",
"360 904 OFFCURVE",
"343 882 CURVE",
"342 883 OFFCURVE",
"340 884 OFFCURVE",
"339 884 CURVE",
"334 887 LINE",
"334 887 OFFCURVE",
"330 889 OFFCURVE",
"330 889 CURVE",
"312 898 OFFCURVE",
"280 914 OFFCURVE",
"236 909 CURVE SMOOTH",
"184 902 OFFCURVE",
"154 862 OFFCURVE",
"145 830 CURVE SMOOTH",
"134 794 OFFCURVE",
"154 756 OFFCURVE",
"190 745 CURVE SMOOTH",
"218 736 OFFCURVE",
"248 747 OFFCURVE",
"264 769 CURVE",
"266 769 OFFCURVE",
"267 768 OFFCURVE",
"269 767 CURVE SMOOTH",
"273 765 LINE",
"273 765 OFFCURVE",
"277 763 OFFCURVE",
"277 763 CURVE",
"296 754 OFFCURVE",
"327 738 OFFCURVE",
"371 743 CURVE SMOOTH",
"423 749 OFFCURVE",
"453 789 OFFCURVE",
"463 822 CURVE SMOOTH",
"474 858 OFFCURVE",
"453 896 OFFCURVE",
"417 907 CURVE SMOOTH"
);
}
);
width = 580;
}
);
rightKerningGroup = "= \"@MMK_L_space\"";
unicode = 00F1;
},
{
glyphname = o;
layers = (
{
layerId = "89B76552-B35F-455B-86D9-BC5A433DF1B4";
paths = (
{
closed = 1;
nodes = (
"361 244 LINE SMOOTH",
"361 203 OFFCURVE",
"327 169 OFFCURVE",
"286 169 CURVE SMOOTH",
"245 169 OFFCURVE",
"211 203 OFFCURVE",
"211 244 CURVE SMOOTH",
"211 518 LINE SMOOTH",
"211 559 OFFCURVE",
"245 593 OFFCURVE",
"286 593 CURVE SMOOTH",
"327 593 OFFCURVE",
"361 559 OFFCURVE",
"361 518 CURVE SMOOTH"
);
},
{
closed = 1;
nodes = (
"548 518 LINE SMOOTH",
"548 662 OFFCURVE",
"431 780 OFFCURVE",
"286 780 CURVE SMOOTH",
"142 780 OFFCURVE",
"24 662 OFFCURVE",
"24 518 CURVE SMOOTH",
"24 244 LINE SMOOTH",
"24 99 OFFCURVE",
"142 -18 OFFCURVE",
"286 -18 CURVE SMOOTH",
"431 -18 OFFCURVE",
"548 99 OFFCURVE",
"548 244 CURVE SMOOTH"
);
}
);
width = 572;
}
);
leftKerningGroup = "= \"@MMK_R_zero\"";
rightKerningGroup = "= \"@MMK_L_zero\"";
unicode = 006F;
},
{
glyphname = oacute;
layers = (
{
layerId = "89B76552-B35F-455B-86D9-BC5A433DF1B4";
paths = (
{
closed = 1;
nodes = (
"361 244 LINE SMOOTH",
"361 203 OFFCURVE",
"327 169 OFFCURVE",
"286 169 CURVE SMOOTH",
"245 169 OFFCURVE",
"211 203 OFFCURVE",
"211 244 CURVE SMOOTH",
"211 518 LINE SMOOTH",
"211 559 OFFCURVE",
"245 593 OFFCURVE",
"286 593 CURVE SMOOTH",
"327 593 OFFCURVE",
"361 559 OFFCURVE",
"361 518 CURVE SMOOTH"
);
},
{
closed = 1;
nodes = (
"548 518 LINE SMOOTH",
"548 662 OFFCURVE",
"431 780 OFFCURVE",
"286 780 CURVE SMOOTH",
"142 780 OFFCURVE",
"24 662 OFFCURVE",
"24 518 CURVE SMOOTH",
"24 244 LINE SMOOTH",
"24 99 OFFCURVE",
"142 -18 OFFCURVE",
"286 -18 CURVE SMOOTH",
"431 -18 OFFCURVE",
"548 99 OFFCURVE",
"548 244 CURVE SMOOTH"
);
},
{
closed = 1;
nodes = (
"351 890 LINE",
"351 890 LINE",
"320 868 OFFCURVE",
"313 826 OFFCURVE",
"335 795 CURVE SMOOTH",
"357 765 OFFCURVE",
"400 758 OFFCURVE",
"430 780 CURVE SMOOTH",
"516 842 LINE SMOOTH",
"547 864 OFFCURVE",
"554 906 OFFCURVE",
"532 937 CURVE SMOOTH",
"510 967 OFFCURVE",
"467 974 OFFCURVE",
"437 952 CURVE SMOOTH"
);
}
);
width = 572;
}
);
leftKerningGroup = "= \"@MMK_R_zero\"";
rightKerningGroup = "= \"@MMK_L_zero\"";
unicode = 00F3;
},
{
glyphname = ocircumflex;
layers = (
{
layerId = "89B76552-B35F-455B-86D9-BC5A433DF1B4";
paths = (
{
closed = 1;
nodes = (
"361 244 LINE SMOOTH",
"361 203 OFFCURVE",
"327 169 OFFCURVE",
"286 169 CURVE SMOOTH",
"245 169 OFFCURVE",
"211 203 OFFCURVE",
"211 244 CURVE SMOOTH",
"211 518 LINE SMOOTH",
"211 559 OFFCURVE",
"245 593 OFFCURVE",
"286 593 CURVE SMOOTH",
"327 593 OFFCURVE",
"361 559 OFFCURVE",
"361 518 CURVE SMOOTH"
);
},
{
closed = 1;
nodes = (
"548 518 LINE SMOOTH",
"548 662 OFFCURVE",
"431 780 OFFCURVE",
"286 780 CURVE SMOOTH",
"142 780 OFFCURVE",
"24 662 OFFCURVE",
"24 518 CURVE SMOOTH",
"24 244 LINE SMOOTH",
"24 99 OFFCURVE",
"142 -18 OFFCURVE",
"286 -18 CURVE SMOOTH",
"431 -18 OFFCURVE",
"548 99 OFFCURVE",
"548 244 CURVE SMOOTH"
);
},
{
closed = 1;
nodes = (
"328 959 LINE SMOOTH",
"304 976 OFFCURVE",
"272 976 OFFCURVE",
"248 959 CURVE SMOOTH",
"162 897 LINE SMOOTH",
"131 875 OFFCURVE",
"125 833 OFFCURVE",
"146 802 CURVE",
"168 772 OFFCURVE",
"211 765 OFFCURVE",
"241 787 CURVE SMOOTH",
"288 820 LINE",
"334 787 LINE SMOOTH",
"365 765 OFFCURVE",
"407 772 OFFCURVE",
"429 802 CURVE SMOOTH",
"451 833 OFFCURVE",
"444 875 OFFCURVE",
"414 897 CURVE SMOOTH"
);
}
);
width = 572;
}
);
leftKerningGroup = "= \"@MMK_R_zero\"";
rightKerningGroup = "= \"@MMK_L_zero\"";
unicode = 00F4;
},
{
glyphname = odieresis;
layers = (
{
layerId = "89B76552-B35F-455B-86D9-BC5A433DF1B4";
paths = (
{
closed = 1;
nodes = (
"361 244 LINE SMOOTH",
"361 203 OFFCURVE",
"327 169 OFFCURVE",
"286 169 CURVE SMOOTH",
"245 169 OFFCURVE",
"211 203 OFFCURVE",
"211 244 CURVE SMOOTH",
"211 518 LINE SMOOTH",
"211 559 OFFCURVE",
"245 593 OFFCURVE",
"286 593 CURVE SMOOTH",
"327 593 OFFCURVE",
"361 559 OFFCURVE",
"361 518 CURVE SMOOTH"
);
},
{
closed = 1;
nodes = (
"548 518 LINE SMOOTH",
"548 662 OFFCURVE",
"431 780 OFFCURVE",
"286 780 CURVE SMOOTH",
"142 780 OFFCURVE",
"24 662 OFFCURVE",
"24 518 CURVE SMOOTH",
"24 244 LINE SMOOTH",
"24 99 OFFCURVE",
"142 -18 OFFCURVE",
"286 -18 CURVE SMOOTH",
"431 -18 OFFCURVE",
"548 99 OFFCURVE",
"548 244 CURVE SMOOTH"
);
},
{
closed = 1;
nodes = (
"169 922 OFFCURVE",
"136 889 OFFCURVE",
"136 848 CURVE SMOOTH",
"136 808 OFFCURVE",
"169 775 OFFCURVE",
"210 775 CURVE SMOOTH",
"251 775 OFFCURVE",
"284 808 OFFCURVE",
"284 848 CURVE SMOOTH",
"284 889 OFFCURVE",
"251 922 OFFCURVE",
"210 922 CURVE SMOOTH"
);
},
{
closed = 1;
nodes = (
"321 922 OFFCURVE",
"288 889 OFFCURVE",
"288 848 CURVE SMOOTH",
"288 808 OFFCURVE",
"321 775 OFFCURVE",
"362 775 CURVE SMOOTH",
"403 775 OFFCURVE",
"436 808 OFFCURVE",
"436 848 CURVE SMOOTH",
"436 889 OFFCURVE",
"403 922 OFFCURVE",
"362 922 CURVE SMOOTH"
);
}
);
width = 572;
}
);
leftKerningGroup = "= \"@MMK_R_zero\"";
rightKerningGroup = "= \"@MMK_L_zero\"";
unicode = 00F6;
},
{
glyphname = ograve;
layers = (
{
layerId = "89B76552-B35F-455B-86D9-BC5A433DF1B4";
paths = (
{
closed = 1;
nodes = (
"361 244 LINE SMOOTH",
"361 203 OFFCURVE",
"327 169 OFFCURVE",
"286 169 CURVE SMOOTH",
"245 169 OFFCURVE",
"211 203 OFFCURVE",
"211 244 CURVE SMOOTH",
"211 518 LINE SMOOTH",
"211 559 OFFCURVE",
"245 593 OFFCURVE",
"286 593 CURVE SMOOTH",
"327 593 OFFCURVE",
"361 559 OFFCURVE",
"361 518 CURVE SMOOTH"
);
},
{
closed = 1;
nodes = (
"548 518 LINE SMOOTH",
"548 662 OFFCURVE",
"431 780 OFFCURVE",
"286 780 CURVE SMOOTH",
"142 780 OFFCURVE",
"24 662 OFFCURVE",
"24 518 CURVE SMOOTH",
"24 244 LINE SMOOTH",
"24 99 OFFCURVE",
"142 -18 OFFCURVE",
"286 -18 CURVE SMOOTH",
"431 -18 OFFCURVE",
"548 99 OFFCURVE",
"548 244 CURVE SMOOTH"
);
},
{
closed = 1;
nodes = (
"136 953 LINE SMOOTH",
"105 975 OFFCURVE",
"63 968 OFFCURVE",
"41 937 CURVE SMOOTH",
"19 907 OFFCURVE",
"26 864 OFFCURVE",
"56 842 CURVE SMOOTH",
"142 780 LINE SMOOTH",
"173 758 OFFCURVE",
"215 765 OFFCURVE",
"237 796 CURVE SMOOTH",
"259 826 OFFCURVE",
"252 869 OFFCURVE",
"222 891 CURVE SMOOTH"
);
}
);
width = 572;
}
);
leftKerningGroup = "= \"@MMK_R_zero\"";
rightKerningGroup = "= \"@MMK_L_zero\"";
unicode = 00F2;
},
{
glyphname = oslash;
layers = (
{
layerId = "89B76552-B35F-455B-86D9-BC5A433DF1B4";
paths = (
{
closed = 1;
nodes = (
"557 773 OFFCURVE",
"502 767 OFFCURVE",
"470 731 CURVE",
"427 762 OFFCURVE",
"374 780 OFFCURVE",
"317 780 CURVE SMOOTH",
"172 780 OFFCURVE",
"55 662 OFFCURVE",
"55 518 CURVE SMOOTH",
"55 244 LINE SMOOTH",
"55 227 OFFCURVE",
"56 211 OFFCURVE",
"59 196 CURVE",
"20 144 LINE SMOOTH",
"-12 103 OFFCURVE",
"-4 44 OFFCURVE",
"37 13 CURVE SMOOTH",
"54 0 OFFCURVE",
"74 -6 OFFCURVE",
"94 -6 CURVE SMOOTH",
"122 -6 OFFCURVE",
"149 6 OFFCURVE",
"167 29 CURVE",
"210 -1 OFFCURVE",
"261 -18 OFFCURVE",
"317 -18 CURVE SMOOTH",
"461 -18 OFFCURVE",
"579 99 OFFCURVE",
"579 244 CURVE SMOOTH",
"579 518 LINE SMOOTH",
"579 533 OFFCURVE",
"578 547 OFFCURVE",
"575 561 CURVE",
"614 612 LINE SMOOTH",
"645 653 OFFCURVE",
"638 712 OFFCURVE",
"597 743 CURVE SMOOTH"
);
},
{
closed = 1;
nodes = (
"242 518 LINE SMOOTH",
"242 559 OFFCURVE",
"276 593 OFFCURVE",
"317 593 CURVE SMOOTH",
"331 593 OFFCURVE",
"344 589 OFFCURVE",
"356 582 CURVE",
"242 434 LINE"
);
},
{
closed = 1;
nodes = (
"392 244 LINE SMOOTH",
"392 202 OFFCURVE",
"358 169 OFFCURVE",
"317 169 CURVE SMOOTH",
"304 169 OFFCURVE",
"292 172 OFFCURVE",
"281 178 CURVE",
"392 322 LINE"
);
}
);
width = 634;
}
);
leftKerningGroup = "= \"@MMK_R_zero\"";
rightKerningGroup = "= \"@MMK_L_zero\"";
unicode = 00F8;
},
{
glyphname = otilde;
layers = (
{
layerId = "89B76552-B35F-455B-86D9-BC5A433DF1B4";
paths = (
{
closed = 1;
nodes = (
"361 244 LINE SMOOTH",
"361 203 OFFCURVE",
"327 169 OFFCURVE",
"286 169 CURVE SMOOTH",
"245 169 OFFCURVE",
"211 203 OFFCURVE",
"211 244 CURVE SMOOTH",
"211 518 LINE SMOOTH",
"211 559 OFFCURVE",
"245 593 OFFCURVE",
"286 593 CURVE SMOOTH",
"327 593 OFFCURVE",
"361 559 OFFCURVE",
"361 518 CURVE SMOOTH"
);
},
{
closed = 1;
nodes = (
"548 518 LINE SMOOTH",
"548 662 OFFCURVE",
"431 780 OFFCURVE",
"286 780 CURVE SMOOTH",
"142 780 OFFCURVE",
"24 662 OFFCURVE",
"24 518 CURVE SMOOTH",
"24 244 LINE SMOOTH",
"24 99 OFFCURVE",
"142 -18 OFFCURVE",
"286 -18 CURVE SMOOTH",
"431 -18 OFFCURVE",
"548 99 OFFCURVE",
"548 244 CURVE SMOOTH"
);
},
{
closed = 1;
nodes = (
"397 949 OFFCURVE",
"368 938 OFFCURVE",
"351 916 CURVE",
"350 917 OFFCURVE",
"348 918 OFFCURVE",
"347 918 CURVE",
"342 921 LINE",
"342 921 OFFCURVE",
"338 923 OFFCURVE",
"338 923 CURVE",
"320 932 OFFCURVE",
"288 948 OFFCURVE",
"244 943 CURVE SMOOTH",
"192 936 OFFCURVE",
"162 896 OFFCURVE",
"153 864 CURVE SMOOTH",
"142 828 OFFCURVE",
"162 790 OFFCURVE",
"198 779 CURVE SMOOTH",
"226 770 OFFCURVE",
"256 781 OFFCURVE",
"272 803 CURVE",
"274 803 OFFCURVE",
"275 802 OFFCURVE",
"277 801 CURVE SMOOTH",
"281 799 LINE",
"281 799 OFFCURVE",
"285 797 OFFCURVE",
"285 797 CURVE",
"304 788 OFFCURVE",
"335 772 OFFCURVE",
"379 777 CURVE SMOOTH",
"431 783 OFFCURVE",
"461 823 OFFCURVE",
"471 856 CURVE SMOOTH",
"482 892 OFFCURVE",
"461 930 OFFCURVE",
"425 941 CURVE SMOOTH"
);
}
);
width = 572;
}
);
leftKerningGroup = "= \"@MMK_R_zero\"";
rightKerningGroup = "= \"@MMK_L_zero\"";
unicode = 00F5;
},
{
glyphname = p;
layers = (
{
layerId = "89B76552-B35F-455B-86D9-BC5A433DF1B4";
paths = (
{
closed = 1;
nodes = (
"123 763 LINE SMOOTH",
"71 763 OFFCURVE",
"30 721 OFFCURVE",
"30 669 CURVE SMOOTH",
"30 93 LINE SMOOTH",
"30 42 OFFCURVE",
"71 0 OFFCURVE",
"123 0 CURVE SMOOTH",
"175 0 OFFCURVE",
"217 42 OFFCURVE",
"217 93 CURVE SMOOTH",
"217 576 LINE",
"268 576 LINE SMOOTH",
"307 576 OFFCURVE",
"338 545 OFFCURVE",
"338 507 CURVE SMOOTH",
"338 476 OFFCURVE",
"318 449 OFFCURVE",
"289 440 CURVE SMOOTH",
"239 426 OFFCURVE",
"210 374 OFFCURVE",
"225 324 CURVE SMOOTH",
"239 274 OFFCURVE",
"291 246 OFFCURVE",
"341 260 CURVE SMOOTH",
"451 293 OFFCURVE",
"525 392 OFFCURVE",
"525 507 CURVE SMOOTH",
"525 648 OFFCURVE",
"410 763 OFFCURVE",
"268 763 CURVE SMOOTH"
);
}
);
width = 533;
}
);
rightKerningGroup = "= \"@MMK_L_P\"";
unicode = 0070;
},
{
glyphname = q;
layers = (
{
layerId = "89B76552-B35F-455B-86D9-BC5A433DF1B4";
paths = (
{
closed = 1;
nodes = (
"534 160 LINE",
"543 186 OFFCURVE",
"548 215 OFFCURVE",
"548 244 CURVE SMOOTH",
"548 500 LINE SMOOTH",
"548 645 OFFCURVE",
"430 762 OFFCURVE",
"286 762 CURVE SMOOTH",
"141 762 OFFCURVE",
"23 645 OFFCURVE",
"23 500 CURVE SMOOTH",
"23 244 LINE SMOOTH",
"23 100 OFFCURVE",
"141 -18 OFFCURVE",
"286 -18 CURVE SMOOTH",
"332 -18 OFFCURVE",
"376 -6 OFFCURVE",
"413 16 CURVE",
"427 2 LINE SMOOTH",
"445 -16 OFFCURVE",
"469 -25 OFFCURVE",
"493 -25 CURVE SMOOTH",
"517 -25 OFFCURVE",
"541 -16 OFFCURVE",
"559 2 CURVE SMOOTH",
"596 39 OFFCURVE",
"596 98 OFFCURVE",
"559 134 CURVE SMOOTH"
);
},
{
closed = 1;
nodes = (
"211 500 LINE SMOOTH",
"211 541 OFFCURVE",
"244 575 OFFCURVE",
"286 575 CURVE SMOOTH",
"327 575 OFFCURVE",
"361 541 OFFCURVE",
"361 500 CURVE SMOOTH",
"361 287 LINE",
"339 286 OFFCURVE",
"318 277 OFFCURVE",
"301 260 CURVE SMOOTH",
"277 236 OFFCURVE",
"269 201 OFFCURVE",
"277 170 CURVE",
"240 174 OFFCURVE",
"211 206 OFFCURVE",
"211 244 CURVE SMOOTH"
);
}
);
width = 577;
}
);
leftKerningGroup = "= \"@MMK_R_zero\"";
rightKerningGroup = "= \"@MMK_L_zero\"";
unicode = 0071;
},
{
glyphname = r;
layers = (
{
layerId = "89B76552-B35F-455B-86D9-BC5A433DF1B4";
paths = (
{
closed = 1;
nodes = (
"525 648 OFFCURVE",
"410 763 OFFCURVE",
"268 763 CURVE SMOOTH",
"124 763 LINE SMOOTH",
"72 763 OFFCURVE",
"30 721 OFFCURVE",
"30 669 CURVE SMOOTH",
"30 93 LINE SMOOTH",
"30 42 OFFCURVE",
"72 0 OFFCURVE",
"124 0 CURVE SMOOTH",
"176 0 OFFCURVE",
"217 42 OFFCURVE",
"217 93 CURVE SMOOTH",
"217 576 LINE",
"268 576 LINE SMOOTH",
"307 576 OFFCURVE",
"338 545 OFFCURVE",
"338 507 CURVE SMOOTH",
"338 475 OFFCURVE",
"318 449 OFFCURVE",
"288 440 CURVE SMOOTH",
"247 428 OFFCURVE",
"220 390 OFFCURVE",
"221 347 CURVE SMOOTH",
"222 305 OFFCURVE",
"252 268 OFFCURVE",
"294 259 CURVE SMOOTH",
"333 250 OFFCURVE",
"357 223 OFFCURVE",
"357 188 CURVE SMOOTH",
"357 93 LINE SMOOTH",
"357 42 OFFCURVE",
"399 0 OFFCURVE",
"450 0 CURVE SMOOTH",
"502 0 OFFCURVE",
"544 42 OFFCURVE",
"544 93 CURVE SMOOTH",
"544 188 LINE SMOOTH",
"544 254 OFFCURVE",
"520 313 OFFCURVE",
"479 359 CURVE",
"508 401 OFFCURVE",
"525 452 OFFCURVE",
"525 507 CURVE SMOOTH"
);
}
);
width = 559;
}
);
rightKerningGroup = "= \"@MMK_L_space\"";
unicode = 0072;
},
{
glyphname = s;
layers = (
{
layerId = "89B76552-B35F-455B-86D9-BC5A433DF1B4";
paths = (
{
closed = 1;
nodes = (
"18 260 OFFCURVE",
"18 247 OFFCURVE",
"18 235 CURVE SMOOTH",
"23 90 OFFCURVE",
"145 -23 OFFCURVE",
"290 -18 CURVE SMOOTH",
"360 -16 OFFCURVE",
"425 14 OFFCURVE",
"472 65 CURVE SMOOTH",
"520 116 OFFCURVE",
"545 183 OFFCURVE",
"543 253 CURVE SMOOTH",
"538 398 OFFCURVE",
"416 511 OFFCURVE",
"271 506 CURVE SMOOTH",
"248 506 OFFCURVE",
"228 524 OFFCURVE",
"227 548 CURVE SMOOTH",
"226 571 OFFCURVE",
"245 591 OFFCURVE",
"268 592 CURVE SMOOTH",
"289 593 OFFCURVE",
"307 579 OFFCURVE",
"312 560 CURVE",
"312 560 LINE",
"324 510 OFFCURVE",
"375 479 OFFCURVE",
"425 492 CURVE SMOOTH",
"475 504 OFFCURVE",
"506 555 OFFCURVE",
"493 605 CURVE",
"493 605 LINE",
"467 710 OFFCURVE",
"370 783 OFFCURVE",
"262 779 CURVE SMOOTH",
"135 775 OFFCURVE",
"36 668 OFFCURVE",
"40 541 CURVE SMOOTH",
"44 415 OFFCURVE",
"151 315 OFFCURVE",
"278 319 CURVE SMOOTH",
"319 321 OFFCURVE",
"354 288 OFFCURVE",
"356 247 CURVE",
"356 227 OFFCURVE",
"349 208 OFFCURVE",
"336 193 CURVE",
"322 178 OFFCURVE",
"303 170 OFFCURVE",
"283 169 CURVE SMOOTH",
"242 167 OFFCURVE",
"207 200 OFFCURVE",
"205 242 CURVE",
"205 245 OFFCURVE",
"205 249 OFFCURVE",
"206 252 CURVE",
"206 252 LINE",
"211 304 OFFCURVE",
"174 350 OFFCURVE",
"122 355 CURVE SMOOTH",
"71 360 OFFCURVE",
"25 323 OFFCURVE",
"20 272 CURVE"
);
}
);
width = 554;
}
);
leftKerningGroup = "= \"@MMK_R_eight\"";
rightKerningGroup = "= \"@MMK_L_eight\"";
unicode = 0073;
},
{
glyphname = t;
layers = (
{
layerId = "89B76552-B35F-455B-86D9-BC5A433DF1B4";
paths = (
{
closed = 1;
nodes = (
"94 763 LINE SMOOTH",
"42 763 OFFCURVE",
"0 721 OFFCURVE",
"0 669 CURVE SMOOTH",
"0 618 OFFCURVE",
"42 576 OFFCURVE",
"94 576 CURVE SMOOTH",
"174 576 LINE",
"174 92 LINE SMOOTH",
"174 40 OFFCURVE",
"216 -1 OFFCURVE",
"267 -1 CURVE SMOOTH",
"319 -1 OFFCURVE",
"361 40 OFFCURVE",
"361 92 CURVE SMOOTH",
"361 576 LINE",
"440 576 LINE SMOOTH",
"492 576 OFFCURVE",
"534 618 OFFCURVE",
"534 669 CURVE SMOOTH",
"534 721 OFFCURVE",
"492 763 OFFCURVE",
"440 763 CURVE SMOOTH"
);
}
);
width = 534;
}
);
leftKerningGroup = "= \"@MMK_R_t\"";
rightKerningGroup = "= \"@MMK_L_t\"";
unicode = 0074;
},
{
glyphname = u;
layers = (
{
layerId = "89B76552-B35F-455B-86D9-BC5A433DF1B4";
paths = (
{
closed = 1;
nodes = (
"28 244 LINE SMOOTH",
"28 100 OFFCURVE",
"145 -18 OFFCURVE",
"290 -18 CURVE SMOOTH",
"434 -18 OFFCURVE",
"552 100 OFFCURVE",
"552 244 CURVE SMOOTH",
"552 669 LINE",
"552 669 LINE",
"552 721 OFFCURVE",
"510 762 OFFCURVE",
"459 762 CURVE SMOOTH",
"407 762 OFFCURVE",
"365 721 OFFCURVE",
"365 669 CURVE",
"365 669 LINE",
"365 244 LINE SMOOTH",
"365 203 OFFCURVE",
"331 169 OFFCURVE",
"290 169 CURVE SMOOTH",
"249 169 OFFCURVE",
"215 203 OFFCURVE",
"215 244 CURVE SMOOTH",
"215 669 LINE",
"215 669 LINE",
"215 721 OFFCURVE",
"173 762 OFFCURVE",
"121 762 CURVE SMOOTH",
"70 762 OFFCURVE",
"28 721 OFFCURVE",
"28 669 CURVE SMOOTH"
);
}
);
width = 580;
}
);
leftKerningGroup = "= \"@MMK_R_u\"";
rightKerningGroup = "= \"@MMK_L_u\"";
unicode = 0075;
},
{
glyphname = uacute;
layers = (
{
layerId = "89B76552-B35F-455B-86D9-BC5A433DF1B4";
paths = (
{
closed = 1;
nodes = (
"28 244 LINE SMOOTH",
"28 100 OFFCURVE",
"145 -18 OFFCURVE",
"290 -18 CURVE SMOOTH",
"434 -18 OFFCURVE",
"552 100 OFFCURVE",
"552 244 CURVE SMOOTH",
"552 669 LINE",
"552 669 LINE",
"552 721 OFFCURVE",
"510 762 OFFCURVE",
"459 762 CURVE SMOOTH",
"407 762 OFFCURVE",
"365 721 OFFCURVE",
"365 669 CURVE",
"365 669 LINE",
"365 244 LINE SMOOTH",
"365 203 OFFCURVE",
"331 169 OFFCURVE",
"290 169 CURVE SMOOTH",
"249 169 OFFCURVE",
"215 203 OFFCURVE",
"215 244 CURVE SMOOTH",
"215 669 LINE",
"215 669 LINE",
"215 721 OFFCURVE",
"173 762 OFFCURVE",
"121 762 CURVE SMOOTH",
"70 762 OFFCURVE",
"28 721 OFFCURVE",
"28 669 CURVE SMOOTH"
);
},
{
closed = 1;
nodes = (
"355 876 LINE",
"355 876 LINE",
"324 854 OFFCURVE",
"317 812 OFFCURVE",
"339 781 CURVE SMOOTH",
"361 751 OFFCURVE",
"404 744 OFFCURVE",
"434 766 CURVE SMOOTH",
"520 828 LINE SMOOTH",
"551 850 OFFCURVE",
"558 892 OFFCURVE",
"536 923 CURVE SMOOTH",
"514 953 OFFCURVE",
"471 960 OFFCURVE",
"441 938 CURVE SMOOTH"
);
}
);
width = 580;
}
);
leftKerningGroup = "= \"@MMK_R_u\"";
rightKerningGroup = "= \"@MMK_L_u\"";
unicode = 00FA;
},
{
glyphname = ucircumflex;
layers = (
{
layerId = "89B76552-B35F-455B-86D9-BC5A433DF1B4";
paths = (
{
closed = 1;
nodes = (
"28 244 LINE SMOOTH",
"28 100 OFFCURVE",
"145 -18 OFFCURVE",
"290 -18 CURVE SMOOTH",
"434 -18 OFFCURVE",
"552 100 OFFCURVE",
"552 244 CURVE SMOOTH",
"552 669 LINE",
"552 669 LINE",
"552 721 OFFCURVE",
"510 762 OFFCURVE",
"459 762 CURVE SMOOTH",
"407 762 OFFCURVE",
"365 721 OFFCURVE",
"365 669 CURVE",
"365 669 LINE",
"365 244 LINE SMOOTH",
"365 203 OFFCURVE",
"331 169 OFFCURVE",
"290 169 CURVE SMOOTH",
"249 169 OFFCURVE",
"215 203 OFFCURVE",
"215 244 CURVE SMOOTH",
"215 669 LINE",
"215 669 LINE",
"215 721 OFFCURVE",
"173 762 OFFCURVE",
"121 762 CURVE SMOOTH",
"70 762 OFFCURVE",
"28 721 OFFCURVE",
"28 669 CURVE SMOOTH"
);
},
{
closed = 1;
nodes = (
"330 929 LINE SMOOTH",
"306 946 OFFCURVE",
"274 946 OFFCURVE",
"250 929 CURVE SMOOTH",
"164 867 LINE SMOOTH",
"133 845 OFFCURVE",
"127 803 OFFCURVE",
"148 772 CURVE",
"170 742 OFFCURVE",
"213 735 OFFCURVE",
"243 757 CURVE SMOOTH",
"290 790 LINE",
"336 757 LINE SMOOTH",
"367 735 OFFCURVE",
"409 742 OFFCURVE",
"431 772 CURVE SMOOTH",
"453 803 OFFCURVE",
"446 845 OFFCURVE",
"416 867 CURVE SMOOTH"
);
}
);
width = 580;
}
);
leftKerningGroup = "= \"@MMK_R_u\"";
rightKerningGroup = "= \"@MMK_L_u\"";
unicode = 00FB;
},
{
glyphname = udieresis;
layers = (
{
layerId = "89B76552-B35F-455B-86D9-BC5A433DF1B4";
paths = (
{
closed = 1;
nodes = (
"28 244 LINE SMOOTH",
"28 100 OFFCURVE",
"145 -18 OFFCURVE",
"290 -18 CURVE SMOOTH",
"434 -18 OFFCURVE",
"552 100 OFFCURVE",
"552 244 CURVE SMOOTH",
"552 669 LINE",
"552 669 LINE",
"552 721 OFFCURVE",
"510 762 OFFCURVE",
"459 762 CURVE SMOOTH",
"407 762 OFFCURVE",
"365 721 OFFCURVE",
"365 669 CURVE",
"365 669 LINE",
"365 244 LINE SMOOTH",
"365 203 OFFCURVE",
"331 169 OFFCURVE",
"290 169 CURVE SMOOTH",
"249 169 OFFCURVE",
"215 203 OFFCURVE",
"215 244 CURVE SMOOTH",
"215 669 LINE",
"215 669 LINE",
"215 721 OFFCURVE",
"173 762 OFFCURVE",
"121 762 CURVE SMOOTH",
"70 762 OFFCURVE",
"28 721 OFFCURVE",
"28 669 CURVE SMOOTH"
);
},
{
closed = 1;
nodes = (
"173 887 OFFCURVE",
"140 854 OFFCURVE",
"140 813 CURVE SMOOTH",
"140 773 OFFCURVE",
"173 740 OFFCURVE",
"214 740 CURVE SMOOTH",
"255 740 OFFCURVE",
"288 773 OFFCURVE",
"288 813 CURVE SMOOTH",
"288 854 OFFCURVE",
"255 887 OFFCURVE",
"214 887 CURVE SMOOTH"
);
},
{
closed = 1;
nodes = (
"325 887 OFFCURVE",
"292 854 OFFCURVE",
"292 813 CURVE SMOOTH",
"292 773 OFFCURVE",
"325 740 OFFCURVE",
"366 740 CURVE SMOOTH",
"407 740 OFFCURVE",
"440 773 OFFCURVE",
"440 813 CURVE SMOOTH",
"440 854 OFFCURVE",
"407 887 OFFCURVE",
"366 887 CURVE SMOOTH"
);
}
);
width = 580;
}
);
leftKerningGroup = "= \"@MMK_R_u\"";
rightKerningGroup = "= \"@MMK_L_u\"";
unicode = 00FC;
},
{
glyphname = ugrave;
layers = (
{
layerId = "89B76552-B35F-455B-86D9-BC5A433DF1B4";
paths = (
{
closed = 1;
nodes = (
"28 244 LINE SMOOTH",
"28 100 OFFCURVE",
"145 -18 OFFCURVE",
"290 -18 CURVE SMOOTH",
"434 -18 OFFCURVE",
"552 100 OFFCURVE",
"552 244 CURVE SMOOTH",
"552 669 LINE",
"552 669 LINE",
"552 721 OFFCURVE",
"510 762 OFFCURVE",
"459 762 CURVE SMOOTH",
"407 762 OFFCURVE",
"365 721 OFFCURVE",
"365 669 CURVE",
"365 669 LINE",
"365 244 LINE SMOOTH",
"365 203 OFFCURVE",
"331 169 OFFCURVE",
"290 169 CURVE SMOOTH",
"249 169 OFFCURVE",
"215 203 OFFCURVE",
"215 244 CURVE SMOOTH",
"215 669 LINE",
"215 669 LINE",
"215 721 OFFCURVE",
"173 762 OFFCURVE",
"121 762 CURVE SMOOTH",
"70 762 OFFCURVE",
"28 721 OFFCURVE",
"28 669 CURVE SMOOTH"
);
},
{
closed = 1;
nodes = (
"139 939 LINE SMOOTH",
"108 961 OFFCURVE",
"66 954 OFFCURVE",
"44 923 CURVE SMOOTH",
"22 893 OFFCURVE",
"29 850 OFFCURVE",
"59 828 CURVE SMOOTH",
"145 766 LINE SMOOTH",
"176 744 OFFCURVE",
"218 751 OFFCURVE",
"240 782 CURVE SMOOTH",
"262 812 OFFCURVE",
"255 855 OFFCURVE",
"225 877 CURVE SMOOTH"
);
}
);
width = 580;
}
);
leftKerningGroup = "= \"@MMK_R_u\"";
rightKerningGroup = "= \"@MMK_L_u\"";
unicode = 00F9;
},
{
glyphname = utilde;
layers = (
{
layerId = "89B76552-B35F-455B-86D9-BC5A433DF1B4";
paths = (
{
closed = 1;
nodes = (
"28 244 LINE SMOOTH",
"28 100 OFFCURVE",
"145 -18 OFFCURVE",
"290 -18 CURVE SMOOTH",
"434 -18 OFFCURVE",
"552 100 OFFCURVE",
"552 244 CURVE SMOOTH",
"552 669 LINE",
"552 669 LINE",
"552 721 OFFCURVE",
"510 762 OFFCURVE",
"459 762 CURVE SMOOTH",
"407 762 OFFCURVE",
"365 721 OFFCURVE",
"365 669 CURVE",
"365 669 LINE",
"365 244 LINE SMOOTH",
"365 203 OFFCURVE",
"331 169 OFFCURVE",
"290 169 CURVE SMOOTH",
"249 169 OFFCURVE",
"215 203 OFFCURVE",
"215 244 CURVE SMOOTH",
"215 669 LINE",
"215 669 LINE",
"215 721 OFFCURVE",
"173 762 OFFCURVE",
"121 762 CURVE SMOOTH",
"70 762 OFFCURVE",
"28 721 OFFCURVE",
"28 669 CURVE SMOOTH"
);
},
{
closed = 1;
nodes = (
"390 913 OFFCURVE",
"361 902 OFFCURVE",
"344 880 CURVE",
"343 881 OFFCURVE",
"341 882 OFFCURVE",
"340 882 CURVE",
"335 885 LINE",
"335 885 OFFCURVE",
"331 887 OFFCURVE",
"331 887 CURVE",
"313 896 OFFCURVE",
"281 912 OFFCURVE",
"237 907 CURVE SMOOTH",
"185 900 OFFCURVE",
"155 860 OFFCURVE",
"146 828 CURVE SMOOTH",
"135 792 OFFCURVE",
"155 754 OFFCURVE",
"191 743 CURVE SMOOTH",
"219 734 OFFCURVE",
"249 745 OFFCURVE",
"265 767 CURVE",
"267 767 OFFCURVE",
"268 766 OFFCURVE",
"270 765 CURVE SMOOTH",
"274 763 LINE",
"274 763 OFFCURVE",
"278 761 OFFCURVE",
"278 761 CURVE",
"297 752 OFFCURVE",
"328 736 OFFCURVE",
"372 741 CURVE SMOOTH",
"424 747 OFFCURVE",
"454 787 OFFCURVE",
"464 820 CURVE SMOOTH",
"475 856 OFFCURVE",
"454 894 OFFCURVE",
"418 905 CURVE SMOOTH"
);
}
);
width = 580;
}
);
rightKerningGroup = "= \"@MMK_L_space\"";
unicode = 0169;
},
{
glyphname = v;
layers = (
{
layerId = "89B76552-B35F-455B-86D9-BC5A433DF1B4";
paths = (
{
closed = 1;
nodes = (
"446 774 OFFCURVE",
"393 747 OFFCURVE",
"377 698 CURVE SMOOTH",
"280 397 LINE",
"183 698 LINE SMOOTH",
"168 747 OFFCURVE",
"115 774 OFFCURVE",
"66 758 CURVE SMOOTH",
"16 742 OFFCURVE",
"-10 689 OFFCURVE",
"5 640 CURVE SMOOTH",
"191 64 LINE SMOOTH",
"204 26 OFFCURVE",
"240 0 OFFCURVE",
"280 0 CURVE SMOOTH",
"321 0 OFFCURVE",
"357 26 OFFCURVE",
"369 64 CURVE SMOOTH",
"555 640 LINE SMOOTH",
"571 689 OFFCURVE",
"544 742 OFFCURVE",
"495 758 CURVE SMOOTH"
);
}
);
width = 560;
}
);
rightKerningGroup = "= \"@MMK_L_space\"";
unicode = 0076;
},
{
glyphname = w;
layers = (
{
layerId = "89B76552-B35F-455B-86D9-BC5A433DF1B4";
paths = (
{
closed = 1;
nodes = (
"586 769 OFFCURVE",
"539 733 OFFCURVE",
"532 682 CURVE SMOOTH",
"501 454 LINE",
"446 589 LINE SMOOTH",
"432 624 OFFCURVE",
"397 648 OFFCURVE",
"359 648 CURVE SMOOTH",
"321 648 OFFCURVE",
"287 624 OFFCURVE",
"272 589 CURVE SMOOTH",
"218 454 LINE",
"187 682 LINE SMOOTH",
"179 733 OFFCURVE",
"132 769 OFFCURVE",
"81 762 CURVE SMOOTH",
"30 755 OFFCURVE",
"-6 707 OFFCURVE",
"1 656 CURVE SMOOTH",
"81 80 LINE SMOOTH",
"86 38 OFFCURVE",
"120 6 OFFCURVE",
"162 0 CURVE SMOOTH",
"204 -5 OFFCURVE",
"244 19 OFFCURVE",
"260 58 CURVE SMOOTH",
"359 304 LINE",
"459 58 LINE SMOOTH",
"474 19 OFFCURVE",
"515 -5 OFFCURVE",
"557 0 CURVE SMOOTH",
"599 6 OFFCURVE",
"632 38 OFFCURVE",
"638 80 CURVE SMOOTH",
"717 656 LINE SMOOTH",
"724 707 OFFCURVE",
"689 755 OFFCURVE",
"637 762 CURVE SMOOTH"
);
}
);
width = 718;
}
);
rightKerningGroup = "= \"@MMK_L_space\"";
unicode = 0077;
},
{
glyphname = x;
layers = (
{
layerId = "89B76552-B35F-455B-86D9-BC5A433DF1B4";
paths = (
{
closed = 1;
nodes = (
"443 776 OFFCURVE",
"386 761 OFFCURVE",
"360 716 CURVE SMOOTH",
"275 568 LINE",
"190 716 LINE SMOOTH",
"164 761 OFFCURVE",
"107 776 OFFCURVE",
"62 750 CURVE SMOOTH",
"18 724 OFFCURVE",
"2 667 OFFCURVE",
"28 622 CURVE SMOOTH",
"167 381 LINE",
"29 140 LINE",
"29 140 LINE",
"3 95 OFFCURVE",
"18 38 OFFCURVE",
"63 12 CURVE SMOOTH",
"108 -13 OFFCURVE",
"165 2 OFFCURVE",
"191 47 CURVE SMOOTH",
"275 193 LINE",
"359 47 LINE SMOOTH",
"385 2 OFFCURVE",
"442 -13 OFFCURVE",
"487 12 CURVE SMOOTH",
"532 38 OFFCURVE",
"547 95 OFFCURVE",
"521 140 CURVE",
"521 140 LINE",
"383 381 LINE",
"522 622 LINE SMOOTH",
"548 667 OFFCURVE",
"532 724 OFFCURVE",
"488 750 CURVE SMOOTH"
);
}
);
width = 550;
}
);
leftKerningGroup = "= \"@MMK_R_X.alt\"";
rightKerningGroup = "= \"@MMK_L_X.alt\"";
unicode = 0078;
},
{
glyphname = y;
layers = (
{
layerId = "89B76552-B35F-455B-86D9-BC5A433DF1B4";
paths = (
{
closed = 1;
nodes = (
"394 763 OFFCURVE",
"352 721 OFFCURVE",
"352 669 CURVE SMOOTH",
"352 564 LINE SMOOTH",
"352 522 OFFCURVE",
"318 489 OFFCURVE",
"277 489 CURVE SMOOTH",
"235 489 OFFCURVE",
"202 522 OFFCURVE",
"202 564 CURVE SMOOTH",
"202 669 LINE SMOOTH",
"202 721 OFFCURVE",
"160 763 OFFCURVE",
"108 763 CURVE SMOOTH",
"57 763 OFFCURVE",
"15 721 OFFCURVE",
"15 669 CURVE SMOOTH",
"15 564 LINE SMOOTH",
"15 451 OFFCURVE",
"85 356 OFFCURVE",
"185 318 CURVE",
"185 93 LINE SMOOTH",
"185 42 OFFCURVE",
"227 0 OFFCURVE",
"278 0 CURVE SMOOTH",
"330 0 OFFCURVE",
"372 42 OFFCURVE",
"372 93 CURVE SMOOTH",
"372 319 LINE",
"469 357 OFFCURVE",
"539 452 OFFCURVE",
"539 564 CURVE SMOOTH",
"539 669 LINE SMOOTH",
"539 721 OFFCURVE",
"497 763 OFFCURVE",
"445 763 CURVE SMOOTH"
);
}
);
width = 554;
}
);
rightKerningGroup = "= \"@MMK_L_space\"";
unicode = 0079;
},
{
glyphname = z;
layers = (
{
layerId = "89B76552-B35F-455B-86D9-BC5A433DF1B4";
paths = (
{
closed = 1;
nodes = (
"272 187 LINE",
"485 628 LINE SMOOTH",
"499 657 OFFCURVE",
"498 691 OFFCURVE",
"481 719 CURVE",
"463 746 OFFCURVE",
"433 762 OFFCURVE",
"401 762 CURVE SMOOTH",
"146 762 LINE SMOOTH",
"94 762 OFFCURVE",
"53 721 OFFCURVE",
"53 669 CURVE SMOOTH",
"53 617 OFFCURVE",
"94 575 OFFCURVE",
"146 575 CURVE SMOOTH",
"252 575 LINE",
"38 134 LINE SMOOTH",
"24 105 OFFCURVE",
"26 71 OFFCURVE",
"43 43 CURVE SMOOTH",
"60 16 OFFCURVE",
"90 0 OFFCURVE",
"122 0 CURVE SMOOTH",
"416 0 LINE SMOOTH",
"468 0 OFFCURVE",
"510 41 OFFCURVE",
"510 93 CURVE SMOOTH",
"510 145 OFFCURVE",
"468 187 OFFCURVE",
"416 187 CURVE SMOOTH"
);
}
);
width = 522;
}
);
rightKerningGroup = "= \"@MMK_L_space\"";
unicode = 007A;
},
{
glyphname = A.alt1;
layers = (
{
layerId = "89B76552-B35F-455B-86D9-BC5A433DF1B4";
paths = (
{
closed = 1;
nodes = (
"380 700 LINE SMOOTH",
"367 738 OFFCURVE",
"331 763 OFFCURVE",
"291 763 CURVE SMOOTH",
"251 763 OFFCURVE",
"216 738 OFFCURVE",
"203 700 CURVE SMOOTH",
"5 124 LINE SMOOTH",
"-5 93 OFFCURVE",
"1 59 OFFCURVE",
"22 34 CURVE SMOOTH",
"43 9 OFFCURVE",
"75 -3 OFFCURVE",
"107 1 CURVE SMOOTH",
"291 28 LINE SMOOTH",
"342 35 OFFCURVE",
"378 83 OFFCURVE",
"370 134 CURVE SMOOTH",
"363 185 OFFCURVE",
"316 221 OFFCURVE",
"264 213 CURVE SMOOTH",
"232 208 LINE",
"291 381 LINE",
"400 64 LINE SMOOTH",
"417 15 OFFCURVE",
"470 -11 OFFCURVE",
"519 5 CURVE SMOOTH",
"568 22 OFFCURVE",
"594 75 OFFCURVE",
"577 124 CURVE SMOOTH"
);
}
);
width = 583;
}
);
leftKerningGroup = "= \"@MMK_R_Aacute\"";
rightKerningGroup = "= \"@MMK_L_Aacute\"";
},
{
glyphname = A.alt2;
layers = (
{
layerId = "89B76552-B35F-455B-86D9-BC5A433DF1B4";
paths = (
{
closed = 1;
nodes = (
"398 686 LINE SMOOTH",
"383 732 OFFCURVE",
"341 763 OFFCURVE",
"293 763 CURVE SMOOTH",
"244 763 OFFCURVE",
"202 732 OFFCURVE",
"188 687 CURVE SMOOTH",
"5 122 LINE SMOOTH",
"-11 73 OFFCURVE",
"16 20 OFFCURVE",
"65 4 CURVE SMOOTH",
"75 1 OFFCURVE",
"85 0 OFFCURVE",
"94 0 CURVE SMOOTH",
"134 0 OFFCURVE",
"170 25 OFFCURVE",
"183 65 CURVE SMOOTH",
"197 109 LINE",
"388 109 LINE",
"402 65 LINE SMOOTH",
"418 15 OFFCURVE",
"471 -12 OFFCURVE",
"520 4 CURVE SMOOTH",
"569 20 OFFCURVE",
"596 73 OFFCURVE",
"580 122 CURVE SMOOTH"
);
},
{
closed = 1;
nodes = (
"252 279 LINE",
"293 404 LINE",
"333 279 LINE"
);
}
);
width = 585;
}
);
leftKerningGroup = "= \"@MMK_R_A.alt2\"";
rightKerningGroup = "= \"@MMK_L_A.alt2\"";
},
{
glyphname = A.alt2acute;
layers = (
{
layerId = "89B76552-B35F-455B-86D9-BC5A433DF1B4";
paths = (
{
closed = 1;
nodes = (
"398 686 LINE SMOOTH",
"383 732 OFFCURVE",
"341 763 OFFCURVE",
"293 763 CURVE SMOOTH",
"244 763 OFFCURVE",
"202 732 OFFCURVE",
"188 687 CURVE SMOOTH",
"5 122 LINE SMOOTH",
"-11 73 OFFCURVE",
"16 20 OFFCURVE",
"65 4 CURVE SMOOTH",
"75 1 OFFCURVE",
"85 0 OFFCURVE",
"94 0 CURVE SMOOTH",
"134 0 OFFCURVE",
"170 25 OFFCURVE",
"183 65 CURVE SMOOTH",
"197 109 LINE",
"388 109 LINE",
"402 65 LINE SMOOTH",
"418 15 OFFCURVE",
"471 -12 OFFCURVE",
"520 4 CURVE SMOOTH",
"569 20 OFFCURVE",
"596 73 OFFCURVE",
"580 122 CURVE SMOOTH"
);
},
{
closed = 1;
nodes = (
"252 279 LINE",
"293 404 LINE",
"333 279 LINE"
);
},
{
closed = 1;
nodes = (
"262 890 LINE",
"262 890 LINE",
"231 868 OFFCURVE",
"224 826 OFFCURVE",
"246 795 CURVE SMOOTH",
"268 765 OFFCURVE",
"311 758 OFFCURVE",
"341 780 CURVE SMOOTH",
"427 842 LINE SMOOTH",
"458 864 OFFCURVE",
"465 906 OFFCURVE",
"443 937 CURVE SMOOTH",
"421 967 OFFCURVE",
"378 974 OFFCURVE",
"348 952 CURVE SMOOTH"
);
}
);
width = 585;
}
);
leftKerningGroup = "= \"@MMK_R_A.alt2\"";
rightKerningGroup = "= \"@MMK_L_A.alt2\"";
},
{
glyphname = A.alt2circumflex;
layers = (
{
layerId = "89B76552-B35F-455B-86D9-BC5A433DF1B4";
paths = (
{
closed = 1;
nodes = (
"398 686 LINE SMOOTH",
"383 732 OFFCURVE",
"341 763 OFFCURVE",
"293 763 CURVE SMOOTH",
"244 763 OFFCURVE",
"202 732 OFFCURVE",
"188 687 CURVE SMOOTH",
"5 122 LINE SMOOTH",
"-11 73 OFFCURVE",
"16 20 OFFCURVE",
"65 4 CURVE SMOOTH",
"75 1 OFFCURVE",
"85 0 OFFCURVE",
"94 0 CURVE SMOOTH",
"134 0 OFFCURVE",
"170 25 OFFCURVE",
"183 65 CURVE SMOOTH",
"197 109 LINE",
"388 109 LINE",
"402 65 LINE SMOOTH",
"418 15 OFFCURVE",
"471 -12 OFFCURVE",
"520 4 CURVE SMOOTH",
"569 20 OFFCURVE",
"596 73 OFFCURVE",
"580 122 CURVE SMOOTH"
);
},
{
closed = 1;
nodes = (
"252 279 LINE",
"293 404 LINE",
"333 279 LINE"
);
},
{
closed = 1;
nodes = (
"333 930 LINE SMOOTH",
"309 947 OFFCURVE",
"277 947 OFFCURVE",
"253 930 CURVE SMOOTH",
"167 868 LINE SMOOTH",
"136 846 OFFCURVE",
"130 804 OFFCURVE",
"151 773 CURVE",
"173 743 OFFCURVE",
"216 736 OFFCURVE",
"246 758 CURVE SMOOTH",
"293 791 LINE",
"339 758 LINE SMOOTH",
"370 736 OFFCURVE",
"412 743 OFFCURVE",
"434 773 CURVE SMOOTH",
"456 804 OFFCURVE",
"449 846 OFFCURVE",
"419 868 CURVE SMOOTH"
);
}
);
width = 585;
}
);
leftKerningGroup = "= \"@MMK_R_A.alt2\"";
rightKerningGroup = "= \"@MMK_L_A.alt2\"";
},
{
glyphname = A.alt2dieresis;
layers = (
{
layerId = "89B76552-B35F-455B-86D9-BC5A433DF1B4";
paths = (
{
closed = 1;
nodes = (
"398 686 LINE SMOOTH",
"383 732 OFFCURVE",
"341 763 OFFCURVE",
"293 763 CURVE SMOOTH",
"244 763 OFFCURVE",
"202 732 OFFCURVE",
"188 687 CURVE SMOOTH",
"5 122 LINE SMOOTH",
"-11 73 OFFCURVE",
"16 20 OFFCURVE",
"65 4 CURVE SMOOTH",
"75 1 OFFCURVE",
"85 0 OFFCURVE",
"94 0 CURVE SMOOTH",
"134 0 OFFCURVE",
"170 25 OFFCURVE",
"183 65 CURVE SMOOTH",
"197 109 LINE",
"388 109 LINE",
"402 65 LINE SMOOTH",
"418 15 OFFCURVE",
"471 -12 OFFCURVE",
"520 4 CURVE SMOOTH",
"569 20 OFFCURVE",
"596 73 OFFCURVE",
"580 122 CURVE SMOOTH"
);
},
{
closed = 1;
nodes = (
"252 279 LINE",
"293 404 LINE",
"333 279 LINE"
);
},
{
closed = 1;
nodes = (
"176 898 OFFCURVE",
"143 865 OFFCURVE",
"143 824 CURVE SMOOTH",
"143 784 OFFCURVE",
"176 751 OFFCURVE",
"217 751 CURVE SMOOTH",
"258 751 OFFCURVE",
"291 784 OFFCURVE",
"291 824 CURVE SMOOTH",
"291 865 OFFCURVE",
"258 898 OFFCURVE",
"217 898 CURVE SMOOTH"
);
},
{
closed = 1;
nodes = (
"328 898 OFFCURVE",
"295 865 OFFCURVE",
"295 824 CURVE SMOOTH",
"295 784 OFFCURVE",
"328 751 OFFCURVE",
"369 751 CURVE SMOOTH",
"410 751 OFFCURVE",
"443 784 OFFCURVE",
"443 824 CURVE SMOOTH",
"443 865 OFFCURVE",
"410 898 OFFCURVE",
"369 898 CURVE SMOOTH"
);
}
);
width = 585;
}
);
leftKerningGroup = "= \"@MMK_R_A.alt2\"";
rightKerningGroup = "= \"@MMK_L_A.alt2\"";
},
{
glyphname = A.alt2grave;
layers = (
{
layerId = "89B76552-B35F-455B-86D9-BC5A433DF1B4";
paths = (
{
closed = 1;
nodes = (
"398 686 LINE SMOOTH",
"383 732 OFFCURVE",
"341 763 OFFCURVE",
"293 763 CURVE SMOOTH",
"244 763 OFFCURVE",
"202 732 OFFCURVE",
"188 687 CURVE SMOOTH",
"5 122 LINE SMOOTH",
"-11 73 OFFCURVE",
"16 20 OFFCURVE",
"65 4 CURVE SMOOTH",
"75 1 OFFCURVE",
"85 0 OFFCURVE",
"94 0 CURVE SMOOTH",
"134 0 OFFCURVE",
"170 25 OFFCURVE",
"183 65 CURVE SMOOTH",
"197 109 LINE",
"388 109 LINE",
"402 65 LINE SMOOTH",
"418 15 OFFCURVE",
"471 -12 OFFCURVE",
"520 4 CURVE SMOOTH",
"569 20 OFFCURVE",
"596 73 OFFCURVE",
"580 122 CURVE SMOOTH"
);
},
{
closed = 1;
nodes = (
"252 279 LINE",
"293 404 LINE",
"333 279 LINE"
);
},
{
closed = 1;
nodes = (
"248 953 LINE SMOOTH",
"217 975 OFFCURVE",
"175 968 OFFCURVE",
"153 937 CURVE SMOOTH",
"131 907 OFFCURVE",
"138 864 OFFCURVE",
"168 842 CURVE SMOOTH",
"254 780 LINE SMOOTH",
"285 758 OFFCURVE",
"327 765 OFFCURVE",
"349 796 CURVE SMOOTH",
"371 826 OFFCURVE",
"364 869 OFFCURVE",
"334 891 CURVE SMOOTH"
);
}
);
width = 585;
}
);
leftKerningGroup = "= \"@MMK_R_A.alt2\"";
rightKerningGroup = "= \"@MMK_L_A.alt2\"";
},
{
glyphname = A.alt2tilde;
layers = (
{
layerId = "89B76552-B35F-455B-86D9-BC5A433DF1B4";
paths = (
{
closed = 1;
nodes = (
"398 686 LINE SMOOTH",
"383 732 OFFCURVE",
"341 763 OFFCURVE",
"293 763 CURVE SMOOTH",
"244 763 OFFCURVE",
"202 732 OFFCURVE",
"188 687 CURVE SMOOTH",
"5 122 LINE SMOOTH",
"-11 73 OFFCURVE",
"16 20 OFFCURVE",
"65 4 CURVE SMOOTH",
"75 1 OFFCURVE",
"85 0 OFFCURVE",
"94 0 CURVE SMOOTH",
"134 0 OFFCURVE",
"170 25 OFFCURVE",
"183 65 CURVE SMOOTH",
"197 109 LINE",
"388 109 LINE",
"402 65 LINE SMOOTH",
"418 15 OFFCURVE",
"471 -12 OFFCURVE",
"520 4 CURVE SMOOTH",
"569 20 OFFCURVE",
"596 73 OFFCURVE",
"580 122 CURVE SMOOTH"
);
},
{
closed = 1;
nodes = (
"252 279 LINE",
"293 404 LINE",
"333 279 LINE"
);
},
{
closed = 1;
nodes = (
"383 934 OFFCURVE",
"354 923 OFFCURVE",
"337 901 CURVE",
"336 902 OFFCURVE",
"334 903 OFFCURVE",
"333 903 CURVE",
"328 906 LINE",
"328 906 OFFCURVE",
"324 908 OFFCURVE",
"324 908 CURVE",
"306 917 OFFCURVE",
"274 933 OFFCURVE",
"230 928 CURVE SMOOTH",
"178 921 OFFCURVE",
"148 881 OFFCURVE",
"139 849 CURVE SMOOTH",
"128 813 OFFCURVE",
"148 775 OFFCURVE",
"184 764 CURVE SMOOTH",
"212 755 OFFCURVE",
"242 766 OFFCURVE",
"258 788 CURVE",
"260 788 OFFCURVE",
"261 787 OFFCURVE",
"263 786 CURVE SMOOTH",
"267 784 LINE",
"267 784 OFFCURVE",
"271 782 OFFCURVE",
"271 782 CURVE",
"290 773 OFFCURVE",
"321 757 OFFCURVE",
"365 762 CURVE SMOOTH",
"417 768 OFFCURVE",
"447 808 OFFCURVE",
"457 841 CURVE SMOOTH",
"468 877 OFFCURVE",
"447 915 OFFCURVE",
"411 926 CURVE SMOOTH"
);
}
);
width = 585;
}
);
leftKerningGroup = "= \"@MMK_R_A.alt2\"";
rightKerningGroup = "= \"@MMK_L_A.alt2\"";
},
{
glyphname = A.alt4;
layers = (
{
layerId = "89B76552-B35F-455B-86D9-BC5A433DF1B4";
paths = (
{
closed = 1;
nodes = (
"175 -1 OFFCURVE",
"217 41 OFFCURVE",
"217 93 CURVE SMOOTH",
"217 364 LINE",
"437 40 LINE SMOOTH",
"466 -3 OFFCURVE",
"524 -14 OFFCURVE",
"567 15 CURVE SMOOTH",
"610 44 OFFCURVE",
"621 103 OFFCURVE",
"592 145 CURVE SMOOTH",
"200 721 LINE SMOOTH",
"177 755 OFFCURVE",
"135 770 OFFCURVE",
"96 758 CURVE SMOOTH",
"56 746 OFFCURVE",
"30 710 OFFCURVE",
"30 668 CURVE SMOOTH",
"30 93 LINE SMOOTH",
"30 41 OFFCURVE",
"71 -1 OFFCURVE",
"123 -1 CURVE SMOOTH"
);
}
);
width = 609;
}
);
rightKerningGroup = "= \"@MMK_L_M.alt4\"";
},
{
glyphname = A.alt5;
layers = (
{
layerId = "89B76552-B35F-455B-86D9-BC5A433DF1B4";
paths = (
{
closed = 1;
nodes = (
"538 -1 OFFCURVE",
"579 41 OFFCURVE",
"579 93 CURVE SMOOTH",
"579 668 LINE SMOOTH",
"579 710 OFFCURVE",
"553 746 OFFCURVE",
"513 758 CURVE SMOOTH",
"474 770 OFFCURVE",
"432 755 OFFCURVE",
"409 721 CURVE SMOOTH",
"17 145 LINE SMOOTH",
"-12 103 OFFCURVE",
"-1 44 OFFCURVE",
"42 15 CURVE SMOOTH",
"85 -14 OFFCURVE",
"143 -3 OFFCURVE",
"172 40 CURVE SMOOTH",
"392 364 LINE",
"392 93 LINE SMOOTH",
"392 41 OFFCURVE",
"434 -1 OFFCURVE",
"486 -1 CURVE SMOOTH"
);
}
);
width = 609;
}
);
leftKerningGroup = "= \"@MMK_R_M.alt5\"";
rightKerningGroup = "= \"@MMK_L_space\"";
},
{
glyphname = B.alt1;
layers = (
{
layerId = "89B76552-B35F-455B-86D9-BC5A433DF1B4";
paths = (
{
closed = 1;
nodes = (
"511 484 OFFCURVE",
"519 517 OFFCURVE",
"519 552 CURVE SMOOTH",
"519 668 OFFCURVE",
"424 763 OFFCURVE",
"308 763 CURVE SMOOTH",
"308 763 OFFCURVE",
"123 763 OFFCURVE",
"123 763 CURVE SMOOTH",
"72 763 OFFCURVE",
"30 721 OFFCURVE",
"30 669 CURVE SMOOTH",
"30 94 LINE SMOOTH",
"30 42 OFFCURVE",
"72 0 OFFCURVE",
"123 0 CURVE SMOOTH",
"315 0 LINE SMOOTH",
"461 0 OFFCURVE",
"579 118 OFFCURVE",
"579 264 CURVE SMOOTH",
"579 339 OFFCURVE",
"547 407 OFFCURVE",
"496 455 CURVE"
);
},
{
closed = 1;
nodes = (
"217 187 LINE",
"217 576 LINE",
"308 576 LINE SMOOTH",
"321 576 OFFCURVE",
"332 565 OFFCURVE",
"332 552 CURVE SMOOTH",
"332 538 OFFCURVE",
"323 528 OFFCURVE",
"311 527 CURVE",
"260 525 OFFCURVE",
"220 483 OFFCURVE",
"221 432 CURVE SMOOTH",
"222 381 OFFCURVE",
"263 340 OFFCURVE",
"314 340 CURVE SMOOTH",
"357 340 OFFCURVE",
"392 306 OFFCURVE",
"392 264 CURVE SMOOTH",
"392 222 OFFCURVE",
"357 187 OFFCURVE",
"315 187 CURVE SMOOTH"
);
}
);
width = 591;
}
);
rightKerningGroup = "= \"@MMK_L_space\"";
},
{
glyphname = C.alt1;
layers = (
{
layerId = "89B76552-B35F-455B-86D9-BC5A433DF1B4";
paths = (
{
closed = 1;
nodes = (
"546 477 OFFCURVE",
"548 498 OFFCURVE",
"548 518 CURVE SMOOTH",
"548 663 OFFCURVE",
"430 780 OFFCURVE",
"286 780 CURVE SMOOTH",
"141 780 OFFCURVE",
"24 663 OFFCURVE",
"24 518 CURVE SMOOTH",
"24 244 LINE SMOOTH",
"24 100 OFFCURVE",
"141 -18 OFFCURVE",
"286 -18 CURVE SMOOTH",
"430 -18 OFFCURVE",
"548 100 OFFCURVE",
"548 244 CURVE SMOOTH",
"548 267 OFFCURVE",
"544 290 OFFCURVE",
"539 311 CURVE",
"539 311 LINE",
"526 361 OFFCURVE",
"474 391 OFFCURVE",
"424 378 CURVE SMOOTH",
"374 365 OFFCURVE",
"344 314 OFFCURVE",
"357 264 CURVE",
"357 264 LINE",
"359 258 OFFCURVE",
"361 251 OFFCURVE",
"361 244 CURVE SMOOTH",
"361 203 OFFCURVE",
"327 169 OFFCURVE",
"286 169 CURVE SMOOTH",
"244 169 OFFCURVE",
"211 203 OFFCURVE",
"211 244 CURVE SMOOTH",
"211 518 LINE SMOOTH",
"211 560 OFFCURVE",
"244 593 OFFCURVE",
"286 593 CURVE SMOOTH",
"327 593 OFFCURVE",
"361 560 OFFCURVE",
"361 518 CURVE SMOOTH",
"361 512 OFFCURVE",
"360 506 OFFCURVE",
"359 501 CURVE",
"359 501 LINE",
"347 450 OFFCURVE",
"378 400 OFFCURVE",
"428 388 CURVE SMOOTH",
"478 376 OFFCURVE",
"529 406 OFFCURVE",
"541 457 CURVE SMOOTH"
);
}
);
width = 568;
}
);
leftKerningGroup = "= \"@MMK_R_zero\"";
rightKerningGroup = "= \"@MMK_L_zero\"";
},
{
glyphname = C.alt1cedilla;
layers = (
{
layerId = "89B76552-B35F-455B-86D9-BC5A433DF1B4";
paths = (
{
closed = 1;
nodes = (
"333 -129 OFFCURVE",
"371 -91 OFFCURVE",
"371 -44 CURVE SMOOTH",
"371 -3 LINE",
"473 32 OFFCURVE",
"548 130 OFFCURVE",
"548 244 CURVE SMOOTH",
"548 267 OFFCURVE",
"544 290 OFFCURVE",
"539 311 CURVE SMOOTH",
"526 361 OFFCURVE",
"474 391 OFFCURVE",
"424 378 CURVE SMOOTH",
"374 365 OFFCURVE",
"344 314 OFFCURVE",
"357 264 CURVE",
"359 258 OFFCURVE",
"361 251 OFFCURVE",
"361 244 CURVE SMOOTH",
"361 203 OFFCURVE",
"327 169 OFFCURVE",
"286 169 CURVE SMOOTH",
"244 169 OFFCURVE",
"211 203 OFFCURVE",
"211 244 CURVE SMOOTH",
"211 518 LINE SMOOTH",
"211 560 OFFCURVE",
"244 593 OFFCURVE",
"286 593 CURVE SMOOTH",
"327 593 OFFCURVE",
"361 560 OFFCURVE",
"361 518 CURVE SMOOTH",
"361 512 OFFCURVE",
"360 506 OFFCURVE",
"359 501 CURVE SMOOTH",
"347 450 OFFCURVE",
"378 400 OFFCURVE",
"428 388 CURVE SMOOTH",
"478 376 OFFCURVE",
"529 406 OFFCURVE",
"541 457 CURVE SMOOTH",
"546 477 OFFCURVE",
"548 498 OFFCURVE",
"548 518 CURVE SMOOTH",
"548 663 OFFCURVE",
"430 780 OFFCURVE",
"286 780 CURVE SMOOTH",
"141 780 OFFCURVE",
"24 663 OFFCURVE",
"24 518 CURVE SMOOTH",
"24 244 LINE SMOOTH",
"24 129 OFFCURVE",
"98 31 OFFCURVE",
"201 -4 CURVE",
"201 -44 LINE SMOOTH",
"201 -91 OFFCURVE",
"239 -129 OFFCURVE",
"286 -129 CURVE SMOOTH"
);
}
);
width = 568;
}
);
rightKerningGroup = "= \"@MMK_L_space\"";
},
{
glyphname = C.alt2;
layers = (
{
layerId = "89B76552-B35F-455B-86D9-BC5A433DF1B4";
paths = (
{
closed = 1;
nodes = (
"587 227 OFFCURVE",
"506 169 OFFCURVE",
"414 169 CURVE SMOOTH",
"297 169 OFFCURVE",
"202 264 OFFCURVE",
"202 381 CURVE SMOOTH",
"202 498 OFFCURVE",
"297 593 OFFCURVE",
"414 593 CURVE SMOOTH",
"505 593 OFFCURVE",
"586 534 OFFCURVE",
"615 447 CURVE",
"615 447 LINE",
"631 398 OFFCURVE",
"684 372 OFFCURVE",
"733 388 CURVE SMOOTH",
"782 404 OFFCURVE",
"809 457 OFFCURVE",
"793 506 CURVE",
"793 506 LINE",
"739 670 OFFCURVE",
"586 780 OFFCURVE",
"414 780 CURVE SMOOTH",
"194 780 OFFCURVE",
"15 601 OFFCURVE",
"15 381 CURVE SMOOTH",
"15 161 OFFCURVE",
"194 -18 OFFCURVE",
"414 -18 CURVE SMOOTH",
"587 -18 OFFCURVE",
"739 92 OFFCURVE",
"793 256 CURVE",
"793 256 LINE",
"809 305 OFFCURVE",
"782 358 OFFCURVE",
"733 374 CURVE SMOOTH",
"684 391 OFFCURVE",
"631 364 OFFCURVE",
"615 315 CURVE SMOOTH"
);
}
);
width = 808;
}
);
leftKerningGroup = "= \"@MMK_R_G\"";
rightKerningGroup = "= \"@MMK_L_G\"";
},
{
glyphname = C.alt2cedilla;
layers = (
{
layerId = "89B76552-B35F-455B-86D9-BC5A433DF1B4";
paths = (
{
closed = 1;
nodes = (
"461 -129 OFFCURVE",
"499 -91 OFFCURVE",
"499 -44 CURVE SMOOTH",
"499 -9 LINE",
"635 20 OFFCURVE",
"748 119 OFFCURVE",
"793 256 CURVE SMOOTH",
"809 305 OFFCURVE",
"782 358 OFFCURVE",
"733 374 CURVE SMOOTH",
"684 391 OFFCURVE",
"631 364 OFFCURVE",
"615 315 CURVE SMOOTH",
"587 227 OFFCURVE",
"506 169 OFFCURVE",
"414 169 CURVE SMOOTH",
"297 169 OFFCURVE",
"202 264 OFFCURVE",
"202 381 CURVE SMOOTH",
"202 498 OFFCURVE",
"297 593 OFFCURVE",
"414 593 CURVE SMOOTH",
"505 593 OFFCURVE",
"586 534 OFFCURVE",
"615 447 CURVE SMOOTH",
"631 398 OFFCURVE",
"684 372 OFFCURVE",
"733 388 CURVE SMOOTH",
"782 404 OFFCURVE",
"809 457 OFFCURVE",
"793 506 CURVE SMOOTH",
"739 670 OFFCURVE",
"586 780 OFFCURVE",
"414 780 CURVE SMOOTH",
"194 780 OFFCURVE",
"15 601 OFFCURVE",
"15 381 CURVE SMOOTH",
"15 190 OFFCURVE",
"149 30 OFFCURVE",
"329 -9 CURVE",
"329 -44 LINE SMOOTH",
"329 -91 OFFCURVE",
"367 -129 OFFCURVE",
"414 -129 CURVE SMOOTH"
);
}
);
width = 808;
}
);
leftKerningGroup = "= \"@MMK_R_G\"";
rightKerningGroup = "= \"@MMK_L_G\"";
},
{
glyphname = D.alt1;
layers = (
{
layerId = "89B76552-B35F-455B-86D9-BC5A433DF1B4";
paths = (
{
closed = 1;
nodes = (
"123 763 LINE SMOOTH",
"72 763 OFFCURVE",
"30 721 OFFCURVE",
"30 670 CURVE SMOOTH",
"30 94 LINE SMOOTH",
"30 42 OFFCURVE",
"72 0 OFFCURVE",
"123 0 CURVE SMOOTH",
"175 0 OFFCURVE",
"217 42 OFFCURVE",
"217 94 CURVE SMOOTH",
"217 572 LINE",
"304 552 OFFCURVE",
"369 475 OFFCURVE",
"369 382 CURVE SMOOTH",
"369 311 OFFCURVE",
"331 246 OFFCURVE",
"269 212 CURVE SMOOTH",
"224 187 OFFCURVE",
"208 130 OFFCURVE",
"233 85 CURVE SMOOTH",
"258 39 OFFCURVE",
"315 23 OFFCURVE",
"360 48 CURVE SMOOTH",
"481 115 OFFCURVE",
"556 243 OFFCURVE",
"556 382 CURVE SMOOTH",
"556 592 OFFCURVE",
"385 763 OFFCURVE",
"175 763 CURVE SMOOTH"
);
}
);
width = 566;
}
);
rightKerningGroup = "= \"@MMK_L_D\"";
},
{
glyphname = E.alt1;
layers = (
{
layerId = "89B76552-B35F-455B-86D9-BC5A433DF1B4";
paths = (
{
closed = 1;
nodes = (
"542 304 OFFCURVE",
"498 344 OFFCURVE",
"447 342 CURVE SMOOTH",
"395 340 OFFCURVE",
"355 297 OFFCURVE",
"356 245 CURVE SMOOTH",
"357 226 OFFCURVE",
"350 207 OFFCURVE",
"336 192 CURVE",
"323 177 OFFCURVE",
"305 169 OFFCURVE",
"285 168 CURVE",
"265 168 OFFCURVE",
"246 175 OFFCURVE",
"231 188 CURVE",
"217 202 OFFCURVE",
"208 220 OFFCURVE",
"208 240 CURVE",
"207 260 OFFCURVE",
"214 279 OFFCURVE",
"228 293 CURVE SMOOTH",
"242 308 OFFCURVE",
"261 317 OFFCURVE",
"281 318 CURVE",
"281 318 LINE SMOOTH",
"281 318 OFFCURVE",
"282 318 OFFCURVE",
"283 318 CURVE",
"314 320 OFFCURVE",
"341 337 OFFCURVE",
"357 362 CURVE",
"357 362 OFFCURVE",
"357 362 OFFCURVE",
"357 363 CURVE",
"358 364 OFFCURVE",
"359 365 OFFCURVE",
"359 365 CURVE",
"367 380 OFFCURVE",
"372 397 OFFCURVE",
"371 414 CURVE",
"371 415 OFFCURVE",
"371 416 OFFCURVE",
"371 417 CURVE",
"368 466 OFFCURVE",
"328 504 OFFCURVE",
"279 505 CURVE SMOOTH",
"277 505 OFFCURVE",
"276 505 OFFCURVE",
"274 505 CURVE",
"258 504 OFFCURVE",
"248 512 OFFCURVE",
"243 516 CURVE",
"238 521 OFFCURVE",
"229 531 OFFCURVE",
"229 547 CURVE",
"228 571 OFFCURVE",
"247 592 OFFCURVE",
"271 592 CURVE",
"296 593 OFFCURVE",
"316 574 OFFCURVE",
"317 550 CURVE",
"317 549 OFFCURVE",
"317 549 OFFCURVE",
"317 549 CURVE",
"316 497 OFFCURVE",
"358 455 OFFCURVE",
"410 454 CURVE SMOOTH",
"461 454 OFFCURVE",
"504 496 OFFCURVE",
"504 547 CURVE SMOOTH",
"504 550 OFFCURVE",
"504 553 OFFCURVE",
"504 556 CURVE",
"499 684 OFFCURVE",
"392 784 OFFCURVE",
"265 779 CURVE SMOOTH",
"137 775 OFFCURVE",
"37 668 OFFCURVE",
"42 540 CURVE SMOOTH",
"44 494 OFFCURVE",
"59 451 OFFCURVE",
"85 414 CURVE",
"41 364 OFFCURVE",
"18 300 OFFCURVE",
"21 234 CURVE SMOOTH",
"23 164 OFFCURVE",
"53 99 OFFCURVE",
"104 52 CURVE SMOOTH",
"155 4 OFFCURVE",
"221 -21 OFFCURVE",
"291 -19 CURVE SMOOTH",
"361 -16 OFFCURVE",
"426 13 OFFCURVE",
"473 64 CURVE SMOOTH",
"521 116 OFFCURVE",
"546 182 OFFCURVE",
"543 252 CURVE SMOOTH"
);
}
);
width = 556;
}
);
rightKerningGroup = "= \"@MMK_L_space\"";
},
{
glyphname = E.alt2;
layers = (
{
layerId = "89B76552-B35F-455B-86D9-BC5A433DF1B4";
paths = (
{
closed = 1;
nodes = (
"217 187 LINE",
"217 576 LINE",
"382 576 LINE SMOOTH",
"434 576 OFFCURVE",
"476 618 OFFCURVE",
"476 670 CURVE SMOOTH",
"476 721 OFFCURVE",
"434 763 OFFCURVE",
"382 763 CURVE SMOOTH",
"124 763 LINE SMOOTH",
"72 763 OFFCURVE",
"30 721 OFFCURVE",
"30 670 CURVE SMOOTH",
"30 94 LINE SMOOTH",
"30 42 OFFCURVE",
"72 0 OFFCURVE",
"124 0 CURVE SMOOTH",
"400 0 LINE SMOOTH",
"452 0 OFFCURVE",
"494 42 OFFCURVE",
"494 94 CURVE SMOOTH",
"494 146 OFFCURVE",
"452 187 OFFCURVE",
"400 187 CURVE SMOOTH"
);
},
{
closed = 1;
nodes = (
"350 319 LINE",
"350 319 LINE",
"401 319 OFFCURVE",
"443 361 OFFCURVE",
"443 413 CURVE SMOOTH",
"443 465 OFFCURVE",
"401 506 OFFCURVE",
"350 506 CURVE SMOOTH",
"350 506 LINE",
"314 506 LINE",
"314 506 LINE SMOOTH",
"263 506 OFFCURVE",
"221 465 OFFCURVE",
"221 413 CURVE SMOOTH",
"221 361 OFFCURVE",
"263 319 OFFCURVE",
"314 319 CURVE SMOOTH"
);
}
);
width = 500;
}
);
rightKerningGroup = "= \"@MMK_L_E.alt2\"";
},
{
glyphname = G.alt1;
layers = (
{
layerId = "89B76552-B35F-455B-86D9-BC5A433DF1B4";
paths = (
{
closed = 1;
nodes = (
"309 506 LINE SMOOTH",
"257 506 OFFCURVE",
"215 464 OFFCURVE",
"215 412 CURVE SMOOTH",
"215 361 OFFCURVE",
"257 319 OFFCURVE",
"309 319 CURVE SMOOTH",
"361 319 LINE",
"361 244 LINE SMOOTH",
"361 203 OFFCURVE",
"328 169 OFFCURVE",
"286 169 CURVE SMOOTH",
"245 169 OFFCURVE",
"211 203 OFFCURVE",
"211 244 CURVE SMOOTH",
"211 518 LINE SMOOTH",
"211 560 OFFCURVE",
"245 593 OFFCURVE",
"286 593 CURVE SMOOTH",
"313 593 OFFCURVE",
"337 579 OFFCURVE",
"351 556 CURVE SMOOTH",
"377 512 OFFCURVE",
"435 497 OFFCURVE",
"479 523 CURVE SMOOTH",
"524 549 OFFCURVE",
"538 607 OFFCURVE",
"512 651 CURVE SMOOTH",
"465 731 OFFCURVE",
"379 780 OFFCURVE",
"286 780 CURVE SMOOTH",
"142 780 OFFCURVE",
"24 663 OFFCURVE",
"24 518 CURVE SMOOTH",
"24 244 LINE SMOOTH",
"24 100 OFFCURVE",
"142 -18 OFFCURVE",
"286 -18 CURVE SMOOTH",
"431 -18 OFFCURVE",
"548 100 OFFCURVE",
"548 244 CURVE SMOOTH",
"548 412 LINE SMOOTH",
"548 464 OFFCURVE",
"506 506 OFFCURVE",
"455 506 CURVE SMOOTH"
);
}
);
width = 568;
}
);
leftKerningGroup = "= \"@MMK_R_zero\"";
rightKerningGroup = "= \"@MMK_L_zero\"";
},
{
glyphname = K.alt1;
layers = (
{
layerId = "89B76552-B35F-455B-86D9-BC5A433DF1B4";
paths = (
{
closed = 1;
nodes = (
"361 411 LINE",
"518 612 LINE SMOOTH",
"550 652 OFFCURVE",
"542 711 OFFCURVE",
"502 743 CURVE SMOOTH",
"461 775 OFFCURVE",
"402 767 OFFCURVE",
"370 727 CURVE SMOOTH",
"224 539 LINE",
"221 539 OFFCURVE",
"219 539 OFFCURVE",
"217 538 CURVE",
"217 669 LINE SMOOTH",
"217 721 OFFCURVE",
"175 763 OFFCURVE",
"123 763 CURVE SMOOTH",
"71 763 OFFCURVE",
"30 721 OFFCURVE",
"30 669 CURVE SMOOTH",
"30 93 LINE SMOOTH",
"30 42 OFFCURVE",
"71 0 OFFCURVE",
"123 0 CURVE SMOOTH",
"175 0 OFFCURVE",
"217 42 OFFCURVE",
"217 93 CURVE SMOOTH",
"217 291 LINE",
"385 41 LINE SMOOTH",
"413 -2 OFFCURVE",
"472 -13 OFFCURVE",
"514 16 CURVE SMOOTH",
"557 45 OFFCURVE",
"569 103 OFFCURVE",
"540 146 CURVE SMOOTH"
);
}
);
width = 556;
}
);
rightKerningGroup = "= \"@MMK_L_space\"";
},
{
glyphname = K.alt2;
layers = (
{
layerId = "89B76552-B35F-455B-86D9-BC5A433DF1B4";
paths = (
{
closed = 1;
nodes = (
"484 464 OFFCURVE",
"499 512 OFFCURVE",
"499 563 CURVE SMOOTH",
"499 669 LINE SMOOTH",
"499 721 OFFCURVE",
"457 763 OFFCURVE",
"405 763 CURVE SMOOTH",
"354 763 OFFCURVE",
"312 721 OFFCURVE",
"312 669 CURVE SMOOTH",
"312 563 LINE SMOOTH",
"312 522 OFFCURVE",
"278 488 OFFCURVE",
"237 488 CURVE SMOOTH",
"217 488 LINE",
"217 669 LINE SMOOTH",
"217 721 OFFCURVE",
"175 763 OFFCURVE",
"123 763 CURVE SMOOTH",
"72 763 OFFCURVE",
"30 721 OFFCURVE",
"30 669 CURVE SMOOTH",
"30 93 LINE SMOOTH",
"30 42 OFFCURVE",
"72 0 OFFCURVE",
"123 0 CURVE SMOOTH",
"175 0 OFFCURVE",
"217 42 OFFCURVE",
"217 93 CURVE SMOOTH",
"217 301 LINE",
"285 301 LINE SMOOTH",
"327 301 OFFCURVE",
"360 268 OFFCURVE",
"360 226 CURVE SMOOTH",
"360 93 LINE SMOOTH",
"360 42 OFFCURVE",
"402 0 OFFCURVE",
"454 0 CURVE SMOOTH",
"506 0 OFFCURVE",
"548 42 OFFCURVE",
"548 93 CURVE SMOOTH",
"548 226 LINE SMOOTH",
"548 305 OFFCURVE",
"513 375 OFFCURVE",
"458 423 CURVE"
);
}
);
width = 563;
}
);
rightKerningGroup = "= \"@MMK_L_space\"";
},
{
glyphname = M.alt1;
layers = (
{
layerId = "89B76552-B35F-455B-86D9-BC5A433DF1B4";
paths = (
{
closed = 1;
nodes = (
"656 771 OFFCURVE",
"616 763 OFFCURVE",
"589 737 CURVE SMOOTH",
"389 543 LINE",
"189 737 LINE SMOOTH",
"162 763 OFFCURVE",
"122 771 OFFCURVE",
"87 756 CURVE SMOOTH",
"52 741 OFFCURVE",
"30 707 OFFCURVE",
"30 670 CURVE SMOOTH",
"30 94 LINE SMOOTH",
"30 42 OFFCURVE",
"72 0 OFFCURVE",
"123 0 CURVE SMOOTH",
"175 0 OFFCURVE",
"217 42 OFFCURVE",
"217 94 CURVE SMOOTH",
"217 449 LINE",
"324 346 LINE SMOOTH",
"360 311 OFFCURVE",
"418 311 OFFCURVE",
"454 346 CURVE SMOOTH",
"561 449 LINE",
"561 94 LINE SMOOTH",
"561 42 OFFCURVE",
"603 0 OFFCURVE",
"654 0 CURVE SMOOTH",
"706 0 OFFCURVE",
"748 42 OFFCURVE",
"748 94 CURVE SMOOTH",
"748 670 LINE SMOOTH",
"748 707 OFFCURVE",
"725 741 OFFCURVE",
"691 756 CURVE SMOOTH"
);
}
);
width = 778;
}
);
rightKerningGroup = "= \"@MMK_L_space\"";
},
{
glyphname = M.alt2;
layers = (
{
layerId = "89B76552-B35F-455B-86D9-BC5A433DF1B4";
paths = (
{
closed = 1;
nodes = (
"635 771 OFFCURVE",
"592 751 OFFCURVE",
"572 713 CURVE SMOOTH",
"389 365 LINE",
"207 713 LINE SMOOTH",
"187 751 OFFCURVE",
"143 771 OFFCURVE",
"101 760 CURVE SMOOTH",
"60 750 OFFCURVE",
"30 713 OFFCURVE",
"30 670 CURVE SMOOTH",
"30 94 LINE SMOOTH",
"30 42 OFFCURVE",
"72 0 OFFCURVE",
"124 0 CURVE SMOOTH",
"175 0 OFFCURVE",
"217 42 OFFCURVE",
"217 94 CURVE SMOOTH",
"217 290 LINE",
"306 120 LINE SMOOTH",
"322 89 OFFCURVE",
"354 70 OFFCURVE",
"389 70 CURVE SMOOTH",
"424 70 OFFCURVE",
"456 89 OFFCURVE",
"472 120 CURVE SMOOTH",
"561 290 LINE",
"561 94 LINE SMOOTH",
"561 42 OFFCURVE",
"603 0 OFFCURVE",
"655 0 CURVE SMOOTH",
"706 0 OFFCURVE",
"748 42 OFFCURVE",
"748 94 CURVE SMOOTH",
"748 670 LINE SMOOTH",
"748 713 OFFCURVE",
"719 750 OFFCURVE",
"677 760 CURVE SMOOTH"
);
}
);
width = 778;
}
);
rightKerningGroup = "= \"@MMK_L_space\"";
},
{
glyphname = M.alt3;
layers = (
{
layerId = "89B76552-B35F-455B-86D9-BC5A433DF1B4";
paths = (
{
closed = 1;
nodes = (
"652 682 LINE SMOOTH",
"647 725 OFFCURVE",
"612 759 OFFCURVE",
"569 763 CURVE SMOOTH",
"525 767 OFFCURVE",
"485 740 OFFCURVE",
"471 699 CURVE SMOOTH",
"374 410 LINE",
"276 699 LINE SMOOTH",
"263 740 OFFCURVE",
"222 767 OFFCURVE",
"179 763 CURVE SMOOTH",
"136 759 OFFCURVE",
"101 725 OFFCURVE",
"95 682 CURVE SMOOTH",
"16 106 LINE SMOOTH",
"9 55 OFFCURVE",
"44 8 OFFCURVE",
"96 1 CURVE SMOOTH",
"147 -6 OFFCURVE",
"194 30 OFFCURVE",
"201 81 CURVE SMOOTH",
"226 262 LINE",
"285 87 LINE SMOOTH",
"298 48 OFFCURVE",
"334 23 OFFCURVE",
"374 23 CURVE SMOOTH",
"414 23 OFFCURVE",
"450 48 OFFCURVE",
"462 87 CURVE SMOOTH",
"522 262 LINE",
"547 81 LINE SMOOTH",
"554 30 OFFCURVE",
"601 -6 OFFCURVE",
"652 1 CURVE SMOOTH",
"703 8 OFFCURVE",
"739 55 OFFCURVE",
"732 106 CURVE SMOOTH"
);
}
);
width = 748;
}
);
leftKerningGroup = "= \"@MMK_R_m\"";
rightKerningGroup = "= \"@MMK_L_m\"";
},
{
glyphname = M.alt4;
layers = (
{
layerId = "89B76552-B35F-455B-86D9-BC5A433DF1B4";
paths = (
{
closed = 1;
nodes = (
"176 -1 OFFCURVE",
"217 41 OFFCURVE",
"217 93 CURVE SMOOTH",
"217 364 LINE",
"438 40 LINE SMOOTH",
"461 6 OFFCURVE",
"503 -9 OFFCURVE",
"543 3 CURVE SMOOTH",
"582 15 OFFCURVE",
"609 52 OFFCURVE",
"609 93 CURVE SMOOTH",
"609 364 LINE",
"829 40 LINE SMOOTH",
"858 -3 OFFCURVE",
"916 -14 OFFCURVE",
"959 15 CURVE SMOOTH",
"1002 44 OFFCURVE",
"1013 103 OFFCURVE",
"984 145 CURVE SMOOTH",
"592 721 LINE SMOOTH",
"569 755 OFFCURVE",
"527 770 OFFCURVE",
"488 758 CURVE SMOOTH",
"448 746 OFFCURVE",
"422 710 OFFCURVE",
"422 668 CURVE SMOOTH",
"422 397 LINE",
"201 721 LINE SMOOTH",
"178 755 OFFCURVE",
"136 770 OFFCURVE",
"96 758 CURVE SMOOTH",
"57 746 OFFCURVE",
"30 710 OFFCURVE",
"30 668 CURVE SMOOTH",
"30 93 LINE SMOOTH",
"30 41 OFFCURVE",
"72 -1 OFFCURVE",
"124 -1 CURVE SMOOTH"
);
}
);
width = 1001;
}
);
rightKerningGroup = "= \"@MMK_L_M.alt4\"";
},
{
glyphname = M.alt5;
layers = (
{
layerId = "89B76552-B35F-455B-86D9-BC5A433DF1B4";
paths = (
{
closed = 1;
nodes = (
"929 -1 OFFCURVE",
"971 41 OFFCURVE",
"971 93 CURVE SMOOTH",
"971 668 LINE SMOOTH",
"971 710 OFFCURVE",
"944 746 OFFCURVE",
"905 758 CURVE SMOOTH",
"865 770 OFFCURVE",
"823 755 OFFCURVE",
"800 721 CURVE SMOOTH",
"579 397 LINE",
"579 668 LINE SMOOTH",
"579 710 OFFCURVE",
"553 746 OFFCURVE",
"513 758 CURVE SMOOTH",
"474 770 OFFCURVE",
"432 755 OFFCURVE",
"408 721 CURVE SMOOTH",
"17 145 LINE SMOOTH",
"-12 103 OFFCURVE",
"-1 44 OFFCURVE",
"42 15 CURVE SMOOTH",
"85 -14 OFFCURVE",
"143 -3 OFFCURVE",
"172 40 CURVE SMOOTH",
"392 364 LINE",
"392 93 LINE SMOOTH",
"392 52 OFFCURVE",
"419 15 OFFCURVE",
"458 3 CURVE SMOOTH",
"498 -9 OFFCURVE",
"540 6 OFFCURVE",
"563 40 CURVE SMOOTH",
"784 364 LINE",
"784 93 LINE SMOOTH",
"784 41 OFFCURVE",
"825 -1 OFFCURVE",
"877 -1 CURVE SMOOTH"
);
}
);
width = 1001;
}
);
leftKerningGroup = "= \"@MMK_R_M.alt5\"";
rightKerningGroup = "= \"@MMK_L_space\"";
},
{
glyphname = N.alt;
layers = (
{
layerId = "89B76552-B35F-455B-86D9-BC5A433DF1B4";
paths = (
{
closed = 1;
nodes = (
"378 763 OFFCURVE",
"336 721 OFFCURVE",
"336 670 CURVE SMOOTH",
"336 469 LINE",
"206 714 LINE SMOOTH",
"186 752 OFFCURVE",
"143 771 OFFCURVE",
"101 761 CURVE SMOOTH",
"59 750 OFFCURVE",
"30 713 OFFCURVE",
"30 670 CURVE SMOOTH",
"30 94 LINE SMOOTH",
"30 42 OFFCURVE",
"72 0 OFFCURVE",
"124 0 CURVE SMOOTH",
"175 0 OFFCURVE",
"217 42 OFFCURVE",
"217 94 CURVE SMOOTH",
"217 295 LINE",
"347 50 LINE SMOOTH",
"368 12 OFFCURVE",
"411 -7 OFFCURVE",
"453 3 CURVE SMOOTH",
"494 14 OFFCURVE",
"524 51 OFFCURVE",
"524 94 CURVE SMOOTH",
"524 670 LINE SMOOTH",
"524 721 OFFCURVE",
"482 763 OFFCURVE",
"430 763 CURVE SMOOTH"
);
}
);
width = 554;
}
);
rightKerningGroup = "= \"@MMK_L_space\"";
},
{
glyphname = O.alt1;
layers = (
{
layerId = "89B76552-B35F-455B-86D9-BC5A433DF1B4";
paths = (
{
closed = 1;
nodes = (
"489 691 OFFCURVE",
"390 780 OFFCURVE",
"272 780 CURVE SMOOTH",
"153 780 OFFCURVE",
"54 691 OFFCURVE",
"42 573 CURVE",
"42 573 OFFCURVE",
"11 272 OFFCURVE",
"11 272 CURVE SMOOTH",
"11 272 OFFCURVE",
"11 272 OFFCURVE",
"11 272 CURVE",
"10 263 OFFCURVE",
"10 253 OFFCURVE",
"10 244 CURVE SMOOTH",
"10 99 OFFCURVE",
"127 -18 OFFCURVE",
"272 -18 CURVE SMOOTH",
"416 -18 OFFCURVE",
"533 99 OFFCURVE",
"533 244 CURVE SMOOTH",
"533 253 OFFCURVE",
"533 263 OFFCURVE",
"532 272 CURVE",
"532 272 OFFCURVE",
"532 272 OFFCURVE",
"532 272 CURVE SMOOTH",
"532 272 OFFCURVE",
"501 573 OFFCURVE",
"501 573 CURVE"
);
},
{
closed = 1;
nodes = (
"346 249 OFFCURVE",
"346 246 OFFCURVE",
"346 244 CURVE SMOOTH",
"346 203 OFFCURVE",
"313 169 OFFCURVE",
"272 169 CURVE SMOOTH",
"230 169 OFFCURVE",
"197 203 OFFCURVE",
"197 244 CURVE SMOOTH",
"197 247 OFFCURVE",
"197 249 OFFCURVE",
"197 252 CURVE",
"197 252 OFFCURVE",
"197 252 OFFCURVE",
"197 253 CURVE",
"228 554 LINE SMOOTH",
"231 576 OFFCURVE",
"249 593 OFFCURVE",
"272 593 CURVE SMOOTH",
"294 593 OFFCURVE",
"313 576 OFFCURVE",
"315 554 CURVE",
"315 554 OFFCURVE",
"346 253 OFFCURVE",
"346 253 CURVE",
"346 252 OFFCURVE",
"346 252 OFFCURVE",
"346 252 CURVE"
);
}
);
width = 543;
}
);
rightKerningGroup = "= \"@MMK_L_space\"";
},
{
glyphname = P.alt;
layers = (
{
layerId = "89B76552-B35F-455B-86D9-BC5A433DF1B4";
paths = (
{
closed = 1;
nodes = (
"196 763 OFFCURVE",
"124 763 OFFCURVE",
"124 763 CURVE SMOOTH",
"99 763 OFFCURVE",
"75 753 OFFCURVE",
"58 736 CURVE SMOOTH",
"40 718 OFFCURVE",
"30 695 OFFCURVE",
"30 670 CURVE SMOOTH",
"30 94 LINE SMOOTH",
"30 42 OFFCURVE",
"72 0 OFFCURVE",
"124 0 CURVE SMOOTH",
"176 0 OFFCURVE",
"217 42 OFFCURVE",
"217 94 CURVE SMOOTH",
"217 572 LINE",
"241 563 OFFCURVE",
"258 540 OFFCURVE",
"258 513 CURVE SMOOTH",
"258 498 OFFCURVE",
"253 485 OFFCURVE",
"244 474 CURVE SMOOTH",
"210 435 OFFCURVE",
"214 376 OFFCURVE",
"254 342 CURVE SMOOTH",
"293 308 OFFCURVE",
"352 313 OFFCURVE",
"385 352 CURVE SMOOTH",
"424 397 OFFCURVE",
"445 453 OFFCURVE",
"445 513 CURVE SMOOTH",
"445 651 OFFCURVE",
"333 763 OFFCURVE",
"196 763 CURVE SMOOTH"
);
}
);
width = 453;
}
);
rightKerningGroup = "= \"@MMK_L_P\"";
},
{
glyphname = Q.alt;
layers = (
{
layerId = "89B76552-B35F-455B-86D9-BC5A433DF1B4";
paths = (
{
closed = 1;
nodes = (
"535 160 LINE",
"544 187 OFFCURVE",
"548 215 OFFCURVE",
"548 245 CURVE SMOOTH",
"548 500 LINE SMOOTH",
"548 645 OFFCURVE",
"431 762 OFFCURVE",
"286 762 CURVE SMOOTH",
"142 762 OFFCURVE",
"24 645 OFFCURVE",
"24 500 CURVE SMOOTH",
"24 245 LINE SMOOTH",
"24 100 OFFCURVE",
"142 -18 OFFCURVE",
"286 -18 CURVE SMOOTH",
"333 -18 OFFCURVE",
"376 -5 OFFCURVE",
"414 16 CURVE",
"428 2 LINE",
"428 2 LINE",
"464 -34 OFFCURVE",
"524 -34 OFFCURVE",
"560 2 CURVE SMOOTH",
"597 39 OFFCURVE",
"597 98 OFFCURVE",
"560 135 CURVE SMOOTH"
);
},
{
closed = 1;
nodes = (
"211 500 LINE SMOOTH",
"211 542 OFFCURVE",
"245 575 OFFCURVE",
"286 575 CURVE SMOOTH",
"328 575 OFFCURVE",
"361 542 OFFCURVE",
"361 500 CURVE SMOOTH",
"361 245 LINE SMOOTH",
"361 203 OFFCURVE",
"328 170 OFFCURVE",
"286 170 CURVE SMOOTH",
"245 170 OFFCURVE",
"211 203 OFFCURVE",
"211 245 CURVE SMOOTH"
);
}
);
width = 577;
}
);
leftKerningGroup = "= \"@MMK_R_zero\"";
rightKerningGroup = "= \"@MMK_L_zero\"";
},
{
glyphname = R.alt;
layers = (
{
layerId = "89B76552-B35F-455B-86D9-BC5A433DF1B4";
paths = (
{
closed = 1;
nodes = (
"476 1 OFFCURVE",
"492 5 OFFCURVE",
"507 14 CURVE SMOOTH",
"551 39 OFFCURVE",
"567 96 OFFCURVE",
"542 141 CURVE SMOOTH",
"441 318 LINE",
"494 365 OFFCURVE",
"525 433 OFFCURVE",
"525 508 CURVE SMOOTH",
"525 649 OFFCURVE",
"410 764 OFFCURVE",
"268 764 CURVE SMOOTH",
"124 764 LINE SMOOTH",
"72 764 OFFCURVE",
"30 722 OFFCURVE",
"30 671 CURVE SMOOTH",
"30 95 LINE SMOOTH",
"30 43 OFFCURVE",
"72 1 OFFCURVE",
"124 1 CURVE SMOOTH",
"175 1 OFFCURVE",
"217 43 OFFCURVE",
"217 95 CURVE SMOOTH",
"217 577 LINE",
"268 577 LINE SMOOTH",
"307 577 OFFCURVE",
"338 546 OFFCURVE",
"338 508 CURVE SMOOTH",
"338 477 OFFCURVE",
"318 450 OFFCURVE",
"288 441 CURVE SMOOTH",
"261 433 OFFCURVE",
"239 413 OFFCURVE",
"228 387 CURVE SMOOTH",
"217 360 OFFCURVE",
"219 330 OFFCURVE",
"233 305 CURVE SMOOTH",
"379 49 LINE SMOOTH",
"396 18 OFFCURVE",
"428 1 OFFCURVE",
"460 1 CURVE SMOOTH"
);
}
);
width = 554;
}
);
rightKerningGroup = "= \"@MMK_L_space\"";
},
{
glyphname = T.alt1;
layers = (
{
layerId = "89B76552-B35F-455B-86D9-BC5A433DF1B4";
paths = (
{
closed = 1;
nodes = (
"94 763 LINE SMOOTH",
"42 763 OFFCURVE",
"0 721 OFFCURVE",
"0 669 CURVE SMOOTH",
"0 618 OFFCURVE",
"42 576 OFFCURVE",
"94 576 CURVE SMOOTH",
"164 576 LINE",
"164 92 LINE SMOOTH",
"164 40 OFFCURVE",
"206 -1 OFFCURVE",
"257 -1 CURVE SMOOTH",
"309 -1 OFFCURVE",
"351 40 OFFCURVE",
"351 92 CURVE SMOOTH",
"351 576 LINE",
"420 576 LINE SMOOTH",
"472 576 OFFCURVE",
"514 618 OFFCURVE",
"514 669 CURVE SMOOTH",
"514 721 OFFCURVE",
"472 763 OFFCURVE",
"420 763 CURVE SMOOTH"
);
}
);
width = 514;
}
);
leftKerningGroup = "= \"@MMK_R_t\"";
rightKerningGroup = "= \"@MMK_L_t\"";
},
{
glyphname = V.alt;
layers = (
{
layerId = "89B76552-B35F-455B-86D9-BC5A433DF1B4";
paths = (
{
closed = 1;
nodes = (
"525 776 OFFCURVE",
"466 765 OFFCURVE",
"437 722 CURVE SMOOTH",
"217 398 LINE",
"217 669 LINE SMOOTH",
"217 721 OFFCURVE",
"175 763 OFFCURVE",
"124 763 CURVE SMOOTH",
"72 763 OFFCURVE",
"30 721 OFFCURVE",
"30 669 CURVE SMOOTH",
"30 94 LINE SMOOTH",
"30 52 OFFCURVE",
"57 16 OFFCURVE",
"96 4 CURVE SMOOTH",
"135 -8 OFFCURVE",
"178 7 OFFCURVE",
"201 41 CURVE SMOOTH",
"592 617 LINE SMOOTH",
"621 659 OFFCURVE",
"610 718 OFFCURVE",
"567 747 CURVE SMOOTH"
);
}
);
width = 609;
}
);
rightKerningGroup = "= \"@MMK_L_V.alt\"";
},
{
glyphname = W.alt1;
layers = (
{
layerId = "89B76552-B35F-455B-86D9-BC5A433DF1B4";
paths = (
{
closed = 1;
nodes = (
"154 -1 OFFCURVE",
"183 14 OFFCURVE",
"201 40 CURVE SMOOTH",
"421 364 LINE",
"421 93 LINE SMOOTH",
"421 52 OFFCURVE",
"448 15 OFFCURVE",
"487 3 CURVE SMOOTH",
"526 -9 OFFCURVE",
"569 6 OFFCURVE",
"592 40 CURVE SMOOTH",
"983 616 LINE SMOOTH",
"1012 658 OFFCURVE",
"1001 717 OFFCURVE",
"958 746 CURVE SMOOTH",
"916 775 OFFCURVE",
"857 764 OFFCURVE",
"828 721 CURVE SMOOTH",
"608 397 LINE",
"608 668 LINE SMOOTH",
"608 709 OFFCURVE",
"581 746 OFFCURVE",
"542 758 CURVE SMOOTH",
"503 770 OFFCURVE",
"460 755 OFFCURVE",
"437 721 CURVE SMOOTH",
"217 397 LINE",
"217 668 LINE SMOOTH",
"217 720 OFFCURVE",
"175 762 OFFCURVE",
"123 762 CURVE SMOOTH",
"72 762 OFFCURVE",
"30 720 OFFCURVE",
"30 668 CURVE SMOOTH",
"30 93 LINE SMOOTH",
"30 52 OFFCURVE",
"56 15 OFFCURVE",
"96 3 CURVE SMOOTH",
"105 0 OFFCURVE",
"114 -1 OFFCURVE",
"123 -1 CURVE SMOOTH"
);
}
);
width = 1000;
}
);
rightKerningGroup = "= \"@MMK_L_V.alt\"";
},
{
glyphname = W.alt2;
layers = (
{
layerId = "89B76552-B35F-455B-86D9-BC5A433DF1B4";
paths = (
{
closed = 1;
nodes = (
"886 -1 OFFCURVE",
"895 0 OFFCURVE",
"904 3 CURVE SMOOTH",
"944 15 OFFCURVE",
"970 52 OFFCURVE",
"970 93 CURVE SMOOTH",
"970 668 LINE SMOOTH",
"970 720 OFFCURVE",
"928 762 OFFCURVE",
"877 762 CURVE SMOOTH",
"825 762 OFFCURVE",
"783 720 OFFCURVE",
"783 668 CURVE SMOOTH",
"783 397 LINE",
"563 721 LINE SMOOTH",
"540 755 OFFCURVE",
"497 770 OFFCURVE",
"458 758 CURVE SMOOTH",
"419 746 OFFCURVE",
"392 709 OFFCURVE",
"392 668 CURVE SMOOTH",
"392 397 LINE",
"172 721 LINE SMOOTH",
"143 764 OFFCURVE",
"84 775 OFFCURVE",
"42 746 CURVE SMOOTH",
"-1 717 OFFCURVE",
"-12 658 OFFCURVE",
"17 616 CURVE SMOOTH",
"408 40 LINE SMOOTH",
"431 6 OFFCURVE",
"474 -9 OFFCURVE",
"513 3 CURVE SMOOTH",
"552 15 OFFCURVE",
"579 52 OFFCURVE",
"579 93 CURVE SMOOTH",
"579 364 LINE",
"799 40 LINE SMOOTH",
"817 14 OFFCURVE",
"846 -1 OFFCURVE",
"877 -1 CURVE SMOOTH"
);
}
);
width = 1000;
}
);
leftKerningGroup = "= \"@MMK_R_V\"";
rightKerningGroup = "= \"@MMK_L_space\"";
},
{
glyphname = W.alt3;
layers = (
{
layerId = "89B76552-B35F-455B-86D9-BC5A433DF1B4";
paths = (
{
closed = 1;
nodes = (
"354 -1 OFFCURVE",
"413 22 OFFCURVE",
"459 61 CURVE",
"504 22 OFFCURVE",
"563 -1 OFFCURVE",
"627 -1 CURVE SMOOTH",
"772 -1 OFFCURVE",
"889 117 OFFCURVE",
"889 261 CURVE SMOOTH",
"889 686 LINE SMOOTH",
"889 738 OFFCURVE",
"847 780 OFFCURVE",
"796 780 CURVE SMOOTH",
"744 780 OFFCURVE",
"702 738 OFFCURVE",
"702 686 CURVE SMOOTH",
"702 261 LINE SMOOTH",
"702 220 OFFCURVE",
"669 186 OFFCURVE",
"627 186 CURVE SMOOTH",
"586 186 OFFCURVE",
"552 220 OFFCURVE",
"552 261 CURVE SMOOTH",
"552 686 LINE SMOOTH",
"552 738 OFFCURVE",
"510 780 OFFCURVE",
"459 780 CURVE SMOOTH",
"407 780 OFFCURVE",
"365 738 OFFCURVE",
"365 686 CURVE SMOOTH",
"365 261 LINE SMOOTH",
"365 220 OFFCURVE",
"331 186 OFFCURVE",
"290 186 CURVE SMOOTH",
"249 186 OFFCURVE",
"215 220 OFFCURVE",
"215 261 CURVE SMOOTH",
"215 686 LINE SMOOTH",
"215 738 OFFCURVE",
"173 780 OFFCURVE",
"121 780 CURVE SMOOTH",
"70 780 OFFCURVE",
"28 738 OFFCURVE",
"28 686 CURVE SMOOTH",
"28 261 LINE SMOOTH",
"28 117 OFFCURVE",
"145 -1 OFFCURVE",
"290 -1 CURVE SMOOTH"
);
}
);
width = 917;
}
);
leftKerningGroup = "= \"@MMK_R_u\"";
rightKerningGroup = "= \"@MMK_L_u\"";
},
{
glyphname = X.alt;
layers = (
{
layerId = "89B76552-B35F-455B-86D9-BC5A433DF1B4";
paths = (
{
closed = 1;
nodes = (
"373 380 LINE",
"506 624 LINE SMOOTH",
"531 669 OFFCURVE",
"514 726 OFFCURVE",
"469 751 CURVE SMOOTH",
"423 776 OFFCURVE",
"367 759 OFFCURVE",
"342 714 CURVE SMOOTH",
"266 576 LINE",
"191 714 LINE SMOOTH",
"166 759 OFFCURVE",
"110 776 OFFCURVE",
"64 751 CURVE SMOOTH",
"19 726 OFFCURVE",
"2 669 OFFCURVE",
"27 624 CURVE SMOOTH",
"160 380 LINE",
"28 138 LINE SMOOTH",
"3 93 OFFCURVE",
"20 36 OFFCURVE",
"65 11 CURVE SMOOTH",
"110 -14 OFFCURVE",
"167 3 OFFCURVE",
"192 48 CURVE SMOOTH",
"266 185 LINE",
"341 48 LINE SMOOTH",
"366 3 OFFCURVE",
"423 -14 OFFCURVE",
"468 11 CURVE SMOOTH",
"513 36 OFFCURVE",
"530 93 OFFCURVE",
"505 138 CURVE SMOOTH"
);
}
);
width = 533;
}
);
leftKerningGroup = "= \"@MMK_R_X.alt\"";
rightKerningGroup = "= \"@MMK_L_X.alt\"";
},
{
glyphname = Y.alt;
layers = (
{
layerId = "89B76552-B35F-455B-86D9-BC5A433DF1B4";
paths = (
{
closed = 1;
nodes = (
"407 763 OFFCURVE",
"365 721 OFFCURVE",
"365 670 CURVE SMOOTH",
"365 564 LINE SMOOTH",
"365 523 OFFCURVE",
"332 489 OFFCURVE",
"290 489 CURVE SMOOTH",
"249 489 OFFCURVE",
"215 523 OFFCURVE",
"215 564 CURVE SMOOTH",
"215 670 LINE SMOOTH",
"215 721 OFFCURVE",
"174 763 OFFCURVE",
"122 763 CURVE SMOOTH",
"70 763 OFFCURVE",
"28 721 OFFCURVE",
"28 670 CURVE SMOOTH",
"28 564 LINE SMOOTH",
"28 420 OFFCURVE",
"146 302 OFFCURVE",
"290 302 CURVE SMOOTH",
"317 302 OFFCURVE",
"342 306 OFFCURVE",
"365 313 CURVE",
"365 245 LINE SMOOTH",
"365 203 OFFCURVE",
"332 170 OFFCURVE",
"290 170 CURVE SMOOTH",
"249 170 OFFCURVE",
"215 203 OFFCURVE",
"215 245 CURVE SMOOTH",
"215 246 LINE",
"215 246 OFFCURVE",
"215 246 OFFCURVE",
"215 246 CURVE",
"216 297 OFFCURVE",
"174 339 OFFCURVE",
"123 340 CURVE SMOOTH",
"71 340 OFFCURVE",
"29 299 OFFCURVE",
"28 247 CURVE SMOOTH",
"28 245 LINE",
"28 245 LINE",
"28 100 OFFCURVE",
"146 -17 OFFCURVE",
"290 -17 CURVE SMOOTH",
"435 -17 OFFCURVE",
"553 100 OFFCURVE",
"553 245 CURVE SMOOTH",
"553 564 LINE",
"553 670 LINE SMOOTH",
"553 721 OFFCURVE",
"511 763 OFFCURVE",
"459 763 CURVE SMOOTH"
);
}
);
width = 581;
}
);
rightKerningGroup = "= \"@MMK_L_space\"";
},
{
glyphname = C_O;
layers = (
{
layerId = "89B76552-B35F-455B-86D9-BC5A433DF1B4";
paths = (
{
closed = 1;
nodes = (
"292 574 OFFCURVE",
"204 487 OFFCURVE",
"204 380 CURVE SMOOTH",
"204 272 OFFCURVE",
"292 185 OFFCURVE",
"399 185 CURVE SMOOTH",
"506 185 OFFCURVE",
"594 272 OFFCURVE",
"594 380 CURVE SMOOTH",
"594 487 OFFCURVE",
"506 574 OFFCURVE",
"399 574 CURVE SMOOTH"
);
},
{
closed = 1;
nodes = (
"379 343 OFFCURVE",
"363 360 OFFCURVE",
"363 380 CURVE SMOOTH",
"363 399 OFFCURVE",
"379 416 OFFCURVE",
"399 416 CURVE SMOOTH",
"419 416 OFFCURVE",
"435 399 OFFCURVE",
"435 380 CURVE SMOOTH",
"435 360 OFFCURVE",
"419 343 OFFCURVE",
"399 343 CURVE SMOOTH"
);
},
{
closed = 1;
nodes = (
"667 340 OFFCURVE",
"610 324 OFFCURVE",
"585 278 CURVE SMOOTH",
"548 210 OFFCURVE",
"477 168 OFFCURVE",
"399 168 CURVE SMOOTH",
"282 168 OFFCURVE",
"187 263 OFFCURVE",
"187 380 CURVE SMOOTH",
"187 496 OFFCURVE",
"282 592 OFFCURVE",
"399 592 CURVE SMOOTH",
"476 592 OFFCURVE",
"548 549 OFFCURVE",
"585 481 CURVE SMOOTH",
"610 436 OFFCURVE",
"667 419 OFFCURVE",
"712 444 CURVE SMOOTH",
"757 469 OFFCURVE",
"774 526 OFFCURVE",
"749 571 CURVE SMOOTH",
"679 699 OFFCURVE",
"545 779 OFFCURVE",
"399 779 CURVE SMOOTH",
"179 779 OFFCURVE",
"0 600 OFFCURVE",
"0 380 CURVE SMOOTH",
"0 159 OFFCURVE",
"179 -20 OFFCURVE",
"399 -20 CURVE SMOOTH",
"545 -20 OFFCURVE",
"680 60 OFFCURVE",
"750 189 CURVE SMOOTH",
"774 234 OFFCURVE",
"758 291 OFFCURVE",
"712 316 CURVE SMOOTH"
);
}
);
width = 762;
}
);
leftKerningGroup = "= \"@MMK_R_G\"";
rightKerningGroup = "= \"@MMK_L_G\"";
},
{
glyphname = L_A;
layers = (
{
layerId = "89B76552-B35F-455B-86D9-BC5A433DF1B4";
paths = (
{
closed = 1;
nodes = (
"217 187 LINE",
"217 669 LINE SMOOTH",
"217 721 OFFCURVE",
"175 763 OFFCURVE",
"123 763 CURVE SMOOTH",
"72 763 OFFCURVE",
"30 721 OFFCURVE",
"30 669 CURVE SMOOTH",
"30 93 LINE SMOOTH",
"30 42 OFFCURVE",
"72 0 OFFCURVE",
"123 0 CURVE SMOOTH",
"400 0 LINE SMOOTH",
"452 0 OFFCURVE",
"493 42 OFFCURVE",
"493 93 CURVE SMOOTH",
"493 145 OFFCURVE",
"452 187 OFFCURVE",
"400 187 CURVE SMOOTH"
);
},
{
closed = 1;
nodes = (
"374 780 OFFCURVE",
"257 663 OFFCURVE",
"257 518 CURVE SMOOTH",
"257 285 LINE SMOOTH",
"257 233 OFFCURVE",
"298 191 OFFCURVE",
"350 191 CURVE SMOOTH",
"402 191 OFFCURVE",
"444 233 OFFCURVE",
"444 285 CURVE SMOOTH",
"444 304 LINE",
"594 304 LINE",
"594 93 LINE SMOOTH",
"594 42 OFFCURVE",
"636 0 OFFCURVE",
"687 0 CURVE SMOOTH",
"739 0 OFFCURVE",
"781 42 OFFCURVE",
"781 93 CURVE SMOOTH",
"781 518 LINE SMOOTH",
"781 663 OFFCURVE",
"663 780 OFFCURVE",
"519 780 CURVE SMOOTH"
);
},
{
closed = 1;
nodes = (
"444 491 LINE",
"444 518 LINE SMOOTH",
"444 560 OFFCURVE",
"477 593 OFFCURVE",
"519 593 CURVE SMOOTH",
"560 593 OFFCURVE",
"594 560 OFFCURVE",
"594 518 CURVE SMOOTH",
"594 491 LINE"
);
}
);
width = 811;
}
);
rightKerningGroup = "= \"@MMK_L_L_A\"";
},
{
glyphname = L_Aacute;
layers = (
{
layerId = "89B76552-B35F-455B-86D9-BC5A433DF1B4";
paths = (
{
closed = 1;
nodes = (
"217 187 LINE",
"217 669 LINE SMOOTH",
"217 721 OFFCURVE",
"175 763 OFFCURVE",
"123 763 CURVE SMOOTH",
"72 763 OFFCURVE",
"30 721 OFFCURVE",
"30 669 CURVE SMOOTH",
"30 93 LINE SMOOTH",
"30 42 OFFCURVE",
"72 0 OFFCURVE",
"123 0 CURVE SMOOTH",
"400 0 LINE SMOOTH",
"452 0 OFFCURVE",
"493 42 OFFCURVE",
"493 93 CURVE SMOOTH",
"493 145 OFFCURVE",
"452 187 OFFCURVE",
"400 187 CURVE SMOOTH"
);
},
{
closed = 1;
nodes = (
"374 780 OFFCURVE",
"257 663 OFFCURVE",
"257 518 CURVE SMOOTH",
"257 285 LINE SMOOTH",
"257 233 OFFCURVE",
"298 191 OFFCURVE",
"350 191 CURVE SMOOTH",
"402 191 OFFCURVE",
"444 233 OFFCURVE",
"444 285 CURVE SMOOTH",
"444 304 LINE",
"594 304 LINE",
"594 93 LINE SMOOTH",
"594 42 OFFCURVE",
"636 0 OFFCURVE",
"687 0 CURVE SMOOTH",
"739 0 OFFCURVE",
"781 42 OFFCURVE",
"781 93 CURVE SMOOTH",
"781 518 LINE SMOOTH",
"781 663 OFFCURVE",
"663 780 OFFCURVE",
"519 780 CURVE SMOOTH"
);
},
{
closed = 1;
nodes = (
"444 491 LINE",
"444 518 LINE SMOOTH",
"444 560 OFFCURVE",
"477 593 OFFCURVE",
"519 593 CURVE SMOOTH",
"560 593 OFFCURVE",
"594 560 OFFCURVE",
"594 518 CURVE SMOOTH",
"594 491 LINE"
);
},
{
closed = 1;
nodes = (
"581 890 LINE",
"581 890 LINE",
"550 868 OFFCURVE",
"543 826 OFFCURVE",
"565 795 CURVE SMOOTH",
"587 765 OFFCURVE",
"630 758 OFFCURVE",
"660 780 CURVE SMOOTH",
"746 842 LINE SMOOTH",
"777 864 OFFCURVE",
"784 906 OFFCURVE",
"762 937 CURVE SMOOTH",
"740 967 OFFCURVE",
"697 974 OFFCURVE",
"667 952 CURVE SMOOTH"
);
}
);
width = 811;
}
);
rightKerningGroup = "= \"@MMK_L_L_A\"";
},
{
glyphname = L_Atilde;
layers = (
{
layerId = "89B76552-B35F-455B-86D9-BC5A433DF1B4";
paths = (
{
closed = 1;
nodes = (
"217 187 LINE",
"217 669 LINE SMOOTH",
"217 721 OFFCURVE",
"175 763 OFFCURVE",
"123 763 CURVE SMOOTH",
"72 763 OFFCURVE",
"30 721 OFFCURVE",
"30 669 CURVE SMOOTH",
"30 93 LINE SMOOTH",
"30 42 OFFCURVE",
"72 0 OFFCURVE",
"123 0 CURVE SMOOTH",
"400 0 LINE SMOOTH",
"452 0 OFFCURVE",
"493 42 OFFCURVE",
"493 93 CURVE SMOOTH",
"493 145 OFFCURVE",
"452 187 OFFCURVE",
"400 187 CURVE SMOOTH"
);
},
{
closed = 1;
nodes = (
"374 780 OFFCURVE",
"257 663 OFFCURVE",
"257 518 CURVE SMOOTH",
"257 285 LINE SMOOTH",
"257 233 OFFCURVE",
"298 191 OFFCURVE",
"350 191 CURVE SMOOTH",
"402 191 OFFCURVE",
"444 233 OFFCURVE",
"444 285 CURVE SMOOTH",
"444 304 LINE",
"594 304 LINE",
"594 93 LINE SMOOTH",
"594 42 OFFCURVE",
"636 0 OFFCURVE",
"687 0 CURVE SMOOTH",
"739 0 OFFCURVE",
"781 42 OFFCURVE",
"781 93 CURVE SMOOTH",
"781 518 LINE SMOOTH",
"781 663 OFFCURVE",
"663 780 OFFCURVE",
"519 780 CURVE SMOOTH"
);
},
{
closed = 1;
nodes = (
"444 491 LINE",
"444 518 LINE SMOOTH",
"444 560 OFFCURVE",
"477 593 OFFCURVE",
"519 593 CURVE SMOOTH",
"560 593 OFFCURVE",
"594 560 OFFCURVE",
"594 518 CURVE SMOOTH",
"594 491 LINE"
);
},
{
closed = 1;
nodes = (
"629 949 OFFCURVE",
"600 938 OFFCURVE",
"583 916 CURVE",
"582 917 OFFCURVE",
"580 918 OFFCURVE",
"579 918 CURVE",
"574 921 LINE",
"574 921 OFFCURVE",
"570 923 OFFCURVE",
"570 923 CURVE",
"552 932 OFFCURVE",
"520 948 OFFCURVE",
"476 943 CURVE SMOOTH",
"424 936 OFFCURVE",
"394 896 OFFCURVE",
"385 864 CURVE SMOOTH",
"374 828 OFFCURVE",
"394 790 OFFCURVE",
"430 779 CURVE SMOOTH",
"458 770 OFFCURVE",
"488 781 OFFCURVE",
"504 803 CURVE",
"506 803 OFFCURVE",
"507 802 OFFCURVE",
"509 801 CURVE SMOOTH",
"513 799 LINE",
"513 799 OFFCURVE",
"517 797 OFFCURVE",
"517 797 CURVE",
"536 788 OFFCURVE",
"567 772 OFFCURVE",
"611 777 CURVE SMOOTH",
"663 783 OFFCURVE",
"693 823 OFFCURVE",
"703 856 CURVE SMOOTH",
"714 892 OFFCURVE",
"693 930 OFFCURVE",
"657 941 CURVE SMOOTH"
);
}
);
width = 811;
}
);
rightKerningGroup = "= \"@MMK_L_L_A\"";
},
{
glyphname = c_a;
layers = (
{
layerId = "89B76552-B35F-455B-86D9-BC5A433DF1B4";
paths = (
{
closed = 1;
nodes = (
"953 771 OFFCURVE",
"910 756 OFFCURVE",
"887 722 CURVE SMOOTH",
"576 265 LINE",
"576 264 OFFCURVE",
"576 264 OFFCURVE",
"576 264 CURVE",
"536 205 OFFCURVE",
"470 170 OFFCURVE",
"399 170 CURVE SMOOTH",
"282 170 OFFCURVE",
"187 265 OFFCURVE",
"187 382 CURVE SMOOTH",
"187 498 OFFCURVE",
"282 594 OFFCURVE",
"399 594 CURVE SMOOTH",
"459 594 OFFCURVE",
"516 568 OFFCURVE",
"556 524 CURVE SMOOTH",
"591 486 OFFCURVE",
"650 483 OFFCURVE",
"688 518 CURVE SMOOTH",
"726 553 OFFCURVE",
"729 612 OFFCURVE",
"694 650 CURVE SMOOTH",
"619 733 OFFCURVE",
"511 781 OFFCURVE",
"399 781 CURVE SMOOTH",
"179 781 OFFCURVE",
"0 602 OFFCURVE",
"0 382 CURVE SMOOTH",
"0 161 OFFCURVE",
"179 -18 OFFCURVE",
"399 -18 CURVE SMOOTH",
"533 -18 OFFCURVE",
"657 49 OFFCURVE",
"731 160 CURVE SMOOTH",
"871 365 LINE",
"871 94 LINE SMOOTH",
"871 42 OFFCURVE",
"913 0 OFFCURVE",
"964 0 CURVE SMOOTH",
"1016 0 OFFCURVE",
"1058 42 OFFCURVE",
"1058 94 CURVE SMOOTH",
"1058 669 LINE SMOOTH",
"1058 711 OFFCURVE",
"1031 747 OFFCURVE",
"992 759 CURVE SMOOTH"
);
}
);
width = 1088;
}
);
leftKerningGroup = "= \"@MMK_R_c_a\"";
rightKerningGroup = "= \"@MMK_L_space\"";
},
{
glyphname = c_o;
layers = (
{
layerId = "89B76552-B35F-455B-86D9-BC5A433DF1B4";
paths = (
{
closed = 1;
nodes = (
"693 780 OFFCURVE",
"632 764 OFFCURVE",
"578 737 CURVE",
"524 765 OFFCURVE",
"463 780 OFFCURVE",
"399 780 CURVE SMOOTH",
"179 780 OFFCURVE",
"0 601 OFFCURVE",
"0 381 CURVE SMOOTH",
"0 160 OFFCURVE",
"179 -19 OFFCURVE",
"399 -19 CURVE SMOOTH",
"463 -19 OFFCURVE",
"524 -4 OFFCURVE",
"578 24 CURVE",
"632 -3 OFFCURVE",
"693 -19 OFFCURVE",
"757 -19 CURVE SMOOTH",
"977 -19 OFFCURVE",
"1156 160 OFFCURVE",
"1156 381 CURVE SMOOTH",
"1156 601 OFFCURVE",
"977 780 OFFCURVE",
"757 780 CURVE SMOOTH"
);
},
{
closed = 1;
nodes = (
"187 497 OFFCURVE",
"283 593 OFFCURVE",
"399 593 CURVE SMOOTH",
"406 593 OFFCURVE",
"412 592 OFFCURVE",
"418 592 CURVE",
"380 530 OFFCURVE",
"358 458 OFFCURVE",
"358 381 CURVE SMOOTH",
"358 303 OFFCURVE",
"380 231 OFFCURVE",
"418 169 CURVE",
"412 169 OFFCURVE",
"406 169 OFFCURVE",
"399 169 CURVE SMOOTH",
"283 169 OFFCURVE",
"187 264 OFFCURVE",
"187 381 CURVE SMOOTH"
);
},
{
closed = 1;
nodes = (
"750 169 OFFCURVE",
"744 169 OFFCURVE",
"738 169 CURVE",
"742 176 OFFCURVE",
"746 183 OFFCURVE",
"750 190 CURVE SMOOTH",
"775 235 OFFCURVE",
"758 292 OFFCURVE",
"713 317 CURVE SMOOTH",
"667 341 OFFCURVE",
"610 325 OFFCURVE",
"586 279 CURVE",
"583 275 OFFCURVE",
"581 271 OFFCURVE",
"578 267 CURVE",
"557 300 OFFCURVE",
"545 339 OFFCURVE",
"545 381 CURVE SMOOTH",
"545 422 OFFCURVE",
"557 462 OFFCURVE",
"578 495 CURVE",
"581 490 OFFCURVE",
"583 486 OFFCURVE",
"585 482 CURVE",
"610 437 OFFCURVE",
"667 420 OFFCURVE",
"712 445 CURVE SMOOTH",
"758 470 OFFCURVE",
"774 527 OFFCURVE",
"750 572 CURVE SMOOTH",
"746 579 OFFCURVE",
"742 585 OFFCURVE",
"738 592 CURVE",
"744 592 OFFCURVE",
"750 593 OFFCURVE",
"757 593 CURVE SMOOTH",
"874 593 OFFCURVE",
"969 497 OFFCURVE",
"969 381 CURVE SMOOTH",
"969 264 OFFCURVE",
"874 169 OFFCURVE",
"757 169 CURVE SMOOTH"
);
}
);
width = 1156;
}
);
leftKerningGroup = "= \"@MMK_R_G\"";
rightKerningGroup = "= \"@MMK_L_G\"";
},
{
glyphname = c_o_o;
layers = (
{
layerId = "89B76552-B35F-455B-86D9-BC5A433DF1B4";
paths = (
{
closed = 1;
nodes = (
"1380 738 OFFCURVE",
"1280 780 OFFCURVE",
"1175 780 CURVE SMOOTH",
"1107 780 OFFCURVE",
"1044 763 OFFCURVE",
"988 733 CURVE",
"933 763 OFFCURVE",
"869 780 OFFCURVE",
"802 780 CURVE SMOOTH",
"732 780 OFFCURVE",
"665 761 OFFCURVE",
"608 729 CURVE",
"550 762 OFFCURVE",
"483 780 OFFCURVE",
"414 780 CURVE SMOOTH",
"194 780 OFFCURVE",
"15 601 OFFCURVE",
"15 380 CURVE SMOOTH",
"15 160 OFFCURVE",
"194 -19 OFFCURVE",
"414 -19 CURVE SMOOTH",
"483 -19 OFFCURVE",
"550 -1 OFFCURVE",
"608 32 CURVE",
"665 0 OFFCURVE",
"732 -19 OFFCURVE",
"802 -19 CURVE SMOOTH",
"869 -19 OFFCURVE",
"933 -2 OFFCURVE",
"988 28 CURVE",
"1044 -2 OFFCURVE",
"1107 -19 OFFCURVE",
"1175 -19 CURVE SMOOTH",
"1395 -19 OFFCURVE",
"1574 160 OFFCURVE",
"1574 380 CURVE SMOOTH",
"1574 487 OFFCURVE",
"1532 587 OFFCURVE",
"1455 663 CURVE SMOOTH"
);
},
{
closed = 1;
nodes = (
"963 417 OFFCURVE",
"972 451 OFFCURVE",
"988 482 CURVE",
"1005 451 OFFCURVE",
"1014 417 OFFCURVE",
"1014 380 CURVE SMOOTH",
"1014 344 OFFCURVE",
"1005 309 OFFCURVE",
"988 279 CURVE",
"972 309 OFFCURVE",
"963 344 OFFCURVE",
"963 380 CURVE SMOOTH"
);
},
{
closed = 1;
nodes = (
"202 497 OFFCURVE",
"297 592 OFFCURVE",
"414 592 CURVE SMOOTH",
"430 592 OFFCURVE",
"445 591 OFFCURVE",
"461 587 CURVE",
"424 527 OFFCURVE",
"403 456 OFFCURVE",
"403 380 CURVE SMOOTH",
"403 305 OFFCURVE",
"424 234 OFFCURVE",
"461 174 CURVE",
"445 170 OFFCURVE",
"430 168 OFFCURVE",
"414 168 CURVE SMOOTH",
"297 168 OFFCURVE",
"202 264 OFFCURVE",
"202 380 CURVE SMOOTH"
);
},
{
closed = 1;
nodes = (
"758 179 OFFCURVE",
"761 184 OFFCURVE",
"764 190 CURVE",
"789 235 OFFCURVE",
"772 292 OFFCURVE",
"727 317 CURVE SMOOTH",
"686 339 OFFCURVE",
"637 328 OFFCURVE",
"609 293 CURVE",
"597 319 OFFCURVE",
"590 349 OFFCURVE",
"590 380 CURVE SMOOTH",
"590 412 OFFCURVE",
"597 442 OFFCURVE",
"609 468 CURVE",
"637 434 OFFCURVE",
"686 423 OFFCURVE",
"727 445 CURVE SMOOTH",
"772 470 OFFCURVE",
"789 527 OFFCURVE",
"764 572 CURVE SMOOTH",
"761 577 OFFCURVE",
"758 582 OFFCURVE",
"755 587 CURVE",
"770 591 OFFCURVE",
"786 592 OFFCURVE",
"802 592 CURVE SMOOTH",
"813 592 OFFCURVE",
"824 592 OFFCURVE",
"835 590 CURVE",
"797 529 OFFCURVE",
"775 457 OFFCURVE",
"775 380 CURVE SMOOTH",
"775 304 OFFCURVE",
"797 232 OFFCURVE",
"835 171 CURVE",
"824 169 OFFCURVE",
"813 168 OFFCURVE",
"802 168 CURVE SMOOTH",
"786 168 OFFCURVE",
"770 170 OFFCURVE",
"755 174 CURVE"
);
},
{
closed = 1;
nodes = (
"1163 168 OFFCURVE",
"1152 169 OFFCURVE",
"1142 171 CURVE",
"1179 232 OFFCURVE",
"1201 304 OFFCURVE",
"1201 380 CURVE SMOOTH",
"1201 457 OFFCURVE",
"1179 529 OFFCURVE",
"1142 590 CURVE",
"1152 592 OFFCURVE",
"1163 592 OFFCURVE",
"1175 592 CURVE SMOOTH",
"1289 592 OFFCURVE",
"1387 495 OFFCURVE",
"1387 380 CURVE SMOOTH",
"1387 264 OFFCURVE",
"1291 168 OFFCURVE",
"1175 168 CURVE SMOOTH"
);
}
);
width = 1589;
}
);
leftKerningGroup = "= \"@MMK_R_G\"";
rightKerningGroup = "= \"@MMK_L_G\"";
},
{
glyphname = e_a;
layers = (
{
layerId = "89B76552-B35F-455B-86D9-BC5A433DF1B4";
paths = (
{
closed = 1;
nodes = (
"762 771 OFFCURVE",
"720 756 OFFCURVE",
"697 722 CURVE SMOOTH",
"343 202 LINE SMOOTH",
"330 182 OFFCURVE",
"309 171 OFFCURVE",
"285 170 CURVE SMOOTH",
"265 169 OFFCURVE",
"246 176 OFFCURVE",
"231 190 CURVE SMOOTH",
"217 203 OFFCURVE",
"209 222 OFFCURVE",
"208 242 CURVE SMOOTH",
"207 261 OFFCURVE",
"214 280 OFFCURVE",
"228 295 CURVE SMOOTH",
"242 310 OFFCURVE",
"261 318 OFFCURVE",
"281 319 CURVE SMOOTH",
"313 320 OFFCURVE",
"341 338 OFFCURVE",
"357 363 CURVE",
"357 363 OFFCURVE",
"357 363 OFFCURVE",
"357 363 CURVE",
"359 366 OFFCURVE",
"360 368 OFFCURVE",
"361 371 CURVE",
"362 372 OFFCURVE",
"362 373 OFFCURVE",
"363 374 CURVE",
"363 374 OFFCURVE",
"363 375 OFFCURVE",
"363 375 CURVE",
"369 387 OFFCURVE",
"372 401 OFFCURVE",
"371 416 CURVE SMOOTH",
"369 467 OFFCURVE",
"326 508 OFFCURVE",
"274 506 CURVE SMOOTH",
"250 505 OFFCURVE",
"230 524 OFFCURVE",
"229 548 CURVE SMOOTH",
"228 573 OFFCURVE",
"247 593 OFFCURVE",
"271 594 CURVE SMOOTH",
"296 595 OFFCURVE",
"316 576 OFFCURVE",
"317 551 CURVE",
"317 551 OFFCURVE",
"317 550 OFFCURVE",
"317 550 CURVE",
"317 498 OFFCURVE",
"358 456 OFFCURVE",
"410 456 CURVE",
"410 456 OFFCURVE",
"410 456 OFFCURVE",
"410 456 CURVE",
"462 456 OFFCURVE",
"504 498 OFFCURVE",
"504 549 CURVE SMOOTH",
"504 552 OFFCURVE",
"504 555 OFFCURVE",
"504 558 CURVE",
"499 685 OFFCURVE",
"392 785 OFFCURVE",
"265 781 CURVE SMOOTH",
"138 776 OFFCURVE",
"38 669 OFFCURVE",
"42 542 CURVE SMOOTH",
"44 495 OFFCURVE",
"59 451 OFFCURVE",
"85 416 CURVE",
"41 365 OFFCURVE",
"19 302 OFFCURVE",
"21 235 CURVE SMOOTH",
"23 165 OFFCURVE",
"53 101 OFFCURVE",
"104 53 CURVE SMOOTH",
"153 7 OFFCURVE",
"216 -17 OFFCURVE",
"282 -17 CURVE SMOOTH",
"285 -17 OFFCURVE",
"288 -17 OFFCURVE",
"291 -17 CURVE",
"374 -14 OFFCURVE",
"451 28 OFFCURVE",
"498 96 CURVE",
"498 96 OFFCURVE",
"498 96 OFFCURVE",
"498 96 CURVE",
"681 365 LINE",
"681 94 LINE SMOOTH",
"681 42 OFFCURVE",
"722 0 OFFCURVE",
"774 0 CURVE SMOOTH",
"826 0 OFFCURVE",
"868 42 OFFCURVE",
"868 94 CURVE SMOOTH",
"868 669 LINE SMOOTH",
"868 710 OFFCURVE",
"841 747 OFFCURVE",
"802 759 CURVE SMOOTH"
);
}
);
width = 898;
}
);
rightKerningGroup = "= \"@MMK_L_space\"";
},
{
glyphname = e_s;
layers = (
{
layerId = "89B76552-B35F-455B-86D9-BC5A433DF1B4";
paths = (
{
closed = 1;
nodes = (
"628 506 OFFCURVE",
"612 522 OFFCURVE",
"612 541 CURVE SMOOTH",
"612 561 OFFCURVE",
"628 576 OFFCURVE",
"647 576 CURVE SMOOTH",
"734 576 LINE SMOOTH",
"786 576 OFFCURVE",
"828 618 OFFCURVE",
"828 670 CURVE SMOOTH",
"828 721 OFFCURVE",
"786 763 OFFCURVE",
"734 763 CURVE SMOOTH",
"647 763 LINE SMOOTH",
"524 763 OFFCURVE",
"425 664 OFFCURVE",
"425 541 CURVE SMOOTH",
"425 419 OFFCURVE",
"524 319 OFFCURVE",
"647 319 CURVE SMOOTH",
"683 319 OFFCURVE",
"713 290 OFFCURVE",
"713 253 CURVE SMOOTH",
"713 217 OFFCURVE",
"683 187 OFFCURVE",
"647 187 CURVE SMOOTH",
"217 187 LINE",
"217 319 LINE",
"309 319 LINE SMOOTH",
"360 319 OFFCURVE",
"402 361 OFFCURVE",
"402 413 CURVE SMOOTH",
"402 465 OFFCURVE",
"360 506 OFFCURVE",
"309 506 CURVE SMOOTH",
"217 506 LINE",
"217 576 LINE",
"353 576 LINE SMOOTH",
"405 576 OFFCURVE",
"447 618 OFFCURVE",
"447 670 CURVE SMOOTH",
"447 721 OFFCURVE",
"405 763 OFFCURVE",
"353 763 CURVE SMOOTH",
"123 763 LINE SMOOTH",
"71 763 OFFCURVE",
"30 721 OFFCURVE",
"30 670 CURVE SMOOTH",
"30 94 LINE SMOOTH",
"30 42 OFFCURVE",
"71 0 OFFCURVE",
"123 0 CURVE SMOOTH",
"647 0 LINE SMOOTH",
"786 0 OFFCURVE",
"900 114 OFFCURVE",
"900 253 CURVE SMOOTH",
"900 393 OFFCURVE",
"786 506 OFFCURVE",
"647 506 CURVE SMOOTH"
);
}
);
width = 920;
}
);
rightKerningGroup = "= \"@MMK_L_r_s\"";
},
{
glyphname = g_a;
layers = (
{
layerId = "89B76552-B35F-455B-86D9-BC5A433DF1B4";
paths = (
{
closed = 1;
nodes = (
"952 771 OFFCURVE",
"910 756 OFFCURVE",
"887 722 CURVE SMOOTH",
"719 475 LINE",
"400 475 LINE SMOOTH",
"348 475 OFFCURVE",
"306 433 OFFCURVE",
"306 382 CURVE SMOOTH",
"306 330 OFFCURVE",
"348 288 OFFCURVE",
"400 288 CURVE SMOOTH",
"589 288 LINE",
"555 218 OFFCURVE",
"482 170 OFFCURVE",
"399 170 CURVE SMOOTH",
"282 170 OFFCURVE",
"187 265 OFFCURVE",
"187 382 CURVE SMOOTH",
"187 498 OFFCURVE",
"282 594 OFFCURVE",
"399 594 CURVE SMOOTH",
"464 594 OFFCURVE",
"524 565 OFFCURVE",
"564 514 CURVE SMOOTH",
"597 474 OFFCURVE",
"656 467 OFFCURVE",
"696 500 CURVE SMOOTH",
"736 532 OFFCURVE",
"743 591 OFFCURVE",
"710 631 CURVE SMOOTH",
"634 726 OFFCURVE",
"521 781 OFFCURVE",
"399 781 CURVE SMOOTH",
"179 781 OFFCURVE",
"0 602 OFFCURVE",
"0 382 CURVE SMOOTH",
"0 162 OFFCURVE",
"179 -18 OFFCURVE",
"399 -18 CURVE SMOOTH",
"536 -18 OFFCURVE",
"657 52 OFFCURVE",
"728 157 CURVE",
"729 158 OFFCURVE",
"730 159 OFFCURVE",
"731 160 CURVE",
"870 365 LINE",
"870 94 LINE SMOOTH",
"870 42 OFFCURVE",
"912 0 OFFCURVE",
"964 0 CURVE SMOOTH",
"1016 0 OFFCURVE",
"1058 42 OFFCURVE",
"1058 94 CURVE SMOOTH",
"1058 669 LINE SMOOTH",
"1058 711 OFFCURVE",
"1031 747 OFFCURVE",
"992 759 CURVE SMOOTH"
);
}
);
width = 1088;
}
);
leftKerningGroup = "= \"@MMK_R_c_a\"";
rightKerningGroup = "= \"@MMK_L_space\"";
},
{
glyphname = g_o_o;
layers = (
{
layerId = "89B76552-B35F-455B-86D9-BC5A433DF1B4";
paths = (
{
closed = 1;
nodes = (
"1376 779 OFFCURVE",
"1316 763 OFFCURVE",
"1262 736 CURVE",
"1208 763 OFFCURVE",
"1148 779 OFFCURVE",
"1083 779 CURVE SMOOTH",
"896 779 OFFCURVE",
"738 649 OFFCURVE",
"696 474 CURVE",
"414 474 LINE SMOOTH",
"363 474 OFFCURVE",
"321 432 OFFCURVE",
"321 380 CURVE SMOOTH",
"321 329 OFFCURVE",
"363 287 OFFCURVE",
"414 287 CURVE SMOOTH",
"604 287 LINE",
"569 217 OFFCURVE",
"497 168 OFFCURVE",
"414 168 CURVE SMOOTH",
"297 168 OFFCURVE",
"202 263 OFFCURVE",
"202 380 CURVE SMOOTH",
"202 497 OFFCURVE",
"297 592 OFFCURVE",
"414 592 CURVE SMOOTH",
"472 592 OFFCURVE",
"526 569 OFFCURVE",
"567 527 CURVE SMOOTH",
"602 490 OFFCURVE",
"662 488 OFFCURVE",
"699 524 CURVE SMOOTH",
"736 560 OFFCURVE",
"738 619 OFFCURVE",
"702 656 CURVE SMOOTH",
"626 736 OFFCURVE",
"523 779 OFFCURVE",
"414 779 CURVE SMOOTH",
"194 779 OFFCURVE",
"15 600 OFFCURVE",
"15 380 CURVE SMOOTH",
"15 160 OFFCURVE",
"194 -19 OFFCURVE",
"414 -19 CURVE SMOOTH",
"554 -19 OFFCURVE",
"677 54 OFFCURVE",
"748 163 CURVE",
"819 53 OFFCURVE",
"943 -20 OFFCURVE",
"1083 -20 CURVE SMOOTH",
"1148 -20 OFFCURVE",
"1208 -4 OFFCURVE",
"1262 23 CURVE",
"1316 -4 OFFCURVE",
"1376 -20 OFFCURVE",
"1441 -20 CURVE SMOOTH",
"1661 -20 OFFCURVE",
"1840 159 OFFCURVE",
"1840 379 CURVE SMOOTH",
"1840 600 OFFCURVE",
"1661 779 OFFCURVE",
"1441 779 CURVE SMOOTH"
);
},
{
closed = 1;
nodes = (
"1241 298 OFFCURVE",
"1229 338 OFFCURVE",
"1229 379 CURVE SMOOTH",
"1229 421 OFFCURVE",
"1241 460 OFFCURVE",
"1262 493 CURVE",
"1283 460 OFFCURVE",
"1295 421 OFFCURVE",
"1295 379 CURVE SMOOTH",
"1295 338 OFFCURVE",
"1283 298 OFFCURVE",
"1262 266 CURVE"
);
},
{
closed = 1;
nodes = (
"871 496 OFFCURVE",
"966 591 OFFCURVE",
"1083 591 CURVE SMOOTH",
"1090 591 OFFCURVE",
"1096 591 OFFCURVE",
"1102 591 CURVE",
"1064 529 OFFCURVE",
"1042 457 OFFCURVE",
"1042 379 CURVE SMOOTH",
"1042 302 OFFCURVE",
"1064 230 OFFCURVE",
"1102 168 CURVE",
"1096 168 OFFCURVE",
"1090 167 OFFCURVE",
"1083 167 CURVE SMOOTH",
"966 167 OFFCURVE",
"871 263 OFFCURVE",
"871 379 CURVE SMOOTH"
);
},
{
closed = 1;
nodes = (
"1434 167 OFFCURVE",
"1428 168 OFFCURVE",
"1422 168 CURVE",
"1460 230 OFFCURVE",
"1482 302 OFFCURVE",
"1482 379 CURVE SMOOTH",
"1482 457 OFFCURVE",
"1460 529 OFFCURVE",
"1422 591 CURVE",
"1428 591 OFFCURVE",
"1434 591 OFFCURVE",
"1441 591 CURVE SMOOTH",
"1558 591 OFFCURVE",
"1653 496 OFFCURVE",
"1653 379 CURVE SMOOTH",
"1653 263 OFFCURVE",
"1558 167 OFFCURVE",
"1441 167 CURVE SMOOTH"
);
}
);
width = 1855;
}
);
leftKerningGroup = "= \"@MMK_R_G\"";
rightKerningGroup = "= \"@MMK_L_G\"";
},
{
glyphname = l_a;
layers = (
{
layerId = "89B76552-B35F-455B-86D9-BC5A433DF1B4";
paths = (
{
closed = 1;
nodes = (
"436 0 OFFCURVE",
"465 15 OFFCURVE",
"482 41 CURVE SMOOTH",
"703 365 LINE",
"703 94 LINE SMOOTH",
"703 42 OFFCURVE",
"744 0 OFFCURVE",
"796 0 CURVE SMOOTH",
"848 0 OFFCURVE",
"890 42 OFFCURVE",
"890 94 CURVE SMOOTH",
"890 669 LINE SMOOTH",
"890 710 OFFCURVE",
"863 747 OFFCURVE",
"824 759 CURVE SMOOTH",
"784 771 OFFCURVE",
"742 756 OFFCURVE",
"719 722 CURVE SMOOTH",
"355 187 LINE",
"217 187 LINE",
"217 669 LINE SMOOTH",
"217 721 OFFCURVE",
"175 763 OFFCURVE",
"123 763 CURVE SMOOTH",
"72 763 OFFCURVE",
"30 721 OFFCURVE",
"30 669 CURVE SMOOTH",
"30 94 LINE SMOOTH",
"30 42 OFFCURVE",
"72 0 OFFCURVE",
"123 0 CURVE SMOOTH",
"405 0 LINE SMOOTH"
);
}
);
width = 920;
}
);
rightKerningGroup = "= \"@MMK_L_space\"";
},
{
glyphname = l_e;
layers = (
{
layerId = "89B76552-B35F-455B-86D9-BC5A433DF1B4";
paths = (
{
closed = 1;
nodes = (
"217 187 LINE",
"217 669 LINE SMOOTH",
"217 721 OFFCURVE",
"176 763 OFFCURVE",
"124 763 CURVE SMOOTH",
"72 763 OFFCURVE",
"30 721 OFFCURVE",
"30 669 CURVE SMOOTH",
"30 94 LINE SMOOTH",
"30 42 OFFCURVE",
"72 0 OFFCURVE",
"124 0 CURVE SMOOTH",
"401 0 LINE SMOOTH",
"452 0 OFFCURVE",
"494 42 OFFCURVE",
"494 94 CURVE SMOOTH",
"494 145 OFFCURVE",
"452 187 OFFCURVE",
"401 187 CURVE SMOOTH"
);
},
{
closed = 1;
nodes = (
"406 370 LINE",
"406 409 LINE",
"466 409 LINE SMOOTH",
"510 409 OFFCURVE",
"545 444 OFFCURVE",
"545 488 CURVE SMOOTH",
"545 532 OFFCURVE",
"510 567 OFFCURVE",
"466 567 CURVE SMOOTH",
"406 567 LINE",
"406 596 LINE",
"486 596 LINE SMOOTH",
"530 596 OFFCURVE",
"565 632 OFFCURVE",
"565 675 CURVE SMOOTH",
"565 719 OFFCURVE",
"530 755 OFFCURVE",
"486 755 CURVE SMOOTH",
"327 755 LINE SMOOTH",
"283 755 OFFCURVE",
"247 719 OFFCURVE",
"247 675 CURVE SMOOTH",
"247 291 LINE SMOOTH",
"247 247 OFFCURVE",
"283 211 OFFCURVE",
"327 211 CURVE SMOOTH",
"504 211 LINE SMOOTH",
"548 211 OFFCURVE",
"583 247 OFFCURVE",
"583 291 CURVE SMOOTH",
"583 335 OFFCURVE",
"548 370 OFFCURVE",
"504 370 CURVE SMOOTH"
);
}
);
width = 583;
}
);
rightKerningGroup = "= \"@MMK_L_space\"";
},
{
glyphname = l_h;
layers = (
{
layerId = "89B76552-B35F-455B-86D9-BC5A433DF1B4";
paths = (
{
closed = 1;
nodes = (
"217 187 LINE",
"217 669 LINE SMOOTH",
"217 721 OFFCURVE",
"175 763 OFFCURVE",
"123 763 CURVE SMOOTH",
"72 763 OFFCURVE",
"30 721 OFFCURVE",
"30 669 CURVE SMOOTH",
"30 93 LINE SMOOTH",
"30 42 OFFCURVE",
"72 0 OFFCURVE",
"123 0 CURVE SMOOTH",
"400 0 LINE SMOOTH",
"451 0 OFFCURVE",
"493 42 OFFCURVE",
"493 93 CURVE SMOOTH",
"493 145 OFFCURVE",
"451 187 OFFCURVE",
"400 187 CURVE SMOOTH"
);
},
{
closed = 1;
nodes = (
"588 763 OFFCURVE",
"546 721 OFFCURVE",
"546 669 CURVE SMOOTH",
"546 506 LINE",
"443 506 LINE",
"443 670 LINE SMOOTH",
"443 722 OFFCURVE",
"402 763 OFFCURVE",
"350 763 CURVE SMOOTH",
"298 763 OFFCURVE",
"256 722 OFFCURVE",
"256 670 CURVE SMOOTH",
"256 285 LINE SMOOTH",
"256 233 OFFCURVE",
"298 191 OFFCURVE",
"350 191 CURVE SMOOTH",
"402 191 OFFCURVE",
"443 233 OFFCURVE",
"443 285 CURVE SMOOTH",
"443 319 LINE",
"546 319 LINE",
"546 93 LINE SMOOTH",
"546 42 OFFCURVE",
"588 0 OFFCURVE",
"639 0 CURVE SMOOTH",
"691 0 OFFCURVE",
"733 42 OFFCURVE",
"733 93 CURVE SMOOTH",
"733 669 LINE SMOOTH",
"733 721 OFFCURVE",
"691 763 OFFCURVE",
"639 763 CURVE SMOOTH"
);
}
);
width = 763;
}
);
rightKerningGroup = "= \"@MMK_L_space\"";
},
{
glyphname = l_i;
layers = (
{
layerId = "89B76552-B35F-455B-86D9-BC5A433DF1B4";
paths = (
{
closed = 1;
nodes = (
"388 597 OFFCURVE",
"412 607 OFFCURVE",
"430 624 CURVE",
"447 642 OFFCURVE",
"457 666 OFFCURVE",
"457 690 CURVE SMOOTH",
"457 715 OFFCURVE",
"447 739 OFFCURVE",
"430 757 CURVE",
"412 774 OFFCURVE",
"388 784 OFFCURVE",
"363 784 CURVE SMOOTH",
"339 784 OFFCURVE",
"315 774 OFFCURVE",
"297 757 CURVE",
"280 739 OFFCURVE",
"270 715 OFFCURVE",
"270 690 CURVE SMOOTH",
"270 666 OFFCURVE",
"280 642 OFFCURVE",
"297 624 CURVE",
"315 607 OFFCURVE",
"339 597 OFFCURVE",
"363 597 CURVE SMOOTH"
);
},
{
closed = 1;
nodes = (
"415 212 OFFCURVE",
"457 254 OFFCURVE",
"457 306 CURVE SMOOTH",
"457 500 LINE SMOOTH",
"457 551 OFFCURVE",
"415 593 OFFCURVE",
"363 593 CURVE SMOOTH",
"312 593 OFFCURVE",
"270 551 OFFCURVE",
"270 500 CURVE SMOOTH",
"270 306 LINE SMOOTH",
"270 254 OFFCURVE",
"312 212 OFFCURVE",
"363 212 CURVE SMOOTH"
);
},
{
closed = 1;
nodes = (
"400 0 LINE SMOOTH",
"452 0 OFFCURVE",
"494 42 OFFCURVE",
"494 94 CURVE SMOOTH",
"494 146 OFFCURVE",
"452 187 OFFCURVE",
"400 187 CURVE SMOOTH",
"217 187 LINE",
"217 670 LINE SMOOTH",
"217 721 OFFCURVE",
"175 763 OFFCURVE",
"124 763 CURVE SMOOTH",
"72 763 OFFCURVE",
"30 721 OFFCURVE",
"30 670 CURVE SMOOTH",
"30 94 LINE SMOOTH",
"30 42 OFFCURVE",
"72 0 OFFCURVE",
"124 0 CURVE SMOOTH"
);
}
);
width = 494;
}
);
rightKerningGroup = "= \"@MMK_L_space\"";
},
{
glyphname = l_l;
layers = (
{
layerId = "89B76552-B35F-455B-86D9-BC5A433DF1B4";
paths = (
{
closed = 1;
nodes = (
"495 0 LINE SMOOTH",
"547 0 OFFCURVE",
"589 42 OFFCURVE",
"589 93 CURVE SMOOTH",
"589 145 OFFCURVE",
"547 187 OFFCURVE",
"495 187 CURVE SMOOTH",
"217 187 LINE",
"217 669 LINE SMOOTH",
"217 721 OFFCURVE",
"175 763 OFFCURVE",
"123 763 CURVE SMOOTH",
"71 763 OFFCURVE",
"30 721 OFFCURVE",
"30 669 CURVE SMOOTH",
"30 93 LINE SMOOTH",
"30 42 OFFCURVE",
"71 0 OFFCURVE",
"123 0 CURVE SMOOTH"
);
},
{
closed = 1;
nodes = (
"495 227 LINE SMOOTH",
"547 227 OFFCURVE",
"589 268 OFFCURVE",
"589 320 CURVE SMOOTH",
"589 372 OFFCURVE",
"547 414 OFFCURVE",
"495 414 CURVE SMOOTH",
"443 414 LINE",
"443 669 LINE SMOOTH",
"443 721 OFFCURVE",
"402 763 OFFCURVE",
"350 763 CURVE SMOOTH",
"298 763 OFFCURVE",
"256 721 OFFCURVE",
"256 669 CURVE SMOOTH",
"256 320 LINE SMOOTH",
"256 268 OFFCURVE",
"298 227 OFFCURVE",
"350 227 CURVE SMOOTH"
);
}
);
width = 589;
}
);
rightKerningGroup = "= \"@MMK_L_space\"";
},
{
glyphname = l_o;
layers = (
{
layerId = "89B76552-B35F-455B-86D9-BC5A433DF1B4";
paths = (
{
closed = 1;
nodes = (
"217 187 LINE",
"217 670 LINE SMOOTH",
"217 721 OFFCURVE",
"175 763 OFFCURVE",
"124 763 CURVE SMOOTH",
"72 763 OFFCURVE",
"30 721 OFFCURVE",
"30 670 CURVE SMOOTH",
"30 94 LINE SMOOTH",
"30 42 OFFCURVE",
"72 0 OFFCURVE",
"124 0 CURVE SMOOTH",
"400 0 LINE SMOOTH",
"452 0 OFFCURVE",
"494 42 OFFCURVE",
"494 94 CURVE SMOOTH",
"494 146 OFFCURVE",
"452 187 OFFCURVE",
"400 187 CURVE SMOOTH"
);
},
{
closed = 1;
nodes = (
"365 781 OFFCURVE",
"248 663 OFFCURVE",
"248 519 CURVE SMOOTH",
"248 454 LINE SMOOTH",
"248 309 OFFCURVE",
"365 191 OFFCURVE",
"510 191 CURVE SMOOTH",
"654 191 OFFCURVE",
"772 309 OFFCURVE",
"772 454 CURVE SMOOTH",
"772 519 LINE SMOOTH",
"772 663 OFFCURVE",
"654 781 OFFCURVE",
"510 781 CURVE SMOOTH"
);
},
{
closed = 1;
nodes = (
"585 454 LINE SMOOTH",
"585 412 OFFCURVE",
"551 379 OFFCURVE",
"510 379 CURVE SMOOTH",
"468 379 OFFCURVE",
"435 412 OFFCURVE",
"435 454 CURVE SMOOTH",
"435 519 LINE SMOOTH",
"435 560 OFFCURVE",
"468 594 OFFCURVE",
"510 594 CURVE SMOOTH",
"551 594 OFFCURVE",
"585 560 OFFCURVE",
"585 519 CURVE SMOOTH"
);
}
);
width = 782;
}
);
rightKerningGroup = "= \"@MMK_L_l_o\"";
},
{
glyphname = l_oacute;
layers = (
{
layerId = "89B76552-B35F-455B-86D9-BC5A433DF1B4";
paths = (
{
closed = 1;
nodes = (
"217 187 LINE",
"217 670 LINE SMOOTH",
"217 721 OFFCURVE",
"175 763 OFFCURVE",
"124 763 CURVE SMOOTH",
"72 763 OFFCURVE",
"30 721 OFFCURVE",
"30 670 CURVE SMOOTH",
"30 94 LINE SMOOTH",
"30 42 OFFCURVE",
"72 0 OFFCURVE",
"124 0 CURVE SMOOTH",
"400 0 LINE SMOOTH",
"452 0 OFFCURVE",
"494 42 OFFCURVE",
"494 94 CURVE SMOOTH",
"494 146 OFFCURVE",
"452 187 OFFCURVE",
"400 187 CURVE SMOOTH"
);
},
{
closed = 1;
nodes = (
"365 781 OFFCURVE",
"248 663 OFFCURVE",
"248 519 CURVE SMOOTH",
"248 454 LINE SMOOTH",
"248 309 OFFCURVE",
"365 191 OFFCURVE",
"510 191 CURVE SMOOTH",
"654 191 OFFCURVE",
"772 309 OFFCURVE",
"772 454 CURVE SMOOTH",
"772 519 LINE SMOOTH",
"772 663 OFFCURVE",
"654 781 OFFCURVE",
"510 781 CURVE SMOOTH"
);
},
{
closed = 1;
nodes = (
"585 454 LINE SMOOTH",
"585 412 OFFCURVE",
"551 379 OFFCURVE",
"510 379 CURVE SMOOTH",
"468 379 OFFCURVE",
"435 412 OFFCURVE",
"435 454 CURVE SMOOTH",
"435 519 LINE SMOOTH",
"435 560 OFFCURVE",
"468 594 OFFCURVE",
"510 594 CURVE SMOOTH",
"551 594 OFFCURVE",
"585 560 OFFCURVE",
"585 519 CURVE SMOOTH"
);
},
{
closed = 1;
nodes = (
"575 891 LINE",
"575 891 LINE",
"544 869 OFFCURVE",
"537 827 OFFCURVE",
"559 796 CURVE SMOOTH",
"581 766 OFFCURVE",
"624 759 OFFCURVE",
"654 781 CURVE SMOOTH",
"740 843 LINE SMOOTH",
"771 865 OFFCURVE",
"778 907 OFFCURVE",
"756 938 CURVE SMOOTH",
"734 968 OFFCURVE",
"691 975 OFFCURVE",
"661 953 CURVE SMOOTH"
);
}
);
width = 782;
}
);
rightKerningGroup = "= \"@MMK_L_l_o\"";
},
{
glyphname = l_ocircumflex;
layers = (
{
layerId = "89B76552-B35F-455B-86D9-BC5A433DF1B4";
paths = (
{
closed = 1;
nodes = (
"217 187 LINE",
"217 670 LINE SMOOTH",
"217 721 OFFCURVE",
"175 763 OFFCURVE",
"124 763 CURVE SMOOTH",
"72 763 OFFCURVE",
"30 721 OFFCURVE",
"30 670 CURVE SMOOTH",
"30 94 LINE SMOOTH",
"30 42 OFFCURVE",
"72 0 OFFCURVE",
"124 0 CURVE SMOOTH",
"400 0 LINE SMOOTH",
"452 0 OFFCURVE",
"494 42 OFFCURVE",
"494 94 CURVE SMOOTH",
"494 146 OFFCURVE",
"452 187 OFFCURVE",
"400 187 CURVE SMOOTH"
);
},
{
closed = 1;
nodes = (
"365 781 OFFCURVE",
"248 663 OFFCURVE",
"248 519 CURVE SMOOTH",
"248 454 LINE SMOOTH",
"248 309 OFFCURVE",
"365 191 OFFCURVE",
"510 191 CURVE SMOOTH",
"654 191 OFFCURVE",
"772 309 OFFCURVE",
"772 454 CURVE SMOOTH",
"772 519 LINE SMOOTH",
"772 663 OFFCURVE",
"654 781 OFFCURVE",
"510 781 CURVE SMOOTH"
);
},
{
closed = 1;
nodes = (
"585 454 LINE SMOOTH",
"585 412 OFFCURVE",
"551 379 OFFCURVE",
"510 379 CURVE SMOOTH",
"468 379 OFFCURVE",
"435 412 OFFCURVE",
"435 454 CURVE SMOOTH",
"435 519 LINE SMOOTH",
"435 560 OFFCURVE",
"468 594 OFFCURVE",
"510 594 CURVE SMOOTH",
"551 594 OFFCURVE",
"585 560 OFFCURVE",
"585 519 CURVE SMOOTH"
);
},
{
closed = 1;
nodes = (
"552 960 LINE SMOOTH",
"528 977 OFFCURVE",
"496 977 OFFCURVE",
"472 960 CURVE SMOOTH",
"386 898 LINE SMOOTH",
"355 876 OFFCURVE",
"349 834 OFFCURVE",
"370 803 CURVE",
"392 773 OFFCURVE",
"435 766 OFFCURVE",
"465 788 CURVE SMOOTH",
"512 821 LINE",
"558 788 LINE SMOOTH",
"589 766 OFFCURVE",
"631 773 OFFCURVE",
"653 803 CURVE SMOOTH",
"675 834 OFFCURVE",
"668 876 OFFCURVE",
"638 898 CURVE SMOOTH"
);
}
);
width = 782;
}
);
rightKerningGroup = "= \"@MMK_L_l_o\"";
},
{
glyphname = l_otilde;
layers = (
{
layerId = "89B76552-B35F-455B-86D9-BC5A433DF1B4";
paths = (
{
closed = 1;
nodes = (
"217 187 LINE",
"217 670 LINE SMOOTH",
"217 721 OFFCURVE",
"175 763 OFFCURVE",
"124 763 CURVE SMOOTH",
"72 763 OFFCURVE",
"30 721 OFFCURVE",
"30 670 CURVE SMOOTH",
"30 94 LINE SMOOTH",
"30 42 OFFCURVE",
"72 0 OFFCURVE",
"124 0 CURVE SMOOTH",
"400 0 LINE SMOOTH",
"452 0 OFFCURVE",
"494 42 OFFCURVE",
"494 94 CURVE SMOOTH",
"494 146 OFFCURVE",
"452 187 OFFCURVE",
"400 187 CURVE SMOOTH"
);
},
{
closed = 1;
nodes = (
"365 781 OFFCURVE",
"248 663 OFFCURVE",
"248 519 CURVE SMOOTH",
"248 454 LINE SMOOTH",
"248 309 OFFCURVE",
"365 191 OFFCURVE",
"510 191 CURVE SMOOTH",
"654 191 OFFCURVE",
"772 309 OFFCURVE",
"772 454 CURVE SMOOTH",
"772 519 LINE SMOOTH",
"772 663 OFFCURVE",
"654 781 OFFCURVE",
"510 781 CURVE SMOOTH"
);
},
{
closed = 1;
nodes = (
"585 454 LINE SMOOTH",
"585 412 OFFCURVE",
"551 379 OFFCURVE",
"510 379 CURVE SMOOTH",
"468 379 OFFCURVE",
"435 412 OFFCURVE",
"435 454 CURVE SMOOTH",
"435 519 LINE SMOOTH",
"435 560 OFFCURVE",
"468 594 OFFCURVE",
"510 594 CURVE SMOOTH",
"551 594 OFFCURVE",
"585 560 OFFCURVE",
"585 519 CURVE SMOOTH"
);
},
{
closed = 1;
nodes = (
"621 950 OFFCURVE",
"592 939 OFFCURVE",
"575 917 CURVE",
"574 918 OFFCURVE",
"572 919 OFFCURVE",
"571 919 CURVE",
"566 922 LINE",
"566 922 OFFCURVE",
"562 924 OFFCURVE",
"562 924 CURVE",
"544 933 OFFCURVE",
"512 949 OFFCURVE",
"468 944 CURVE SMOOTH",
"416 937 OFFCURVE",
"386 897 OFFCURVE",
"377 865 CURVE SMOOTH",
"366 829 OFFCURVE",
"386 791 OFFCURVE",
"422 780 CURVE SMOOTH",
"450 771 OFFCURVE",
"480 782 OFFCURVE",
"496 804 CURVE",
"498 804 OFFCURVE",
"499 803 OFFCURVE",
"501 802 CURVE SMOOTH",
"505 800 LINE",
"505 800 OFFCURVE",
"509 798 OFFCURVE",
"509 798 CURVE",
"528 789 OFFCURVE",
"559 773 OFFCURVE",
"603 778 CURVE SMOOTH",
"655 784 OFFCURVE",
"685 824 OFFCURVE",
"695 857 CURVE SMOOTH",
"706 893 OFFCURVE",
"685 931 OFFCURVE",
"649 942 CURVE SMOOTH"
);
}
);
width = 782;
}
);
rightKerningGroup = "= \"@MMK_L_l_o\"";
},
{
glyphname = l_u;
layers = (
{
layerId = "89B76552-B35F-455B-86D9-BC5A433DF1B4";
paths = (
{
closed = 1;
nodes = (
"401 0 LINE SMOOTH",
"452 0 OFFCURVE",
"494 42 OFFCURVE",
"494 94 CURVE SMOOTH",
"494 146 OFFCURVE",
"452 187 OFFCURVE",
"401 187 CURVE SMOOTH",
"217 187 LINE",
"217 670 LINE SMOOTH",
"217 721 OFFCURVE",
"176 763 OFFCURVE",
"124 763 CURVE SMOOTH",
"72 763 OFFCURVE",
"30 721 OFFCURVE",
"30 670 CURVE SMOOTH",
"30 94 LINE SMOOTH",
"30 42 OFFCURVE",
"72 0 OFFCURVE",
"124 0 CURVE SMOOTH"
);
},
{
closed = 1;
nodes = (
"655 191 OFFCURVE",
"772 309 OFFCURVE",
"772 454 CURVE SMOOTH",
"772 670 LINE SMOOTH",
"772 721 OFFCURVE",
"730 763 OFFCURVE",
"679 763 CURVE SMOOTH",
"627 763 OFFCURVE",
"585 721 OFFCURVE",
"585 670 CURVE SMOOTH",
"585 454 LINE SMOOTH",
"585 412 OFFCURVE",
"552 379 OFFCURVE",
"510 379 CURVE SMOOTH",
"469 379 OFFCURVE",
"435 412 OFFCURVE",
"435 454 CURVE SMOOTH",
"435 670 LINE SMOOTH",
"435 721 OFFCURVE",
"393 763 OFFCURVE",
"342 763 CURVE SMOOTH",
"290 763 OFFCURVE",
"248 721 OFFCURVE",
"248 670 CURVE SMOOTH",
"248 454 LINE SMOOTH",
"248 309 OFFCURVE",
"366 191 OFFCURVE",
"510 191 CURVE SMOOTH"
);
}
);
width = 782;
}
);
rightKerningGroup = "= \"@MMK_L_l_o\"";
},
{
glyphname = l_uacute;
layers = (
{
layerId = "89B76552-B35F-455B-86D9-BC5A433DF1B4";
paths = (
{
closed = 1;
nodes = (
"124 0 LINE SMOOTH",
"72 0 OFFCURVE",
"30 42 OFFCURVE",
"30 94 CURVE SMOOTH",
"30 670 LINE SMOOTH",
"30 721 OFFCURVE",
"72 763 OFFCURVE",
"124 763 CURVE SMOOTH",
"176 763 OFFCURVE",
"217 721 OFFCURVE",
"217 670 CURVE SMOOTH",
"217 187 LINE",
"401 187 LINE SMOOTH",
"452 187 OFFCURVE",
"494 146 OFFCURVE",
"494 94 CURVE SMOOTH",
"494 42 OFFCURVE",
"452 0 OFFCURVE",
"401 0 CURVE SMOOTH"
);
},
{
closed = 1;
nodes = (
"366 191 OFFCURVE",
"248 309 OFFCURVE",
"248 454 CURVE SMOOTH",
"248 670 LINE SMOOTH",
"248 721 OFFCURVE",
"290 763 OFFCURVE",
"342 763 CURVE SMOOTH",
"393 763 OFFCURVE",
"435 721 OFFCURVE",
"435 670 CURVE SMOOTH",
"435 454 LINE SMOOTH",
"435 412 OFFCURVE",
"469 379 OFFCURVE",
"510 379 CURVE SMOOTH",
"552 379 OFFCURVE",
"585 412 OFFCURVE",
"585 454 CURVE SMOOTH",
"585 670 LINE SMOOTH",
"585 721 OFFCURVE",
"627 763 OFFCURVE",
"679 763 CURVE SMOOTH",
"730 763 OFFCURVE",
"772 721 OFFCURVE",
"772 670 CURVE SMOOTH",
"772 454 LINE SMOOTH",
"772 309 OFFCURVE",
"655 191 OFFCURVE",
"510 191 CURVE SMOOTH"
);
},
{
closed = 1;
nodes = (
"575 877 LINE",
"575 877 LINE",
"544 855 OFFCURVE",
"537 813 OFFCURVE",
"559 782 CURVE SMOOTH",
"581 752 OFFCURVE",
"624 745 OFFCURVE",
"654 767 CURVE SMOOTH",
"740 829 LINE SMOOTH",
"771 851 OFFCURVE",
"778 893 OFFCURVE",
"756 924 CURVE SMOOTH",
"734 954 OFFCURVE",
"691 961 OFFCURVE",
"661 939 CURVE SMOOTH"
);
}
);
width = 782;
}
);
rightKerningGroup = "= \"@MMK_L_l_o\"";
},
{
glyphname = n_t;
layers = (
{
layerId = "89B76552-B35F-455B-86D9-BC5A433DF1B4";
paths = (
{
closed = 1;
nodes = (
"489 0 OFFCURVE",
"497 1 OFFCURVE",
"506 4 CURVE",
"546 15 OFFCURVE",
"574 52 OFFCURVE",
"574 94 CURVE SMOOTH",
"574 670 LINE SMOOTH",
"574 721 OFFCURVE",
"532 763 OFFCURVE",
"480 763 CURVE SMOOTH",
"348 763 LINE SMOOTH",
"297 763 OFFCURVE",
"255 721 OFFCURVE",
"255 670 CURVE SMOOTH",
"255 618 OFFCURVE",
"297 576 OFFCURVE",
"348 576 CURVE SMOOTH",
"386 576 LINE",
"386 423 LINE",
"203 719 LINE SMOOTH",
"181 754 OFFCURVE",
"139 771 OFFCURVE",
"98 760 CURVE SMOOTH",
"58 748 OFFCURVE",
"30 711 OFFCURVE",
"30 670 CURVE SMOOTH",
"30 94 LINE SMOOTH",
"30 42 OFFCURVE",
"72 0 OFFCURVE",
"124 0 CURVE SMOOTH",
"176 0 OFFCURVE",
"217 42 OFFCURVE",
"217 94 CURVE SMOOTH",
"217 341 LINE",
"400 45 LINE SMOOTH",
"418 17 OFFCURVE",
"448 0 OFFCURVE",
"480 0 CURVE SMOOTH"
);
},
{
closed = 1;
nodes = (
"758 0 OFFCURVE",
"800 42 OFFCURVE",
"800 94 CURVE SMOOTH",
"800 576 LINE",
"844 576 LINE SMOOTH",
"896 576 OFFCURVE",
"938 618 OFFCURVE",
"938 670 CURVE",
"937 722 OFFCURVE",
"896 763 OFFCURVE",
"844 763 CURVE SMOOTH",
"844 763 OFFCURVE",
"844 763 OFFCURVE",
"844 763 CURVE SMOOTH",
"707 763 LINE SMOOTH",
"655 763 OFFCURVE",
"613 721 OFFCURVE",
"613 670 CURVE SMOOTH",
"613 94 LINE SMOOTH",
"613 42 OFFCURVE",
"655 0 OFFCURVE",
"707 0 CURVE SMOOTH"
);
}
);
width = 938;
}
);
rightKerningGroup = "= \"@MMK_L_space\"";
},
{
glyphname = n_t_e_m;
layers = (
{
layerId = "89B76552-B35F-455B-86D9-BC5A433DF1B4";
paths = (
{
closed = 1;
nodes = (
"348 763 LINE SMOOTH",
"297 763 OFFCURVE",
"255 721 OFFCURVE",
"255 669 CURVE SMOOTH",
"255 618 OFFCURVE",
"297 576 OFFCURVE",
"348 576 CURVE SMOOTH",
"386 576 LINE",
"386 423 LINE",
"203 719 LINE SMOOTH",
"181 754 OFFCURVE",
"138 771 OFFCURVE",
"98 759 CURVE SMOOTH",
"58 748 OFFCURVE",
"30 711 OFFCURVE",
"30 669 CURVE SMOOTH",
"30 94 LINE SMOOTH",
"30 42 OFFCURVE",
"72 0 OFFCURVE",
"124 0 CURVE SMOOTH",
"175 0 OFFCURVE",
"217 42 OFFCURVE",
"217 94 CURVE SMOOTH",
"217 340 LINE",
"400 44 LINE SMOOTH",
"418 16 OFFCURVE",
"448 0 OFFCURVE",
"480 0 CURVE SMOOTH",
"488 0 OFFCURVE",
"497 1 OFFCURVE",
"506 4 CURVE",
"546 15 OFFCURVE",
"573 52 OFFCURVE",
"573 94 CURVE SMOOTH",
"573 669 LINE SMOOTH",
"573 721 OFFCURVE",
"532 763 OFFCURVE",
"480 763 CURVE SMOOTH"
);
},
{
closed = 1;
nodes = (
"2058 771 OFFCURVE",
"2015 756 OFFCURVE",
"1992 722 CURVE SMOOTH",
"1772 398 LINE",
"1772 669 LINE SMOOTH",
"1772 710 OFFCURVE",
"1745 747 OFFCURVE",
"1706 759 CURVE SMOOTH",
"1666 771 OFFCURVE",
"1624 756 OFFCURVE",
"1601 722 CURVE SMOOTH",
"1237 187 LINE",
"1104 187 LINE",
"1104 319 LINE",
"1237 319 LINE SMOOTH",
"1288 319 OFFCURVE",
"1330 361 OFFCURVE",
"1330 413 CURVE SMOOTH",
"1330 464 OFFCURVE",
"1288 506 OFFCURVE",
"1237 506 CURVE SMOOTH",
"1104 506 LINE",
"1104 576 LINE",
"1269 576 LINE SMOOTH",
"1320 576 OFFCURVE",
"1362 618 OFFCURVE",
"1362 669 CURVE SMOOTH",
"1362 721 OFFCURVE",
"1320 763 OFFCURVE",
"1269 763 CURVE SMOOTH",
"799 763 OFFCURVE",
"754 763 OFFCURVE",
"707 763 CURVE SMOOTH",
"707 763 OFFCURVE",
"707 763 OFFCURVE",
"707 763 CURVE SMOOTH",
"707 763 LINE SMOOTH",
"707 763 OFFCURVE",
"707 763 OFFCURVE",
"707 763 CURVE SMOOTH",
"657 763 OFFCURVE",
"616 724 OFFCURVE",
"613 674 CURVE",
"613 477 OFFCURVE",
"613 286 OFFCURVE",
"613 94 CURVE SMOOTH",
"613 42 OFFCURVE",
"655 0 OFFCURVE",
"707 0 CURVE SMOOTH",
"758 0 OFFCURVE",
"800 42 OFFCURVE",
"800 94 CURVE SMOOTH",
"800 576 LINE",
"917 576 LINE",
"917 94 LINE SMOOTH",
"917 42 OFFCURVE",
"959 0 OFFCURVE",
"1010 0 CURVE SMOOTH",
"1287 0 LINE SMOOTH",
"1318 0 OFFCURVE",
"1347 15 OFFCURVE",
"1364 41 CURVE SMOOTH",
"1585 365 LINE",
"1585 94 LINE SMOOTH",
"1585 53 OFFCURVE",
"1611 16 OFFCURVE",
"1651 4 CURVE SMOOTH",
"1690 -8 OFFCURVE",
"1732 7 OFFCURVE",
"1756 41 CURVE SMOOTH",
"1976 365 LINE",
"1976 94 LINE SMOOTH",
"1976 42 OFFCURVE",
"2018 0 OFFCURVE",
"2069 0 CURVE SMOOTH",
"2121 0 OFFCURVE",
"2163 42 OFFCURVE",
"2163 94 CURVE SMOOTH",
"2163 669 LINE SMOOTH",
"2163 710 OFFCURVE",
"2136 747 OFFCURVE",
"2097 759 CURVE SMOOTH"
);
}
);
width = 2193;
}
);
rightKerningGroup = "= \"@MMK_L_space\"";
},
{
glyphname = n_t_eacute_m;
layers = (
{
layerId = "89B76552-B35F-455B-86D9-BC5A433DF1B4";
paths = (
{
closed = 1;
nodes = (
"348 763 LINE SMOOTH",
"297 763 OFFCURVE",
"255 721 OFFCURVE",
"255 669 CURVE SMOOTH",
"255 618 OFFCURVE",
"297 576 OFFCURVE",
"348 576 CURVE SMOOTH",
"386 576 LINE",
"386 423 LINE",
"203 719 LINE SMOOTH",
"181 754 OFFCURVE",
"138 771 OFFCURVE",
"98 759 CURVE SMOOTH",
"58 748 OFFCURVE",
"30 711 OFFCURVE",
"30 669 CURVE SMOOTH",
"30 94 LINE SMOOTH",
"30 42 OFFCURVE",
"72 0 OFFCURVE",
"124 0 CURVE SMOOTH",
"175 0 OFFCURVE",
"217 42 OFFCURVE",
"217 94 CURVE SMOOTH",
"217 340 LINE",
"400 44 LINE SMOOTH",
"418 16 OFFCURVE",
"448 0 OFFCURVE",
"480 0 CURVE SMOOTH",
"488 0 OFFCURVE",
"497 1 OFFCURVE",
"506 4 CURVE",
"546 15 OFFCURVE",
"573 52 OFFCURVE",
"573 94 CURVE SMOOTH",
"573 669 LINE SMOOTH",
"573 721 OFFCURVE",
"532 763 OFFCURVE",
"480 763 CURVE SMOOTH"
);
},
{
closed = 1;
nodes = (
"2058 771 OFFCURVE",
"2015 756 OFFCURVE",
"1992 722 CURVE SMOOTH",
"1772 398 LINE",
"1772 669 LINE SMOOTH",
"1772 710 OFFCURVE",
"1745 747 OFFCURVE",
"1706 759 CURVE SMOOTH",
"1666 771 OFFCURVE",
"1624 756 OFFCURVE",
"1601 722 CURVE SMOOTH",
"1237 187 LINE",
"1104 187 LINE",
"1104 319 LINE",
"1237 319 LINE SMOOTH",
"1288 319 OFFCURVE",
"1330 361 OFFCURVE",
"1330 413 CURVE SMOOTH",
"1330 464 OFFCURVE",
"1288 506 OFFCURVE",
"1237 506 CURVE SMOOTH",
"1104 506 LINE",
"1104 576 LINE",
"1269 576 LINE SMOOTH",
"1320 576 OFFCURVE",
"1362 618 OFFCURVE",
"1362 669 CURVE SMOOTH",
"1362 721 OFFCURVE",
"1320 763 OFFCURVE",
"1269 763 CURVE SMOOTH",
"799 763 OFFCURVE",
"754 763 OFFCURVE",
"707 763 CURVE SMOOTH",
"707 763 OFFCURVE",
"707 763 OFFCURVE",
"707 763 CURVE SMOOTH",
"707 763 LINE SMOOTH",
"707 763 OFFCURVE",
"707 763 OFFCURVE",
"707 763 CURVE SMOOTH",
"657 763 OFFCURVE",
"616 724 OFFCURVE",
"613 674 CURVE",
"613 477 OFFCURVE",
"613 286 OFFCURVE",
"613 94 CURVE SMOOTH",
"613 42 OFFCURVE",
"655 0 OFFCURVE",
"707 0 CURVE SMOOTH",
"758 0 OFFCURVE",
"800 42 OFFCURVE",
"800 94 CURVE SMOOTH",
"800 576 LINE",
"917 576 LINE",
"917 94 LINE SMOOTH",
"917 42 OFFCURVE",
"959 0 OFFCURVE",
"1010 0 CURVE SMOOTH",
"1287 0 LINE SMOOTH",
"1318 0 OFFCURVE",
"1347 15 OFFCURVE",
"1364 41 CURVE SMOOTH",
"1585 365 LINE",
"1585 94 LINE SMOOTH",
"1585 53 OFFCURVE",
"1611 16 OFFCURVE",
"1651 4 CURVE SMOOTH",
"1690 -8 OFFCURVE",
"1732 7 OFFCURVE",
"1756 41 CURVE SMOOTH",
"1976 365 LINE",
"1976 94 LINE SMOOTH",
"1976 42 OFFCURVE",
"2018 0 OFFCURVE",
"2069 0 CURVE SMOOTH",
"2121 0 OFFCURVE",
"2163 42 OFFCURVE",
"2163 94 CURVE SMOOTH",
"2163 669 LINE SMOOTH",
"2163 710 OFFCURVE",
"2136 747 OFFCURVE",
"2097 759 CURVE SMOOTH"
);
},
{
closed = 1;
nodes = (
"1114 890 LINE",
"1114 890 LINE",
"1083 868 OFFCURVE",
"1076 826 OFFCURVE",
"1098 795 CURVE SMOOTH",
"1120 765 OFFCURVE",
"1163 758 OFFCURVE",
"1193 780 CURVE SMOOTH",
"1279 842 LINE SMOOTH",
"1310 864 OFFCURVE",
"1317 906 OFFCURVE",
"1295 937 CURVE SMOOTH",
"1273 967 OFFCURVE",
"1230 974 OFFCURVE",
"1200 952 CURVE SMOOTH"
);
}
);
width = 2193;
}
);
rightKerningGroup = "= \"@MMK_L_space\"";
},
